<svg width="72" height="72" viewBox="0 0 72 72" fill="none" xmlns="http://www.w3.org/2000/svg">
<path d="M43.0275 29.349C43.7107 29.5171 44.4095 29.5644 45.1084 29.596C46.5429 29.659 47.9827 29.6222 49.4225 29.6065C50.1424 29.596 50.8571 29.5592 51.577 29.6065C52.2443 29.6485 52.8854 29.8009 53.4949 30.0741C55.208 30.8466 56.3115 32.1918 57.0261 33.8891C57.0997 34.0625 57.147 34.2516 57.2415 34.4145C57.4412 34.7613 57.8196 34.7929 58.0876 34.4828C58.1716 34.383 58.2399 34.2674 58.2977 34.1465C58.8652 33.0483 59.5746 32.0447 60.3944 31.1251C61.0302 30.4104 61.7764 29.8377 62.6591 29.4541C63.8835 28.9234 65.0868 28.9706 66.2639 29.596C66.7 29.8272 67.1099 30.1057 67.4514 30.4577C67.9401 30.9569 68.5076 31.309 69.1435 31.5717C69.3904 31.6716 69.6269 31.7819 69.8686 31.8975C70.021 31.9711 70.1734 32.0552 70.3153 32.1445C70.5149 32.2706 70.4571 32.4388 70.2942 32.5439C70.1471 32.6384 69.9685 32.6384 69.8056 32.6805C68.0978 33.0956 66.7841 34.0309 65.9749 35.6179C65.7752 36.0067 65.6123 36.4061 65.5019 36.8317C65.2497 37.7986 64.9975 38.7707 64.7453 39.7376C64.6665 39.911 64.5824 40.0791 64.5088 40.2525C64.0727 41.2509 63.4946 42.1547 62.7327 42.9324C61.3192 44.3827 59.5799 45.1814 57.6041 45.523C56.8947 45.6438 56.1801 45.7016 55.476 45.8698C53.0746 46.4583 51.4141 47.8824 50.5313 50.2049C50.4314 50.4729 50.4209 50.6779 50.6153 50.9301C51.4561 52.0493 52.3284 53.1423 53.29 54.167C54.0835 55.0077 54.8979 55.8222 55.8543 56.4843C57.8406 57.8663 60.0108 58.334 62.3754 57.819C63.0375 57.6719 63.6943 57.4775 64.3564 57.3303C64.6927 57.2568 64.9292 57.1149 65.1289 56.8259C66.3217 55.1181 67.3884 53.3315 68.2817 51.4503C69.3064 49.2906 70.1208 47.0574 70.6883 44.7348C70.7146 44.6455 70.7514 44.5561 70.7724 44.4668C71.3189 42.2966 71.6289 40.0844 71.734 37.8511C71.8286 35.8858 71.7761 33.9153 71.5554 31.9553C71.2874 29.617 70.825 27.3207 70.0946 25.0874C67.5355 17.2211 62.8483 10.9207 56.0277 6.24402C50.1319 2.19789 43.5583 0.180085 36.4119 0.00667979C35.0667 -0.0248485 33.7267 0.0592269 32.3868 0.174831C30.989 0.295689 29.607 0.505877 28.2408 0.805396C21.8038 2.20315 16.1602 5.14053 11.3311 9.61229C6.81207 13.8003 3.58568 18.8343 1.62567 24.6723C1.56787 24.851 1.47854 25.0191 1.48905 25.2188C1.64144 25.1873 1.69399 25.0506 1.77281 24.9508C3.29142 23.0171 5.1621 21.5037 7.33755 20.3634C7.48993 20.2846 7.63181 20.1953 7.80521 20.1638C7.92607 20.1427 8.03642 20.1638 8.10999 20.2688C8.16779 20.3529 8.14677 20.4528 8.09422 20.5368C7.96811 20.747 7.82623 20.952 7.71063 21.1674C6.99073 22.5021 6.41272 23.8999 5.91352 25.3344C5.88199 25.4237 5.85572 25.5131 5.90826 25.6076C5.93979 25.5919 5.98183 25.5814 6.00285 25.5551C6.08692 25.429 6.16049 25.2976 6.23931 25.1662C6.91191 24.026 7.6213 22.9067 8.48307 21.8926C10.4273 19.591 12.9023 18.3141 15.8922 18.0619C17.6893 17.9095 19.4864 18.0093 21.2678 18.3036C22.9493 18.5821 24.5993 18.9867 26.2387 19.4596C28.987 20.2531 31.6721 21.2199 34.3257 22.2867C35.4135 22.7228 36.4959 23.18 37.5784 23.6214C37.7413 23.6897 37.8989 23.7475 37.941 23.9419C37.8411 24.0995 37.6677 24.1258 37.5048 24.1836C36.559 24.5147 35.6289 24.8877 34.7251 25.3239C30.7 27.2629 27.4789 30.1057 25.0932 33.8838C24.6886 34.5249 24.3155 35.1817 23.9319 35.8333C23.2646 36.9578 22.5394 38.0455 21.6934 39.0439C20.8054 40.0896 19.8122 41.0144 18.6667 41.7711C17.1428 42.78 15.4561 43.3686 13.6747 43.7049C12.1666 43.9939 10.6428 44.1357 9.11364 44.2829C8.24661 44.367 7.37958 44.4458 6.51781 44.5456C4.89936 44.7348 3.30193 45.0448 1.72026 45.4231C1.01613 45.5913 1.08969 45.4915 1.29463 46.1903C2.32455 49.6847 3.85367 52.9426 5.88199 55.9694C6.01861 56.1743 6.16049 56.374 6.30237 56.5737C6.39695 56.6998 6.48103 56.7103 6.58087 56.6052C6.71223 56.4686 6.8436 56.3319 6.96972 56.1901C7.66859 55.3651 8.36221 54.5401 9.05584 53.7151C10.07 52.5012 11.1945 51.4135 12.545 50.578C13.7378 49.8424 15.0252 49.3694 16.4072 49.1645C17.6158 48.9858 18.8191 49.0436 20.0277 49.2328C20.6635 49.3327 21.3046 49.3852 21.9509 49.3537C23.6272 49.2696 25.1878 48.8072 26.6276 47.9402C27.9413 47.152 29.05 46.1273 30.0589 44.9923C30.6737 44.2986 31.2833 43.5998 31.8981 42.9061C32.6915 42.0128 33.5165 41.1511 34.4046 40.3576C35.1402 39.6955 35.9442 39.128 36.869 38.7549C38.3929 38.1401 39.8957 38.1822 41.3723 38.9231C42.3182 39.396 43.1116 40.0581 43.8263 40.8253C44.6985 41.7554 45.4395 42.78 46.1121 43.8572C46.5114 44.4983 46.9003 45.1499 47.2996 45.791C47.4047 45.9591 47.4468 45.9696 47.6202 45.8856C48.7447 45.3338 49.9112 44.8977 51.0725 44.43C52.3862 43.8993 53.7051 43.3738 54.9505 42.6802C57.4622 41.2877 59.4485 39.3697 60.8042 36.8212C60.9356 36.5795 61.0722 36.3378 61.1143 36.0487C59.3644 38.1086 57.3519 39.8321 54.9715 41.109C52.691 42.3334 48.8445 43.5052 47.2734 43.4316C47.7147 43.1216 48.1561 42.9061 48.566 42.6487C48.9969 42.3754 49.4383 42.1127 49.8639 41.8342C50.2738 41.5662 50.6837 41.2877 51.083 41.0039C51.4981 40.7044 51.9028 40.3944 52.3021 40.0791C52.6805 39.7796 53.0693 39.4853 53.4319 39.0544C53.2847 39.0807 53.2112 39.0912 53.1429 39.107C52.1235 39.3224 51.0988 39.5011 50.0531 39.5326C49.144 39.5589 48.235 39.5326 47.3417 39.3329C45.45 38.9231 43.9314 37.9194 42.749 36.4061C42.4705 36.0487 42.2288 35.6599 41.9766 35.2868C41.9188 35.2027 41.8137 35.0976 41.903 34.9925C41.9713 34.9137 42.0817 34.982 42.171 35.0083C42.5494 35.1239 42.9277 35.2448 43.3113 35.3551C44.5514 35.7177 45.8125 35.9489 47.1157 35.8911C47.988 35.8543 48.855 35.7755 49.7115 35.6231C50.5155 35.4812 51.2932 35.2448 52.0184 34.8559C52.1129 34.8086 52.2285 34.7824 52.2601 34.6142C52.0709 34.609 51.8922 34.5932 51.7136 34.5932C50.4262 34.5932 49.1388 34.609 47.8514 34.5932C46.8267 34.5774 45.8073 34.4986 44.8089 34.2779C43.2272 33.9258 41.7927 33.2795 40.5999 32.1655C39.1916 30.8466 38.2142 29.2912 37.9673 27.3364C37.9567 27.2681 37.9252 27.1788 38.0145 27.1473C38.0566 27.1315 38.1249 27.163 38.1669 27.1893C38.3036 27.2891 38.4349 27.3995 38.5716 27.4993C39.9062 28.482 41.3881 29.1073 43.0328 29.349H43.0275ZM50.6521 68.7541C50.505 68.6752 50.4472 68.6332 50.3789 68.6069C49.6012 68.2969 48.9916 67.7662 48.4767 67.1251C48.1194 66.6837 47.8146 66.2055 47.5466 65.7011C46.7794 64.2771 46.2382 62.7637 45.76 61.2293C45.0979 59.0959 44.6302 56.9152 44.1626 54.7292C43.842 53.2317 43.5373 51.7288 43.1326 50.2522C42.8226 49.1382 42.4338 48.0505 41.8085 47.0679C41.2882 46.2429 40.6734 45.502 39.8379 44.9765C38.7029 44.2619 37.5311 44.1988 36.3278 44.7978C36.1071 44.9082 35.9022 45.0396 35.6972 45.1762C35.2979 45.4389 34.9616 45.7647 34.6253 46.1063C34.0105 46.7263 33.4587 47.3989 32.8965 48.0663C32.0557 49.0699 31.1519 50.0105 30.101 50.7987C27.605 52.6694 24.8147 53.4313 21.7197 53.0582C20.9893 52.9689 20.2536 52.8953 19.5127 52.8796C17.1954 52.8165 14.9989 53.2737 12.9548 54.3877C12.0353 54.8869 11.1945 55.4912 10.4063 56.1795C9.56554 56.9205 8.84565 57.777 8.05744 58.5704C7.96811 58.665 7.93658 58.7596 8.03117 58.8647C8.07846 58.9225 8.12575 58.9803 8.17305 59.0434C9.1872 60.273 10.2854 61.4185 11.4572 62.4957C14.9148 65.6643 18.8401 68.0815 23.233 69.7314C26.9166 71.1082 30.7263 71.8333 34.6515 71.9805C35.6709 72.0172 36.6904 72.0015 37.715 71.9384C38.7555 71.8754 39.7906 71.7913 40.8206 71.6442C44.0417 71.187 47.1472 70.3147 50.1319 69.0168C50.2843 68.9485 50.4367 68.8697 50.6574 68.7646L50.6521 68.7541ZM18.6142 26.543C18.4986 26.564 18.3672 26.5745 18.2463 26.6113C17.4108 26.8583 16.5701 27.0842 15.7503 27.3627C12.1666 28.5713 8.88243 30.3264 5.96607 32.7435C3.7223 34.6037 1.80959 36.7634 0.191138 39.1911C0.0492609 39.4065 -0.0243051 39.6114 0.00722316 39.8742C0.154355 41.0565 0.327761 42.2335 0.569477 43.4001C0.585241 43.4736 0.601006 43.5472 0.627279 43.6208C0.653553 43.6786 0.627279 43.7837 0.737628 43.7784C0.874251 43.7154 0.911034 43.5787 0.968835 43.4631C1.48905 42.4963 2.06707 41.5662 2.67136 40.6466C4.67866 37.5989 6.99074 34.8139 9.72318 32.3862C12.2875 30.1109 15.104 28.2245 18.2673 26.8793C18.3724 26.8372 18.467 26.7742 18.5616 26.7111C18.6036 26.6849 18.6509 26.6376 18.6089 26.543H18.6142Z" fill="#FEFFFF"/>
<path d="M64.7452 39.7428C64.9975 38.7759 65.2497 37.8038 65.5019 36.8369C65.6123 36.4113 65.7752 36.012 65.9748 35.6231C66.7841 34.0362 68.0977 33.1009 69.8055 32.6857C69.9684 32.6437 70.1471 32.6437 70.2942 32.5491C70.4624 32.444 70.5202 32.2706 70.3152 32.1497C70.1681 32.0604 70.021 31.9763 69.8686 31.9028C69.6321 31.7872 69.3904 31.6768 69.1434 31.577C68.5076 31.3143 67.9348 30.9569 67.4514 30.463C67.1046 30.1109 66.7 29.8324 66.2638 29.6012C65.0868 28.9759 63.8835 28.9286 62.6591 29.4593C61.7763 29.8429 61.0302 30.4157 60.3943 31.1303C59.5746 32.0499 58.8652 33.0536 58.2977 34.1518C58.2399 34.2674 58.1716 34.3883 58.0875 34.4881C57.8195 34.7929 57.4412 34.7666 57.2415 34.4198C57.1469 34.2569 57.0996 34.073 57.0261 33.8943C56.3114 32.1918 55.2079 30.8518 53.4949 30.0794C52.8853 29.8062 52.2443 29.6538 51.5769 29.6117C50.857 29.5644 50.1371 29.6012 49.4225 29.6117C47.9827 29.6327 46.5482 29.6695 45.1084 29.6012C44.4095 29.5697 43.7106 29.5276 43.0275 29.3542C42.975 29.2334 42.9434 29.102 42.8699 28.9917C42.2918 28.1614 41.8084 27.2629 41.1568 26.4799C40.8468 26.1068 40.5578 25.7075 40.2005 25.3712C39.9798 25.161 39.7381 24.9876 39.5069 24.7984C39.0392 24.4096 38.5295 24.1048 37.9357 23.9471C37.8937 23.7527 37.7308 23.6897 37.5731 23.6266C36.4854 23.18 35.4082 22.7281 34.3205 22.2919C31.6668 21.2305 28.9817 20.2636 26.2335 19.4649C24.594 18.992 22.944 18.5873 21.2625 18.3088C19.4811 18.0146 17.684 17.9147 15.8869 18.0671C12.897 18.3193 10.422 19.6015 8.47778 21.8978C7.62126 22.912 6.90662 24.0312 6.23402 25.1715C6.1552 25.3029 6.08163 25.4342 5.99756 25.5603C5.98179 25.5866 5.9345 25.5971 5.90297 25.6129C5.85043 25.5236 5.8767 25.429 5.90823 25.3396C6.40742 23.9104 6.98544 22.5126 7.70534 21.1727C7.82094 20.9572 7.96282 20.7523 8.08893 20.5421C8.14148 20.458 8.15724 20.3582 8.1047 20.2741C8.03639 20.1743 7.92078 20.1532 7.79992 20.169C7.62652 20.1953 7.48464 20.2899 7.33225 20.3687C5.1568 21.509 3.28613 23.0223 1.76751 24.9561C1.68869 25.0559 1.6414 25.1925 1.48376 25.224C1.47325 25.0244 1.56258 24.8562 1.62038 24.6775C3.58039 18.8343 6.80678 13.8003 11.3258 9.61755C16.1602 5.13528 21.8037 2.20315 28.2408 0.805396C29.607 0.505877 30.9942 0.300944 32.3867 0.174831C33.7267 0.0592269 35.0666 -0.0248485 36.4118 0.00667979C43.5582 0.174831 50.1319 2.19789 56.0329 6.24402C62.8535 10.9207 67.5407 17.2211 70.0998 25.0874C70.8249 27.3259 71.2926 29.617 71.5606 31.9553C71.7865 33.9153 71.8338 35.8806 71.7393 37.8511C71.6342 40.0844 71.3241 42.2966 70.7776 44.4668C70.7566 44.5561 70.7198 44.6455 70.6936 44.7348C70.662 44.719 70.6147 44.7138 70.5937 44.6875C70.2049 44.1568 69.8108 43.6365 69.3851 43.1373C68.7546 42.4069 68.082 41.7343 67.2622 41.2194C67.1676 41.1616 67.0678 41.0985 66.989 41.0197C66.8419 40.8673 66.6632 40.7727 66.4898 40.6571C65.9328 40.2998 65.3285 40.0423 64.7452 39.7323V39.7428Z" fill="#03CD9C"/>
<path d="M50.6521 68.7541C50.4314 68.8592 50.2843 68.938 50.1266 69.0063C47.142 70.3042 44.0364 71.1765 40.8153 71.6337C39.7854 71.7808 38.7502 71.8649 37.7097 71.9279C36.6903 71.991 35.6657 72.012 34.6463 71.97C30.721 71.8228 26.9113 71.0977 23.2278 69.7209C18.8348 68.0762 14.9096 65.6538 11.452 62.4852C10.2802 61.408 9.18192 60.2625 8.16776 59.0329C8.12047 58.9751 8.07318 58.912 8.02589 58.8542C7.9313 58.7439 7.96283 58.6493 8.05216 58.5599C8.83511 57.7665 9.55501 56.91 10.401 56.1691C11.184 55.4807 12.03 54.8764 12.9496 54.3772C14.9936 53.2632 17.1901 52.806 19.5074 52.8691C20.2483 52.8901 20.9788 52.9637 21.7144 53.0478C24.8147 53.4208 27.6049 52.6537 30.0957 50.7882C31.1466 50 32.0504 49.0594 32.8912 48.0558C33.4534 47.3884 34.0052 46.7158 34.62 46.0958C34.951 45.7595 35.2926 45.4284 35.6919 45.1657C35.8969 45.0291 36.1071 44.8977 36.3225 44.7874C37.5258 44.1883 38.6976 44.2514 39.8327 44.966C40.6682 45.4915 41.2777 46.2324 41.8032 47.0574C42.4285 48.04 42.8226 49.1277 43.1274 50.2417C43.5372 51.7183 43.8367 53.2212 44.1573 54.7188C44.625 56.8995 45.0979 59.0854 45.7547 61.2188C46.2329 62.7585 46.7741 64.2666 47.5413 65.6906C47.8093 66.1898 48.1141 66.668 48.4714 67.1146C48.9916 67.7557 49.5959 68.2917 50.3736 68.5964C50.4419 68.6227 50.505 68.6648 50.6469 68.7436L50.6521 68.7541Z" fill="#01A9BE"/>
<path d="M37.9357 23.9419C38.5295 24.0995 39.0392 24.4096 39.5069 24.7932C39.7381 24.9823 39.9798 25.161 40.2005 25.3659C40.5578 25.7022 40.8468 26.1016 41.1568 26.4747C41.8084 27.2524 42.2919 28.1509 42.8699 28.9864C42.9434 29.0915 42.975 29.2281 43.0275 29.349C41.3881 29.1073 39.901 28.482 38.5663 27.4993C38.4297 27.3995 38.2983 27.2891 38.1617 27.1893C38.1196 27.1578 38.0513 27.1315 38.0093 27.1473C37.9199 27.1788 37.9515 27.2681 37.962 27.3364C38.209 29.2912 39.1863 30.8518 40.5946 32.1655C41.7874 33.2795 43.2219 33.9258 44.8036 34.2779C45.8073 34.4986 46.8267 34.5827 47.8461 34.5932C49.1335 34.609 50.4209 34.5932 51.7083 34.5932C51.887 34.5932 52.0709 34.6037 52.2548 34.6142C52.2233 34.7824 52.1024 34.8086 52.0131 34.8559C51.2879 35.2395 50.5102 35.476 49.7063 35.6231C48.8497 35.7755 47.9827 35.8491 47.1104 35.8911C45.8073 35.9489 44.5461 35.7177 43.306 35.3551C42.9224 35.2448 42.5441 35.1239 42.1658 35.0083C42.0764 34.982 41.9661 34.9137 41.8978 34.9925C41.8084 35.0976 41.9135 35.2027 41.9713 35.2868C42.2236 35.6652 42.4653 36.054 42.7438 36.4061C43.9313 37.9194 45.4447 38.9231 47.3364 39.3329C48.2297 39.5274 49.1335 39.5589 50.0478 39.5326C51.0935 39.5011 52.1182 39.3224 53.1376 39.107C53.2112 39.0912 53.2795 39.0807 53.4266 39.0544C53.064 39.4853 52.6752 39.7743 52.2968 40.0791C51.8975 40.3996 51.4929 40.7097 51.0777 41.0039C50.6784 41.2929 50.2685 41.5662 49.8587 41.8342C49.433 42.1127 48.9916 42.3754 48.5607 42.6487C48.1509 42.9061 47.7095 43.1216 47.2681 43.4316C48.8392 43.5052 52.6857 42.3281 54.9662 41.109C57.3466 39.8321 59.3644 38.1086 61.109 36.0487C61.067 36.3378 60.9303 36.5795 60.799 36.8212C59.4485 39.375 57.457 41.2877 54.9452 42.6802C53.6998 43.3686 52.3862 43.8993 51.0672 44.43C49.9112 44.8977 48.7394 45.3338 47.6149 45.8856C47.4415 45.9696 47.3994 45.9591 47.2943 45.791C46.895 45.1499 46.5061 44.4983 46.1068 43.8572C45.4342 42.78 44.688 41.7554 43.821 40.8253C43.1063 40.0633 42.3076 39.396 41.367 38.9231C39.8905 38.1822 38.3876 38.1401 36.8638 38.7549C35.9389 39.128 35.1402 39.6955 34.3993 40.3576C33.5112 41.1511 32.6863 42.0128 31.8928 42.9061C31.278 43.5998 30.6684 44.2986 30.0536 44.9923C29.0395 46.1273 27.936 47.152 26.6223 47.9402C25.1773 48.8019 23.6219 49.2696 21.9456 49.3537C21.2993 49.3852 20.6582 49.3327 20.0224 49.2328C18.8191 49.0436 17.6157 48.9858 16.4019 49.1645C15.0199 49.3694 13.7325 49.8424 12.5397 50.578C11.1892 51.4135 10.0647 52.5012 9.05056 53.7151C8.35694 54.5401 7.66332 55.3651 6.96444 56.1901C6.84358 56.3319 6.71221 56.4738 6.57559 56.6052C6.47575 56.705 6.38642 56.6998 6.29709 56.5737C6.14996 56.374 6.01334 56.1743 5.87671 55.9694C3.85365 52.9426 2.31927 49.6847 1.28935 46.1903C1.08442 45.4915 1.01085 45.5913 1.71498 45.4232C3.29665 45.0448 4.89408 44.7348 6.51253 44.5456C7.37431 44.4458 8.24133 44.367 9.10836 44.2829C10.6322 44.1305 12.1613 43.9939 13.6695 43.7049C15.4508 43.3633 17.1376 42.78 18.6614 41.7711C19.807 41.0144 20.8001 40.0844 21.6881 39.0439C22.5394 38.0455 23.2646 36.9631 23.9266 35.8333C24.3102 35.1817 24.6833 34.5249 25.0879 33.8838C27.4736 30.1057 30.6947 27.2629 34.7198 25.3239C35.6236 24.8877 36.5537 24.5147 37.4996 24.1836C37.6625 24.1258 37.8306 24.0995 37.9357 23.9419Z" fill="#01A9BE"/>
<path d="M64.7453 39.7427C65.3233 40.0527 65.9328 40.3102 66.4898 40.6675C66.6632 40.7779 66.8419 40.8777 66.989 41.0301C67.0679 41.1089 67.1677 41.1667 67.2623 41.2298C68.082 41.7447 68.7546 42.4173 69.3852 43.1477C69.8161 43.6469 70.2049 44.1671 70.5938 44.6979C70.6148 44.7241 70.6621 44.7294 70.6936 44.7452C70.1313 47.0677 69.3169 49.301 68.2869 51.4607C67.3884 53.3419 66.3269 55.1285 65.1341 56.8363C64.9344 57.1253 64.698 57.2671 64.3617 57.3407C63.6996 57.4826 63.0427 57.6823 62.3806 57.8294C60.0108 58.3444 57.8406 57.8767 55.8596 56.4947C54.9084 55.8273 54.0887 55.0181 53.2953 54.1774C52.3336 53.158 51.4614 52.065 50.6206 50.9405C50.4314 50.6882 50.4367 50.4833 50.5365 50.2153C51.4193 47.8927 53.0798 46.4687 55.4812 45.8802C56.1801 45.7068 56.9 45.6542 57.6094 45.5334C59.5799 45.1918 61.3245 44.3931 62.738 42.9428C63.4999 42.1598 64.0832 41.2613 64.5141 40.2629C64.5876 40.0895 64.6717 39.9213 64.7505 39.7479L64.7453 39.7427Z" fill="#01A9BE"/>
<path d="M18.6142 26.543C18.6562 26.6428 18.6142 26.6848 18.5669 26.7111C18.4723 26.7742 18.3777 26.832 18.2726 26.8793C15.1093 28.2245 12.2927 30.1109 9.72843 32.3862C6.99598 34.8139 4.67866 37.5989 2.67661 40.6466C2.07232 41.5609 1.4943 42.4963 0.974084 43.4631C0.911028 43.5735 0.8795 43.7154 0.742877 43.7784C0.632528 43.7784 0.658802 43.6786 0.632528 43.6208C0.606255 43.5525 0.585236 43.4736 0.574726 43.4001C0.338264 42.2335 0.159604 41.0565 0.0124722 39.8742C-0.0190561 39.6114 0.0545099 39.4012 0.196387 39.1911C1.81484 36.7686 3.72755 34.609 5.97132 32.7435C8.88768 30.3211 12.1771 28.5713 15.7556 27.3627C16.5806 27.0842 17.4213 26.8583 18.2516 26.6113C18.3724 26.5745 18.5038 26.564 18.6194 26.543H18.6142Z" fill="#03CD9C"/>
</svg>
