<svg width="673" height="454" viewBox="0 0 673 454" fill="none" xmlns="http://www.w3.org/2000/svg">
<ellipse cx="336.5" cy="353.824" rx="274.5" ry="75.5" fill="#88F2E1"/>
<path d="M353.456 214.863H196.826C197.096 214.263 197.246 213.563 197.646 213.073C201.206 208.763 204.846 204.513 208.406 200.203C211.046 196.993 213.596 193.703 216.206 190.473C216.986 189.513 217.146 188.723 216.586 187.443C213.246 179.813 210.136 172.083 206.796 164.463C205.266 160.963 203.576 157.543 202.906 153.733C204.516 153.253 206.286 153.263 207.836 153.253C211.956 153.223 216.376 154.083 218.106 158.393C220.256 163.723 224.246 166.363 229.376 167.363C230.926 167.663 233.596 168.703 234.826 166.023C235.326 165.813 235.986 165.753 236.296 165.383C239.886 161.103 243.646 156.943 246.916 152.433C250.526 147.463 255.386 143.543 258.506 138.193C259.406 138.333 260.056 138.023 260.896 137.533C264.956 135.183 268.656 132.153 273.096 130.553C280.136 128.013 285.066 127.203 288.896 135.153C290.396 138.273 292.566 138.413 295.156 136.023C297.306 134.043 299.166 131.733 301.326 129.773C304.416 126.953 306.946 127.203 309.696 130.333C310.736 131.513 311.656 132.853 312.846 133.853C320.566 140.363 318.696 139.753 325.186 134.623C326.456 135.183 326.886 136.433 327.306 137.553C329.716 143.943 332.286 150.283 334.336 156.783C338.696 170.603 343.776 184.163 348.286 197.923C350.126 203.533 352.706 208.933 353.436 214.883L353.456 214.863Z" fill="#7D7D7D"/>
<path d="M413.126 109.773C416.126 106.343 417.936 101.943 421.756 99.1726C422.786 103.433 424.766 104.653 428.816 103.323C430.296 102.833 431.716 102.073 433.076 101.303C439.866 97.4426 445.546 91.9726 452.186 87.9226C457.416 84.7326 459.726 83.1226 460.726 91.4426C461.256 95.8926 462.356 100.353 464.586 104.353C466.516 107.823 468.826 108.313 471.656 105.703C473.626 103.883 475.276 101.693 476.986 99.6026C478.986 97.1626 480.696 94.4626 483.316 92.5926C486.086 90.6126 488.376 91.0326 490.116 93.9226C491.216 95.7526 492.126 97.7026 493.116 99.6026C493.026 101.123 493.886 102.393 494.176 103.803C494.926 107.523 497.026 110.863 497.196 114.743C494.536 111.103 491.856 107.473 489.206 103.823C486.946 100.703 486.966 100.703 484.736 103.823C476.456 115.383 468.176 126.933 459.896 138.493C457.466 141.883 455.066 145.303 452.566 148.823C454.256 149.203 454.926 148.063 455.786 147.443C458.356 145.613 460.866 143.683 463.816 142.463C469.326 140.183 472.306 141.573 474.116 147.213C477.436 157.593 481.726 158.903 490.236 152.223C493.146 149.943 495.716 147.183 499.256 145.773C500.596 146.313 501.126 147.283 501.556 148.713C506.166 163.763 510.996 178.743 515.556 193.813C517.666 200.793 520.406 207.603 521.616 214.853H408.386C408.756 212.453 407.626 209.863 409.216 207.623C412.076 203.593 414.876 199.503 417.896 195.583C426.336 184.633 434.526 173.513 442.646 162.323C444.616 159.613 443.896 157.953 442.506 155.793C435.906 145.583 429.296 135.393 422.746 125.163C419.486 120.063 416.336 114.893 413.136 109.753L413.126 109.773Z" fill="#86623F"/>
<path d="M413.126 109.773C416.326 114.913 419.476 120.083 422.736 125.183C429.286 135.413 435.906 145.613 442.496 155.813C443.886 157.963 444.606 159.633 442.636 162.343C434.516 173.533 426.326 184.653 417.886 195.603C414.866 199.523 412.076 203.603 409.206 207.643C407.616 209.883 408.746 212.473 408.376 214.873H353.456C352.716 208.923 350.146 203.523 348.306 197.913C343.786 184.153 338.716 170.593 334.356 156.773C332.306 150.273 329.736 143.933 327.326 137.543C326.906 136.423 326.476 135.173 325.206 134.613C326.416 133.203 328.076 133.193 329.566 133.643C332.056 134.393 334.346 135.513 335.826 137.933C340.026 144.773 346.426 146.873 354.056 146.063C356.406 145.813 358.736 145.403 361.076 145.073C361.826 145.753 362.686 146.343 363.316 147.113C374.346 160.743 385.336 174.403 396.366 188.043C398.786 191.033 401.316 193.943 404.316 197.513C404.226 196.083 404.276 195.513 404.146 195.003C400.526 181.083 396.546 167.273 392.826 153.383C389.536 141.123 386.326 128.833 382.946 116.593C378.916 101.973 374.636 87.4126 370.996 72.6926C370.856 72.1126 370.176 71.6626 369.756 71.1626C373.036 70.1926 374.146 72.6826 375.096 74.8426C377.396 80.0726 381.516 83.1226 386.756 84.5826C390.246 85.5626 393.936 85.8026 397.546 86.3726C397.766 86.4726 397.976 86.5726 398.196 86.6726C398.646 87.3826 399.096 88.0926 399.556 88.8026C403.836 95.9626 408.216 103.053 413.146 109.783L413.126 109.773Z" fill="#656565"/>
<path d="M202.916 153.723C203.586 157.533 205.276 160.943 206.806 164.453C210.146 172.083 213.256 179.813 216.596 187.433C217.156 188.723 216.986 189.503 216.216 190.463C213.606 193.693 211.056 196.983 208.416 200.193C204.856 204.513 201.216 208.753 197.656 213.063C197.246 213.553 197.096 214.253 196.836 214.853H135.136C135.116 200.983 135.096 187.113 135.076 173.253C139.846 168.363 144.616 163.483 149.386 158.593C149.726 158.373 150.066 158.153 150.406 157.933C150.856 157.893 151.266 157.773 151.426 157.273C151.866 157.013 152.306 156.753 152.736 156.503H152.746C157.766 153.973 162.516 150.883 167.926 149.183C172.676 147.693 173.216 147.963 175.136 152.583C177.896 159.223 179.926 160.083 186.526 157.003C191.756 154.563 196.976 152.413 202.926 153.723H202.916Z" fill="#515151"/>
<path d="M497.176 114.753C497.006 110.873 494.916 107.533 494.156 103.813C493.866 102.403 493.006 101.123 493.096 99.6126C494.946 101.003 496.886 102.163 499.296 101.213C504.846 99.0226 509.556 100.903 514.166 103.943C518.676 106.923 523.356 109.633 529.056 109.513C534.406 115.153 538.376 121.843 543.176 127.913C548.316 134.413 552.796 141.423 558.226 147.713V198.593C547.146 183.663 536.066 168.733 524.996 153.813C523.846 152.153 522.706 150.473 521.526 148.823C513.416 137.463 505.296 126.123 497.176 114.773V114.753Z" fill="#B88F6B"/>
<path d="M524.996 153.803C536.076 168.733 547.156 183.663 558.226 198.583C558.226 203.333 558.136 208.083 558.276 212.833C558.326 214.533 557.896 214.923 556.196 214.913C544.666 214.823 533.146 214.863 521.616 214.863C520.406 207.623 517.666 200.813 515.556 193.823C510.996 178.763 506.156 163.783 501.556 148.723C501.116 147.303 500.586 146.323 499.256 145.783C503.836 144.343 505.006 144.723 507.166 148.543C508.606 151.103 510.956 152.303 513.646 152.903C517.376 153.733 521.176 154.093 525.006 153.783L524.996 153.803Z" fill="#725236"/>
<path d="M361.076 145.053C358.736 145.393 356.406 145.793 354.056 146.043C346.426 146.853 340.026 144.753 335.826 137.913C334.346 135.493 332.046 134.373 329.566 133.623C328.076 133.173 326.416 133.183 325.206 134.593C318.726 139.733 320.596 140.333 312.866 133.823C311.676 132.813 310.756 131.483 309.716 130.303C306.966 127.173 304.446 126.923 301.346 129.743C299.186 131.713 297.326 134.013 295.176 135.993C292.586 138.383 290.416 138.243 288.916 135.123C285.096 127.173 280.156 127.993 273.116 130.523C268.676 132.123 264.966 135.153 260.916 137.503C260.076 137.983 259.426 138.303 258.526 138.163C259.126 137.243 259.666 136.263 260.346 135.393C266.756 127.233 273.156 119.063 279.666 110.983C280.956 109.383 280.746 108.823 278.976 107.893C273.786 105.153 269.406 107.543 264.896 109.683C257.966 112.983 254.126 111.763 250.316 105.143C247.446 100.163 245.856 99.4626 240.196 100.493C233.096 101.793 226.876 105.243 220.556 108.483C220.166 105.813 221.346 103.963 223.086 101.913C227.656 96.5426 231.776 90.8026 236.166 85.2726C243.006 76.6526 249.826 68.0226 256.846 59.5526C259.366 56.5126 259.726 56.8026 262.146 59.8226C270.686 70.5326 279.266 81.2026 287.886 91.8526C290.726 95.3626 290.916 95.3426 294.016 92.1426C297.926 88.1026 301.636 83.8926 304.646 79.1226C305.996 76.9926 307.136 76.5026 308.876 78.8726C310.526 81.1226 313.086 82.6326 314.226 85.3526C314.836 86.8026 316.196 86.6226 317.446 86.5926C316.126 88.2526 317.556 89.2326 318.406 90.3126C332.006 107.523 345.626 124.723 359.216 141.943C359.956 142.873 361.106 143.603 361.086 145.013L361.076 145.053Z" fill="#FDFDFC"/>
<path d="M361.076 145.053C361.096 143.643 359.946 142.913 359.206 141.983C345.616 124.763 331.996 107.563 318.396 90.3526C317.536 89.2726 316.116 88.2926 317.436 86.6326C317.926 86.2226 318.416 85.8126 318.906 85.4026C319.176 85.1626 319.446 84.9226 319.706 84.6826L319.656 84.7726C320.286 84.2626 320.926 83.7526 321.556 83.2426H321.576C326.816 79.5426 331.536 75.1326 337.236 72.0926C343.266 68.8726 344.656 69.2326 348.226 74.9626C351.826 80.7326 354.436 81.2526 359.826 77.2326C361.356 76.0826 362.796 74.8126 364.356 73.7026C365.996 72.5426 367.596 71.2326 369.746 71.1326C370.176 71.6426 370.846 72.0926 370.986 72.6626C374.636 87.3926 378.906 101.943 382.936 116.563C386.316 128.803 389.526 141.093 392.816 153.353C396.536 167.243 400.516 181.063 404.136 194.973C404.266 195.493 404.216 196.053 404.306 197.483C401.306 193.913 398.776 191.003 396.356 188.013C385.326 174.383 374.336 160.713 363.306 147.083C362.676 146.303 361.816 145.713 361.066 145.043L361.076 145.053Z" fill="#8F8F8F"/>
<path d="M529.066 109.513C523.366 109.633 518.696 106.923 514.176 103.943C509.556 100.893 504.846 99.0126 499.306 101.213C496.896 102.163 494.956 101.003 493.106 99.6126C492.116 97.7126 491.206 95.7626 490.106 93.9326C488.366 91.0326 486.076 90.6126 483.306 92.6026C480.686 94.4726 478.976 97.1726 476.976 99.6126C475.256 101.703 473.616 103.893 471.646 105.713C468.826 108.323 466.506 107.833 464.576 104.363C462.356 100.363 461.256 95.9026 460.716 91.4526C459.716 83.1226 457.416 84.7426 452.176 87.9326C445.526 91.9826 439.856 97.4526 433.066 101.313C431.696 102.093 430.286 102.843 428.806 103.333C424.756 104.663 422.776 103.443 421.746 99.1826C425.706 93.8926 428.096 87.5726 432.706 82.6726C440.226 74.7026 444.886 64.5126 452.706 56.7226C454.796 54.6326 455.286 51.2726 458.776 49.9926C460.026 49.5326 459.106 46.1926 460.936 44.4026C463.786 41.6026 465.976 38.1626 467.976 34.6426C470.046 31.0026 471.956 30.7226 474.156 34.2626C477.326 39.3526 481.456 43.6526 484.956 48.4626C496.206 63.8826 507.406 79.3326 518.826 94.6226C522.406 99.4226 526.066 104.273 529.066 109.523V109.513Z" fill="#FDFDFC"/>
<path d="M220.556 108.513C226.866 105.283 233.086 101.833 240.196 100.523C245.856 99.4826 247.456 100.193 250.316 105.173C254.126 111.783 257.966 113.003 264.896 109.713C269.406 107.573 273.786 105.183 278.976 107.923C280.746 108.853 280.956 109.413 279.666 111.013C273.156 119.093 266.766 127.263 260.346 135.423C259.666 136.283 259.126 137.263 258.526 138.193C255.406 143.533 250.536 147.453 246.936 152.433C243.666 156.943 239.906 161.103 236.316 165.383C236.006 165.753 235.346 165.813 234.846 166.023C223.526 154.583 212.216 143.143 200.876 131.733C200.006 130.853 200.326 130.173 200.796 129.373C201.306 129.223 201.556 128.863 201.646 128.363C201.886 128.043 202.126 127.723 202.376 127.403L202.306 127.483C202.536 127.223 202.766 126.963 202.996 126.713C205.036 124.353 207.166 122.063 209.086 119.613C212.406 115.383 215.846 111.293 220.576 108.533L220.556 108.513Z" fill="#86623F"/>
<path d="M369.746 71.1326C367.586 71.2326 365.996 72.5426 364.356 73.7026C362.796 74.8026 361.356 76.0826 359.826 77.2326C354.436 81.2626 351.826 80.7426 348.226 74.9626C344.656 69.2326 343.276 68.8726 337.236 72.0926C331.546 75.1326 326.816 79.5426 321.576 83.2226C321.586 78.2626 324.426 74.5426 327.026 70.7126C331.576 64.0126 336.096 57.2926 340.176 50.2726C343.326 44.8426 346.656 39.4526 350.516 34.5226C352.676 31.7626 352.856 28.0226 355.866 25.7326C357.386 24.5726 357.906 24.0326 359.116 25.8926C363.576 32.7926 368.176 39.6026 372.716 46.4526C375.816 51.1426 379.276 55.6426 381.906 60.5826C386.036 68.3326 391.786 75.0826 395.496 83.0526C396.066 84.2626 397.846 84.6526 397.536 86.3526C393.936 85.7826 390.236 85.5426 386.746 84.5626C381.516 83.0926 377.386 80.0526 375.086 74.8226C374.136 72.6626 373.026 70.1726 369.746 71.1426V71.1326Z" fill="#FDFDFC"/>
<path d="M200.786 129.353C200.316 130.153 199.996 130.833 200.866 131.713C212.216 143.123 223.516 154.563 234.836 166.003C233.606 168.683 230.936 167.643 229.386 167.343C224.256 166.343 220.266 163.703 218.116 158.373C216.386 154.063 211.966 153.203 207.846 153.233C206.296 153.243 204.526 153.233 202.916 153.713C196.966 152.403 191.746 154.553 186.516 156.993C179.916 160.073 177.896 159.213 175.126 152.573C173.206 147.963 172.666 147.683 167.916 149.173C162.506 150.873 157.756 153.963 152.736 156.483C155.646 152.793 158.316 148.873 161.516 145.443C169.476 136.923 177.706 128.663 185.746 120.213C187.386 118.483 188.436 119.363 189.676 120.513C192.396 123.023 195.146 125.493 197.846 128.033C198.696 128.833 199.526 129.523 200.786 129.333V129.353Z" fill="#FDFDFC"/>
<path d="M321.556 83.2426C320.926 83.7526 320.286 84.2626 319.656 84.7726C319.526 83.3126 320.536 83.2726 321.556 83.2426Z" fill="#FDFDFC"/>
<path d="M399.526 88.7926C399.076 88.0826 398.626 87.3726 398.166 86.6626C399.596 86.7526 399.556 87.7726 399.526 88.7926Z" fill="#FDFDFC"/>
<path d="M152.736 156.513C152.296 156.773 151.856 157.023 151.426 157.283C151.676 156.713 152.186 156.573 152.736 156.513Z" fill="#FDFDFC"/>
<path d="M319.706 84.6726C319.436 84.9126 319.166 85.1526 318.906 85.3926C319.176 85.1526 319.446 84.9126 319.706 84.6726Z" fill="#FDFDFC"/>
<path d="M202.976 126.693C202.746 126.953 202.516 127.213 202.286 127.463C202.516 127.203 202.746 126.943 202.976 126.693Z" fill="#FDFDFC"/>
<path d="M202.366 127.383C202.126 127.703 201.886 128.023 201.636 128.343C201.876 128.023 202.116 127.703 202.366 127.383Z" fill="#FDFDFC"/>
<path d="M524.996 153.803C521.166 154.113 517.376 153.753 513.636 152.923C510.936 152.323 508.596 151.123 507.156 148.563C505.006 144.743 503.826 144.353 499.246 145.803C495.706 147.213 493.136 149.973 490.226 152.253C481.716 158.933 477.426 157.613 474.106 147.243C472.296 141.593 469.316 140.213 463.806 142.493C460.856 143.713 458.346 145.643 455.776 147.473C454.906 148.093 454.246 149.233 452.556 148.853C455.056 145.333 457.456 141.913 459.886 138.523C468.166 126.963 476.446 115.413 484.726 103.853C486.956 100.733 486.936 100.733 489.196 103.853C491.846 107.503 494.516 111.133 497.186 114.773C505.306 126.123 513.426 137.473 521.536 148.823C522.716 150.473 523.846 152.153 525.006 153.813L524.996 153.803Z" fill="#FDFDFC"/>
<path d="M592.906 207.683C596.626 204.023 598.936 198.933 598.936 193.313C598.936 182.163 589.876 173.123 578.696 173.123C578.666 173.123 578.636 173.123 578.606 173.123C579.196 171.233 579.516 169.223 579.516 167.133C579.516 155.983 570.456 146.943 559.276 146.943C548.096 146.943 539.036 155.983 539.036 167.133C539.036 169.893 539.596 172.523 540.596 174.913C529.706 175.243 520.976 184.133 520.976 195.073C520.976 200.703 523.286 205.783 527.006 209.443C519.336 214.193 514.226 222.663 514.226 232.333C514.226 247.203 526.306 259.253 541.216 259.253C548.966 259.253 555.956 255.993 560.876 250.773C565.636 254.953 571.866 257.493 578.706 257.493C593.616 257.493 605.696 245.443 605.696 230.573C605.696 220.903 600.586 212.433 592.916 207.683H592.906Z" fill="#03CD9C"/>
<path d="M541.986 216.473C556.896 216.473 568.976 204.423 568.976 189.553C568.976 179.883 563.866 171.413 556.196 166.663C559.916 163.003 562.226 157.913 562.226 152.293C562.226 150.473 561.966 148.723 561.506 147.043C560.886 146.983 560.246 146.943 559.606 146.943C548.426 146.943 539.366 155.983 539.366 167.133C539.366 169.893 539.926 172.523 540.926 174.913C530.036 175.243 521.306 184.133 521.306 195.073C521.306 200.703 523.616 205.783 527.336 209.443C526.676 209.853 526.036 210.303 525.406 210.763C529.976 214.323 535.716 216.463 541.966 216.463L541.986 216.473Z" fill="#03CD9C"/>
<path d="M592.906 207.623C596.626 203.963 598.936 198.873 598.936 193.253C598.936 182.733 590.876 174.103 580.576 173.153C585.946 176.803 589.466 182.953 589.446 189.923C589.426 195.553 587.096 200.623 583.366 204.273C591.016 209.043 596.096 217.543 596.066 227.203C596.016 242.073 583.886 254.083 568.976 254.033C567.636 254.033 566.326 253.903 565.036 253.703C569.046 256.063 573.706 257.423 578.696 257.423C593.606 257.423 605.686 245.373 605.686 230.503C605.686 220.833 600.576 212.363 592.906 207.613V207.623Z" fill="#01A9BE"/>
<path d="M570.106 163.693C570.106 165.773 569.776 167.783 569.176 169.673C569.206 169.673 569.236 169.673 569.266 169.673C572.736 169.683 576.006 170.573 578.856 172.123C579.276 170.513 579.506 168.833 579.506 167.093C579.506 156.643 571.546 148.043 561.346 147.013C566.656 150.673 570.126 156.783 570.106 163.703V163.693Z" fill="#01A9BE"/>
<path d="M551.166 247.263C546.226 252.463 539.226 255.703 531.476 255.683C530.036 255.683 528.626 255.563 527.256 255.343C531.326 257.803 536.096 259.213 541.206 259.213C548.176 259.213 554.526 256.563 559.316 252.233C556.296 251.063 553.546 249.373 551.166 247.273V247.263Z" fill="#01A9BE"/>
<path d="M561.236 165.023H558.886C557.527 165.023 556.426 166.124 556.426 167.483V286.253C556.426 287.611 557.527 288.713 558.886 288.713H561.236C562.594 288.713 563.696 287.611 563.696 286.253V167.483C563.696 166.124 562.594 165.023 561.236 165.023Z" fill="#6E3F19"/>
<path d="M560.066 208.873L580.836 188.153" stroke="#6E3F19" stroke-width="3.26" stroke-linecap="round" stroke-linejoin="round"/>
<path d="M539.176 188.153L559.946 208.873" stroke="#6E3F19" stroke-width="3.26" stroke-linecap="round" stroke-linejoin="round"/>
<path d="M560.066 241.103L580.836 220.383" stroke="#6E3F19" stroke-width="3.26" stroke-linecap="round" stroke-linejoin="round"/>
<path d="M539.176 220.383L559.946 241.103" stroke="#6E3F19" stroke-width="3.26" stroke-linecap="round" stroke-linejoin="round"/>
<path d="M520.256 229.633C520.256 230.053 519.916 230.393 519.496 230.393C519.076 230.393 518.736 230.053 518.736 229.633C518.736 229.213 519.076 228.873 519.496 228.873C519.916 228.873 520.256 229.213 520.256 229.633Z" fill="#F2EDCC"/>
<path d="M545.906 239.453C545.906 239.873 545.566 240.213 545.146 240.213C544.726 240.213 544.386 239.873 544.386 239.453C544.386 239.033 544.726 238.693 545.146 238.693C545.566 238.693 545.906 239.033 545.906 239.453Z" fill="#F2EDCC"/>
<path d="M536.526 251.623C536.526 252.043 536.186 252.383 535.766 252.383C535.346 252.383 535.006 252.043 535.006 251.623C535.006 251.203 535.346 250.863 535.766 250.863C536.186 250.863 536.526 251.203 536.526 251.623Z" fill="#F2EDCC"/>
<path d="M550.686 221.013C550.686 221.433 550.346 221.773 549.926 221.773C549.506 221.773 549.166 221.433 549.166 221.013C549.166 220.593 549.506 220.253 549.926 220.253C550.346 220.253 550.686 220.593 550.686 221.013Z" fill="#F2EDCC"/>
<path d="M593.886 223.533C594.206 223.803 594.256 224.283 593.986 224.603C593.716 224.923 593.236 224.973 592.906 224.703C592.586 224.433 592.536 223.953 592.806 223.633C593.076 223.313 593.556 223.263 593.886 223.533Z" fill="#03CD9C"/>
<path d="M570.936 238.873C571.256 239.143 571.306 239.623 571.036 239.943C570.766 240.263 570.286 240.313 569.956 240.043C569.636 239.773 569.586 239.293 569.856 238.973C570.126 238.653 570.606 238.603 570.936 238.873Z" fill="#F2EDCC"/>
<path d="M591.276 242.253C591.596 242.523 591.646 243.003 591.376 243.323C591.106 243.643 590.626 243.693 590.296 243.423C589.976 243.153 589.926 242.673 590.196 242.353C590.466 242.033 590.946 241.983 591.276 242.253Z" fill="#03CD9C"/>
<path d="M542.176 203.863C542.176 204.283 541.836 204.623 541.416 204.623C540.996 204.623 540.656 204.283 540.656 203.863C540.656 203.443 540.996 203.103 541.416 203.103C541.836 203.103 542.176 203.443 542.176 203.863Z" fill="#F2EDCC"/>
<path d="M578.886 201.703C578.886 202.123 578.546 202.463 578.126 202.463C577.706 202.463 577.366 202.123 577.366 201.703C577.366 201.283 577.706 200.943 578.126 200.943C578.546 200.943 578.886 201.283 578.886 201.703Z" fill="#F2EDCC"/>
<path d="M572.616 218.793C572.616 219.213 572.276 219.553 571.856 219.553C571.436 219.553 571.096 219.213 571.096 218.793C571.096 218.373 571.436 218.033 571.856 218.033C572.276 218.033 572.616 218.373 572.616 218.793Z" fill="#F2EDCC"/>
<path d="M545.906 179.073C545.906 179.493 545.566 179.833 545.146 179.833C544.726 179.833 544.386 179.493 544.386 179.073C544.386 178.653 544.726 178.313 545.146 178.313C545.566 178.313 545.906 178.653 545.906 179.073Z" fill="#F2EDCC"/>
<path d="M548.116 155.853C548.116 156.273 547.776 156.613 547.356 156.613C546.936 156.613 546.596 156.273 546.596 155.853C546.596 155.433 546.936 155.093 547.356 155.093C547.776 155.093 548.116 155.433 548.116 155.853Z" fill="#F2EDCC"/>
<path d="M568.146 160.313C568.146 160.733 567.806 161.073 567.386 161.073C566.966 161.073 566.626 160.733 566.626 160.313C566.626 159.893 566.966 159.553 567.386 159.553C567.806 159.553 568.146 159.893 568.146 160.313Z" fill="#01A9BE"/>
<path d="M573.376 183.893C573.376 184.313 573.036 184.653 572.616 184.653C572.196 184.653 571.856 184.313 571.856 183.893C571.856 183.473 572.196 183.133 572.616 183.133C573.036 183.133 573.376 183.473 573.376 183.893Z" fill="#F2EDCC"/>
<path d="M277.866 223.043L296.256 236.033" stroke="#6E3F19" stroke-width="3.26" stroke-linecap="round" stroke-linejoin="round"/>
<path d="M297.776 171.253H297.456C296.125 171.253 295.046 172.332 295.046 173.663V260.653C295.046 261.984 296.125 263.063 297.456 263.063H297.776C299.107 263.063 300.186 261.984 300.186 260.653V173.663C300.186 172.332 299.107 171.253 297.776 171.253Z" fill="#6E3F19"/>
<path d="M288.306 199.443C299.655 199.443 308.856 190.242 308.856 178.893C308.856 167.543 299.655 158.343 288.306 158.343C276.956 158.343 267.756 167.543 267.756 178.893C267.756 190.242 276.956 199.443 288.306 199.443Z" fill="#03CD9C"/>
<path d="M288.796 158.343C282.156 158.343 276.256 161.493 272.496 166.383C276.016 172.643 282.716 176.873 290.416 176.873C297.056 176.873 302.956 173.723 306.716 168.833C303.196 162.573 296.496 158.343 288.796 158.343Z" fill="#03CD9C"/>
<path d="M288.306 191.543C278.306 191.543 269.976 184.403 268.136 174.933C267.886 176.213 267.756 177.523 267.756 178.873C267.756 190.223 276.956 199.423 288.306 199.423C299.656 199.423 308.856 190.223 308.856 178.873C308.856 177.523 308.726 176.203 308.476 174.933C306.636 184.393 298.306 191.543 288.306 191.543Z" fill="#01A9BE"/>
<path d="M328.607 220.317C334.803 213.522 334.317 202.991 327.522 196.795C320.727 190.599 310.196 191.085 304.001 197.88C297.805 204.674 298.29 215.205 305.085 221.401C311.88 227.597 322.411 227.111 328.607 220.317Z" fill="#03CD9C"/>
<path opacity="0.12" d="M299.646 209.313C299.646 209.863 299.676 210.413 299.726 210.953C301.276 211.433 302.926 211.693 304.626 211.693C313.826 211.693 321.276 204.233 321.276 195.043C321.276 194.493 321.246 193.943 321.196 193.403C319.646 192.923 317.996 192.663 316.296 192.663C307.096 192.663 299.646 200.123 299.646 209.313Z" fill="white"/>
<path d="M327.726 196.673C328.716 198.803 329.276 201.163 329.276 203.663C329.276 212.863 321.816 220.313 312.626 220.313C308.376 220.313 304.506 218.703 301.566 216.083C304.206 221.783 309.966 225.753 316.666 225.753C325.866 225.753 333.316 218.293 333.316 209.103C333.316 204.153 331.146 199.723 327.726 196.673Z" fill="#01A9BE"/>
<path d="M318.776 199.443C326.602 199.443 332.946 193.098 332.946 185.273C332.946 177.447 326.602 171.103 318.776 171.103C310.95 171.103 304.606 177.447 304.606 185.273C304.606 193.098 310.95 199.443 318.776 199.443Z" fill="#01A9BE"/>
<path opacity="0.12" d="M304.606 185.343C304.606 186.773 304.826 188.143 305.216 189.443C312.936 189.313 319.146 183.023 319.146 175.283C319.146 173.853 318.926 172.483 318.536 171.183C310.816 171.313 304.606 177.603 304.606 185.343Z" fill="white"/>
<path d="M326.716 173.513C328.116 175.713 328.936 178.313 328.936 181.113C328.936 188.943 322.586 195.283 314.766 195.283C311.906 195.283 309.246 194.423 307.016 192.973C309.536 196.923 313.936 199.553 318.966 199.553C326.796 199.553 333.136 193.203 333.136 185.383C333.136 180.413 330.576 176.053 326.716 173.523V173.513Z" fill="#03CD9C"/>
<path d="M297.166 213.613C304.992 213.613 311.336 207.268 311.336 199.443C311.336 191.617 304.992 185.273 297.166 185.273C289.34 185.273 282.996 191.617 282.996 199.443C282.996 207.268 289.34 213.613 297.166 213.613Z" fill="#01A9BE"/>
<path d="M297.246 185.273C292.876 185.273 288.976 187.253 286.376 190.353C288.936 194.013 293.176 196.403 297.986 196.403C302.356 196.403 306.256 194.423 308.856 191.323C306.296 187.663 302.056 185.273 297.246 185.273Z" fill="#03CD9C"/>
<path d="M297.166 208.003C290.306 208.003 284.596 203.133 283.276 196.673C283.086 197.593 282.986 198.543 282.986 199.513C282.986 207.343 289.336 213.683 297.156 213.683C304.976 213.683 311.326 207.333 311.326 199.513C311.326 198.543 311.226 197.593 311.036 196.673C309.716 203.143 304.006 208.003 297.146 208.003H297.166Z" fill="#03CD9C"/>
<path d="M297.666 228.453L316.296 211.683" stroke="#6E3F19" stroke-width="3.26" stroke-linecap="round" stroke-linejoin="round"/>
<path d="M298.006 225.253L282.986 205.183" stroke="#6E3F19" stroke-width="3.26" stroke-linecap="round" stroke-linejoin="round"/>
<path d="M279.186 237.103C287.012 237.103 293.356 230.758 293.356 222.933C293.356 215.107 287.012 208.763 279.186 208.763C271.36 208.763 265.016 215.107 265.016 222.933C265.016 230.758 271.36 237.103 279.186 237.103Z" fill="#03CD9C"/>
<path opacity="0.19" d="M265.016 222.313C266.326 222.713 267.716 222.933 269.156 222.933C276.776 222.933 282.976 216.913 283.296 209.373C281.986 208.973 280.596 208.753 279.156 208.753C271.536 208.753 265.336 214.773 265.016 222.313Z" fill="white"/>
<path d="M285.106 210.223C287.286 212.713 288.626 215.973 288.626 219.543C288.626 227.373 282.276 233.713 274.456 233.713C272.336 233.713 270.336 233.233 268.536 232.403C271.136 235.373 274.936 237.253 279.196 237.253C287.026 237.253 293.366 230.903 293.366 223.083C293.366 217.373 289.976 212.463 285.116 210.213L285.106 210.223Z" fill="#01A9BE"/>
<path d="M264.566 221.413C275.915 221.413 285.116 212.212 285.116 200.863C285.116 189.513 275.915 180.313 264.566 180.313C253.216 180.313 244.016 189.513 244.016 200.863C244.016 212.212 253.216 221.413 264.566 221.413Z" fill="#01A9BE"/>
<path d="M244.016 200.853C244.016 203.613 244.566 206.243 245.546 208.643C256.766 208.483 265.806 199.353 265.806 188.093C265.806 185.333 265.256 182.703 264.276 180.303C253.066 180.463 244.016 189.593 244.016 200.853Z" fill="#03CD9C"/>
<path d="M276.606 184.103C278.646 187.293 279.836 191.083 279.836 195.153C279.836 206.503 270.636 215.703 259.286 215.703C254.856 215.703 250.756 214.293 247.406 211.913C251.056 217.623 257.446 221.413 264.736 221.413C276.086 221.413 285.286 212.213 285.286 200.863C285.286 193.943 281.866 187.823 276.616 184.103H276.606Z" fill="#03CD9C"/>
<path d="M261.066 185.273C261.066 185.613 260.796 185.883 260.456 185.883C260.116 185.883 259.846 185.613 259.846 185.273C259.846 184.933 260.116 184.663 260.456 184.663C260.796 184.663 261.066 184.933 261.066 185.273Z" fill="#F2EDCC"/>
<path d="M271.256 188.823C271.256 189.163 270.986 189.433 270.646 189.433C270.306 189.433 270.036 189.163 270.036 188.823C270.036 188.483 270.306 188.213 270.646 188.213C270.986 188.213 271.256 188.483 271.256 188.823Z" fill="#F2EDCC"/>
<path d="M267.366 201.543C267.366 201.883 267.096 202.153 266.756 202.153C266.416 202.153 266.146 201.883 266.146 201.543C266.146 201.203 266.416 200.933 266.756 200.933C267.096 200.933 267.366 201.203 267.366 201.543Z" fill="#F2EDCC"/>
<path d="M256.596 213.313C256.596 213.653 256.326 213.923 255.986 213.923C255.646 213.923 255.376 213.653 255.376 213.313C255.376 212.973 255.646 212.703 255.986 212.703C256.326 212.703 256.596 212.973 256.596 213.313Z" fill="#F2EDCC"/>
<path d="M248.006 194.473C248.006 194.813 247.736 195.083 247.396 195.083C247.056 195.083 246.786 194.813 246.786 194.473C246.786 194.133 247.056 193.863 247.396 193.863C247.736 193.863 248.006 194.133 248.006 194.473Z" fill="#F2EDCC"/>
<path d="M272.676 216.453C272.676 216.793 272.406 217.063 272.066 217.063C271.726 217.063 271.456 216.793 271.456 216.453C271.456 216.113 271.726 215.843 272.066 215.843C272.406 215.843 272.676 216.113 272.676 216.453Z" fill="#F2EDCC"/>
<path d="M326.566 201.543C326.566 201.883 326.296 202.153 325.956 202.153C325.616 202.153 325.346 201.883 325.346 201.543C325.346 201.203 325.616 200.933 325.956 200.933C326.296 200.933 326.566 201.203 326.566 201.543Z" fill="#F2EDCC"/>
<path d="M328.396 213.623C328.396 213.963 328.126 214.233 327.786 214.233C327.446 214.233 327.176 213.963 327.176 213.623C327.176 213.283 327.446 213.013 327.786 213.013C328.126 213.013 328.396 213.283 328.396 213.623Z" fill="#F2EDCC"/>
<path d="M318.056 223.043C318.056 223.383 317.786 223.653 317.446 223.653C317.106 223.653 316.836 223.383 316.836 223.043C316.836 222.703 317.106 222.433 317.446 222.433C317.786 222.433 318.056 222.703 318.056 223.043Z" fill="#F2EDCC"/>
<path d="M313.546 204.863C313.546 205.203 313.276 205.473 312.936 205.473C312.596 205.473 312.326 205.203 312.326 204.863C312.326 204.523 312.596 204.253 312.936 204.253C313.276 204.253 313.546 204.523 313.546 204.863Z" fill="#F2EDCC"/>
<path d="M307.596 213.623C307.596 213.963 307.326 214.233 306.986 214.233C306.646 214.233 306.376 213.963 306.376 213.623C306.376 213.283 306.646 213.013 306.986 213.013C307.326 213.013 307.596 213.283 307.596 213.623Z" fill="#F2EDCC"/>
<path d="M288.286 214.233C288.286 214.573 288.016 214.843 287.676 214.843C287.336 214.843 287.066 214.573 287.066 214.233C287.066 213.893 287.336 213.623 287.676 213.623C288.016 213.623 288.286 213.893 288.286 214.233Z" fill="#F2EDCC"/>
<path d="M267.976 225.253C267.976 225.593 267.706 225.863 267.366 225.863C267.026 225.863 266.756 225.593 266.756 225.253C266.756 224.913 267.026 224.643 267.366 224.643C267.706 224.643 267.976 224.913 267.976 225.253Z" fill="#F2EDCC"/>
<path d="M280.816 222.433C280.816 222.773 280.546 223.043 280.206 223.043C279.866 223.043 279.596 222.773 279.596 222.433C279.596 222.093 279.866 221.823 280.206 221.823C280.546 221.823 280.816 222.093 280.816 222.433Z" fill="#F2EDCC"/>
<path d="M278.626 234.743C278.626 235.083 278.356 235.353 278.016 235.353C277.676 235.353 277.406 235.083 277.406 234.743C277.406 234.403 277.676 234.133 278.016 234.133C278.356 234.133 278.626 234.403 278.626 234.743Z" fill="#F2EDCC"/>
<path d="M289.536 225.863C289.536 226.203 289.266 226.473 288.926 226.473C288.586 226.473 288.316 226.203 288.316 225.863C288.316 225.523 288.586 225.253 288.926 225.253C289.266 225.253 289.536 225.523 289.536 225.863Z" fill="#F2EDCC"/>
<path d="M290.976 193.713C290.976 194.053 290.706 194.323 290.366 194.323C290.026 194.323 289.756 194.053 289.756 193.713C289.756 193.373 290.026 193.103 290.366 193.103C290.706 193.103 290.976 193.373 290.976 193.713Z" fill="#F2EDCC"/>
<path d="M280.206 205.483C280.206 205.823 279.936 206.093 279.596 206.093C279.256 206.093 278.986 205.823 278.986 205.483C278.986 205.143 279.256 204.873 279.596 204.873C279.936 204.873 280.206 205.143 280.206 205.483Z" fill="#01A9BE"/>
<path d="M296.286 208.633C296.286 208.973 296.016 209.243 295.676 209.243C295.336 209.243 295.066 208.973 295.066 208.633C295.066 208.293 295.336 208.023 295.676 208.023C296.016 208.023 296.286 208.293 296.286 208.633Z" fill="#F2EDCC"/>
<path d="M327.176 181.533C327.513 181.533 327.786 181.26 327.786 180.923C327.786 180.586 327.513 180.313 327.176 180.313C326.839 180.313 326.566 180.586 326.566 180.923C326.566 181.26 326.839 181.533 327.176 181.533Z" fill="#F2EDCC"/>
<path d="M314.156 181.533C314.156 181.873 313.886 182.143 313.546 182.143C313.206 182.143 312.936 181.873 312.936 181.533C312.936 181.193 313.206 180.923 313.546 180.923C313.886 180.923 314.156 181.193 314.156 181.533Z" fill="#F2EDCC"/>
<path d="M303.386 193.303C303.386 193.643 303.116 193.913 302.776 193.913C302.436 193.913 302.166 193.643 302.166 193.303C302.166 192.963 302.436 192.693 302.776 192.693C303.116 192.693 303.386 192.963 303.386 193.303Z" fill="#F2EDCC"/>
<path d="M319.466 196.453C319.466 196.793 319.196 197.063 318.856 197.063C318.516 197.063 318.246 196.793 318.246 196.453C318.246 196.113 318.516 195.843 318.856 195.843C319.196 195.843 319.466 196.113 319.466 196.453Z" fill="#F2EDCC"/>
<path d="M302.416 168.823C302.416 169.163 302.146 169.433 301.806 169.433C301.466 169.433 301.196 169.163 301.196 168.823C301.196 168.483 301.466 168.213 301.806 168.213C302.146 168.213 302.416 168.483 302.416 168.823Z" fill="#F2EDCC"/>
<path d="M288.786 169.433C288.786 169.773 288.516 170.043 288.176 170.043C287.836 170.043 287.566 169.773 287.566 169.433C287.566 169.093 287.836 168.823 288.176 168.823C288.516 168.823 288.786 169.093 288.786 169.433Z" fill="#F2EDCC"/>
<path d="M278.016 181.203C278.016 181.543 277.746 181.813 277.406 181.813C277.066 181.813 276.796 181.543 276.796 181.203C276.796 180.863 277.066 180.593 277.406 180.593C277.746 180.593 278.016 180.863 278.016 181.203Z" fill="#F2EDCC"/>
<path d="M293.476 184.963C293.813 184.963 294.086 184.689 294.086 184.353C294.086 184.016 293.813 183.743 293.476 183.743C293.139 183.743 292.866 184.016 292.866 184.353C292.866 184.689 293.139 184.963 293.476 184.963Z" fill="#F2EDCC"/>
<path d="M161.936 225.503H157.056C155.973 225.503 155.096 226.38 155.096 227.463V343.953C155.096 345.035 155.973 345.913 157.056 345.913H161.936C163.018 345.913 163.896 345.035 163.896 343.953V227.463C163.896 226.38 163.018 225.503 161.936 225.503Z" fill="#6E3F19"/>
<path d="M210.746 198.023C210.746 188.523 203.916 180.623 194.906 178.933C195.586 176.953 195.976 174.833 195.976 172.623C195.976 161.893 187.276 153.193 176.546 153.193C169.466 153.193 163.276 156.993 159.886 162.663C156.486 157.003 150.306 153.193 143.226 153.193C132.496 153.193 123.796 161.893 123.796 172.623C123.796 174.833 124.186 176.953 124.866 178.933C115.856 180.623 109.026 188.523 109.026 198.023C109.026 208.373 117.126 216.813 127.326 217.403C125.106 220.563 123.796 224.393 123.796 228.543C123.796 239.273 132.496 247.973 143.226 247.973C150.306 247.973 156.496 244.173 159.886 238.503C163.286 244.163 169.466 247.973 176.546 247.973C187.276 247.973 195.976 239.273 195.976 228.543C195.976 224.393 194.666 220.553 192.446 217.403C202.646 216.813 210.746 208.373 210.746 198.023Z" fill="#01A9BE"/>
<path d="M201.796 198.473C201.796 190.643 196.166 184.133 188.746 182.743C189.306 181.113 189.626 179.363 189.626 177.543C189.626 168.693 182.456 161.523 173.606 161.523C167.766 161.523 162.676 164.653 159.876 169.323C157.076 164.653 151.986 161.523 146.146 161.523C137.296 161.523 130.126 168.693 130.126 177.543C130.126 179.363 130.446 181.113 131.006 182.743C123.576 184.133 117.956 190.643 117.956 198.473C117.956 207.003 124.626 213.953 133.036 214.443C131.206 217.043 130.126 220.203 130.126 223.623C130.126 232.473 137.296 239.643 146.146 239.643C151.986 239.643 157.076 236.513 159.876 231.843C162.676 236.513 167.766 239.643 173.606 239.643C182.456 239.643 189.626 232.473 189.626 223.623C189.626 220.203 188.546 217.043 186.716 214.443C195.126 213.953 201.796 207.003 201.796 198.473Z" fill="#03CD9C"/>
<path d="M147.516 251.663C149.216 244.183 145.256 236.733 138.466 233.793C139.356 232.353 140.046 230.753 140.436 229.013C142.356 220.563 137.066 212.143 128.616 210.223C123.036 208.953 117.486 210.843 113.796 214.693C112.136 209.623 107.956 205.523 102.376 204.253C93.9258 202.333 85.5058 207.623 83.5858 216.073C83.1858 217.813 83.1158 219.553 83.2958 221.233C75.8958 220.943 69.1058 225.943 67.3958 233.423C65.5358 241.573 70.4058 249.673 78.3358 251.963C76.0258 254.053 74.3058 256.843 73.5558 260.103C71.6358 268.553 76.9258 276.973 85.3758 278.893C90.9558 280.163 96.5058 278.273 100.196 274.423C101.856 279.493 106.046 283.593 111.616 284.863C120.066 286.783 128.486 281.493 130.406 273.043C131.146 269.773 130.806 266.513 129.626 263.633C137.766 264.993 145.656 259.803 147.516 251.653V251.663Z" fill="#03CD9C"/>
<path d="M140.386 250.413C141.786 244.243 138.526 238.113 132.926 235.683C133.656 234.503 134.226 233.183 134.556 231.743C136.146 224.773 131.776 217.843 124.816 216.253C120.216 215.203 115.646 216.763 112.606 219.933C111.236 215.753 107.786 212.373 103.186 211.323C96.2159 209.733 89.2859 214.103 87.6959 221.063C87.3659 222.503 87.3059 223.933 87.4559 225.313C81.3559 225.073 75.7559 229.193 74.3559 235.363C72.8259 242.083 76.8359 248.753 83.3659 250.643C81.4659 252.363 80.0459 254.663 79.4259 257.353C77.8359 264.323 82.2059 271.253 89.1659 272.843C93.7659 273.893 98.3359 272.333 101.376 269.163C102.746 273.343 106.196 276.723 110.796 277.773C117.766 279.363 124.696 274.993 126.286 268.033C126.896 265.343 126.616 262.653 125.646 260.283C132.356 261.403 138.856 257.123 140.386 250.413Z" fill="#01A9BE"/>
<path d="M248.936 241.033C248.936 233.353 243.426 226.973 236.146 225.613C236.696 224.013 237.006 222.303 237.006 220.513C237.006 211.843 229.976 204.813 221.306 204.813C215.586 204.813 210.586 207.883 207.846 212.463C205.106 207.883 200.106 204.813 194.386 204.813C185.716 204.813 178.686 211.843 178.686 220.513C178.686 222.303 178.996 224.013 179.546 225.613C172.266 226.973 166.756 233.353 166.756 241.033C166.756 249.393 173.296 256.203 181.536 256.683C179.746 259.233 178.686 262.333 178.686 265.683C178.686 274.353 185.716 281.383 194.386 281.383C200.106 281.383 205.106 278.313 207.846 273.733C210.586 278.313 215.586 281.383 221.306 281.383C229.976 281.383 237.006 274.353 237.006 265.683C237.006 262.333 235.946 259.233 234.156 256.683C242.396 256.203 248.936 249.393 248.936 241.033Z" fill="#03CD9C"/>
<path d="M241.716 241.393C241.716 235.063 237.176 229.813 231.176 228.683C231.626 227.363 231.886 225.953 231.886 224.483C231.886 217.343 226.096 211.543 218.946 211.543C214.226 211.543 210.116 214.073 207.856 217.843C205.596 214.073 201.486 211.543 196.766 211.543C189.626 211.543 183.826 217.333 183.826 224.483C183.826 225.953 184.086 227.363 184.536 228.683C178.536 229.803 173.996 235.063 173.996 241.393C173.996 248.283 179.386 253.903 186.176 254.293C184.706 256.393 183.826 258.953 183.826 261.713C183.826 268.853 189.616 274.653 196.766 274.653C201.486 274.653 205.596 272.123 207.856 268.353C210.116 272.123 214.226 274.653 218.946 274.653C226.086 274.653 231.886 268.863 231.886 261.713C231.886 258.953 231.016 256.393 229.536 254.293C236.326 253.903 241.716 248.283 241.716 241.393Z" fill="#01A9BE"/>
<path d="M159.496 292.423L102.226 240.913" stroke="#6E3F19" stroke-width="3.03" stroke-linecap="round" stroke-linejoin="round"/>
<path d="M114.566 233.343L115.956 252.863" stroke="#6E3F19" stroke-width="1.51" stroke-linecap="round" stroke-linejoin="round"/>
<path d="M95.0458 251.603L114.566 252.653" stroke="#6E3F19" stroke-width="1.51" stroke-linecap="round" stroke-linejoin="round"/>
<path d="M125.696 237.263L127.606 264.013" stroke="#6E3F19" stroke-width="1.51" stroke-linecap="round" stroke-linejoin="round"/>
<path d="M98.9458 262.283L125.696 263.733" stroke="#6E3F19" stroke-width="1.51" stroke-linecap="round" stroke-linejoin="round"/>
<path d="M157.446 292.423L214.716 240.913" stroke="#6E3F19" stroke-width="3.03" stroke-linecap="round" stroke-linejoin="round"/>
<path d="M202.386 233.343L200.986 252.863" stroke="#6E3F19" stroke-width="1.51" stroke-linecap="round" stroke-linejoin="round"/>
<path d="M221.896 251.603L202.386 252.653" stroke="#6E3F19" stroke-width="1.51" stroke-linecap="round" stroke-linejoin="round"/>
<path d="M191.246 237.263L189.336 264.013" stroke="#6E3F19" stroke-width="1.51" stroke-linecap="round" stroke-linejoin="round"/>
<path d="M217.996 262.283L191.246 263.733" stroke="#6E3F19" stroke-width="1.51" stroke-linecap="round" stroke-linejoin="round"/>
<path d="M160.066 267.833L160.036 190.803" stroke="#6E3F19" stroke-width="3.03" stroke-linecap="round" stroke-linejoin="round"/>
<path d="M146.166 194.923L159.746 209.003" stroke="#6E3F19" stroke-width="1.51" stroke-linecap="round" stroke-linejoin="round"/>
<path d="M172.786 192.613L160.526 207.833" stroke="#6E3F19" stroke-width="1.51" stroke-linecap="round" stroke-linejoin="round"/>
<path d="M141.636 205.823L160.256 225.123" stroke="#6E3F19" stroke-width="1.51" stroke-linecap="round" stroke-linejoin="round"/>
<path d="M178.126 202.653L161.326 223.523" stroke="#6E3F19" stroke-width="1.51" stroke-linecap="round" stroke-linejoin="round"/>
<path d="M204.056 189.593C204.066 190.213 203.576 190.723 202.946 190.733C202.326 190.743 201.806 190.253 201.796 189.643C201.786 189.023 202.276 188.513 202.906 188.503C203.526 188.493 204.046 188.983 204.056 189.593Z" fill="#F2EDCC"/>
<path d="M207.896 211.523C207.906 212.143 207.416 212.653 206.786 212.663C206.166 212.673 205.646 212.183 205.636 211.573C205.626 210.953 206.116 210.443 206.746 210.433C207.366 210.423 207.886 210.913 207.896 211.523Z" fill="#F2EDCC"/>
<path d="M189.136 229.073C189.146 229.693 188.656 230.203 188.026 230.213C187.406 230.223 186.886 229.733 186.876 229.123C186.866 228.503 187.356 227.993 187.986 227.983C188.606 227.973 189.126 228.463 189.136 229.073Z" fill="#F2EDCC"/>
<path d="M180.146 196.133C180.156 196.753 179.666 197.263 179.036 197.273C178.416 197.283 177.896 196.793 177.886 196.183C177.876 195.563 178.366 195.053 178.996 195.043C179.616 195.033 180.136 195.523 180.146 196.133Z" fill="#F2EDCC"/>
<path d="M141.846 169.133C141.856 169.753 141.366 170.263 140.736 170.273C140.116 170.283 139.596 169.793 139.586 169.183C139.576 168.563 140.066 168.053 140.696 168.043C141.316 168.033 141.836 168.523 141.846 169.133Z" fill="#F2EDCC"/>
<path d="M166.526 182.523C166.536 183.143 166.046 183.653 165.416 183.663C164.796 183.673 164.276 183.183 164.266 182.573C164.256 181.953 164.746 181.443 165.376 181.433C165.996 181.423 166.516 181.913 166.526 182.523Z" fill="#F2EDCC"/>
<path d="M177.616 163.773C177.626 164.393 177.136 164.903 176.506 164.913C175.886 164.923 175.366 164.433 175.356 163.823C175.346 163.203 175.836 162.693 176.466 162.683C177.086 162.673 177.606 163.163 177.616 163.773Z" fill="#F2EDCC"/>
<path d="M175.116 221.393C175.126 222.013 174.636 222.523 174.006 222.533C173.386 222.543 172.866 222.053 172.856 221.443C172.846 220.823 173.336 220.313 173.966 220.303C174.586 220.293 175.106 220.783 175.116 221.393Z" fill="#F2EDCC"/>
<path d="M144.696 238.453C144.706 239.073 144.216 239.583 143.586 239.593C142.966 239.603 142.446 239.113 142.436 238.503C142.426 237.883 142.916 237.373 143.546 237.363C144.166 237.353 144.686 237.843 144.696 238.453Z" fill="#F2EDCC"/>
<path d="M125.036 221.683C125.046 222.303 124.556 222.813 123.926 222.823C123.296 222.833 122.786 222.343 122.776 221.733C122.766 221.113 123.256 220.603 123.886 220.593C124.506 220.583 125.026 221.073 125.036 221.683Z" fill="#F2EDCC"/>
<path d="M122.076 191.903C122.086 192.523 121.596 193.033 120.966 193.043C120.346 193.053 119.826 192.563 119.816 191.953C119.806 191.333 120.296 190.823 120.926 190.813C121.556 190.803 122.066 191.293 122.076 191.903Z" fill="#F2EDCC"/>
<path d="M134.516 202.273C134.526 202.893 134.036 203.403 133.406 203.413C132.786 203.423 132.266 202.933 132.256 202.323C132.246 201.703 132.736 201.193 133.366 201.183C133.986 201.173 134.506 201.663 134.516 202.273Z" fill="#F2EDCC"/>
<path d="M225.246 215.453C225.256 216.073 224.766 216.583 224.136 216.593C223.516 216.603 222.996 216.113 222.986 215.503C222.976 214.883 223.466 214.373 224.096 214.363C224.716 214.353 225.236 214.843 225.246 215.453Z" fill="#F2EDCC"/>
<path d="M240.816 243.083C240.826 243.703 240.336 244.213 239.706 244.223C239.086 244.233 238.566 243.743 238.556 243.133C238.546 242.513 239.036 242.003 239.666 241.993C240.286 241.983 240.806 242.473 240.816 243.083Z" fill="#01A9BE"/>
<path d="M210.116 221.393C210.126 222.013 209.636 222.523 209.006 222.533C208.386 222.543 207.866 222.053 207.856 221.443C207.846 220.823 208.336 220.313 208.966 220.303C209.586 220.293 210.106 220.783 210.116 221.393Z" fill="#01A9BE"/>
<path d="M230.296 267.813C230.306 268.433 229.816 268.943 229.186 268.953C228.566 268.963 228.046 268.473 228.036 267.863C228.026 267.243 228.516 266.733 229.146 266.723C229.776 266.713 230.286 267.203 230.296 267.813Z" fill="#F2EDCC"/>
<path d="M195.986 273.343C195.996 273.963 195.506 274.473 194.876 274.483C194.256 274.493 193.736 274.003 193.726 273.393C193.716 272.773 194.206 272.263 194.836 272.253C195.456 272.243 195.976 272.733 195.986 273.343Z" fill="#F2EDCC"/>
<path d="M227.596 233.323C227.606 233.943 227.116 234.453 226.486 234.463C225.866 234.473 225.346 233.983 225.336 233.373C225.326 232.753 225.816 232.243 226.446 232.233C227.076 232.223 227.586 232.713 227.596 233.323Z" fill="#01A9BE"/>
<path d="M182.056 247.953C182.066 248.573 181.576 249.083 180.946 249.093C180.326 249.103 179.806 248.613 179.796 248.003C179.786 247.383 180.276 246.873 180.906 246.863C181.526 246.853 182.046 247.343 182.056 247.953Z" fill="#F2EDCC"/>
<path d="M132.026 259.903C132.036 260.523 131.546 261.033 130.916 261.043C130.296 261.053 129.776 260.563 129.766 259.953C129.756 259.333 130.246 258.823 130.876 258.813C131.496 258.803 132.016 259.293 132.026 259.903Z" fill="#F2EDCC"/>
<path d="M119.086 276.613C119.096 277.233 118.606 277.743 117.976 277.753C117.356 277.763 116.836 277.273 116.826 276.663C116.816 276.043 117.306 275.533 117.936 275.523C118.556 275.513 119.076 276.003 119.086 276.613Z" fill="#F2EDCC"/>
<path d="M92.6059 244.023C92.6159 244.643 92.1259 245.153 91.4959 245.163C90.8759 245.173 90.3559 244.683 90.3459 244.073C90.3359 243.453 90.8259 242.943 91.4559 242.933C92.0859 242.923 92.5959 243.413 92.6059 244.023Z" fill="#F2EDCC"/>
<path d="M101.216 216.563C101.226 217.183 100.736 217.693 100.106 217.703C99.4858 217.713 98.9658 217.223 98.9558 216.613C98.9458 215.993 99.4358 215.483 100.066 215.473C100.686 215.463 101.206 215.953 101.216 216.563Z" fill="#F2EDCC"/>
<path d="M81.9358 260.183C81.9458 260.803 81.4558 261.313 80.8258 261.323C80.2058 261.333 79.6858 260.843 79.6758 260.233C79.6658 259.613 80.1558 259.103 80.7858 259.093C81.4158 259.083 81.9258 259.573 81.9358 260.183Z" fill="#F2EDCC"/>
<path d="M78.9758 230.413C78.9858 231.033 78.4958 231.543 77.8658 231.553C77.2458 231.563 76.7258 231.073 76.7158 230.463C76.7058 229.843 77.1958 229.333 77.8258 229.323C78.4558 229.313 78.9658 229.803 78.9758 230.413Z" fill="#F2EDCC"/>
<path d="M378.836 261.343L436.886 316.093" stroke="#6E3F19" stroke-width="3.26" stroke-linecap="round" stroke-linejoin="round"/>
<path d="M439.756 170.723H433.266C431.935 170.723 430.856 171.802 430.856 173.133V370.333C430.856 371.664 431.935 372.743 433.266 372.743H439.756C441.087 372.743 442.166 371.664 442.166 370.333V173.133C442.166 171.802 441.087 170.723 439.756 170.723Z" fill="#6E3F19"/>
<path d="M436.596 296.573L500.146 241.903" stroke="#6E3F19" stroke-width="3.26" stroke-linecap="round" stroke-linejoin="round"/>
<path d="M436.596 301.173L399.076 251.003" stroke="#6E3F19" stroke-width="3.26" stroke-linecap="round" stroke-linejoin="round"/>
<path d="M533.446 214.903C533.446 208.733 530.056 203.363 525.036 200.533C525.126 199.833 525.186 199.123 525.186 198.403C525.186 189.283 517.796 181.893 508.676 181.893C503.736 181.893 499.316 184.073 496.296 187.503C493.266 184.063 488.856 181.893 483.916 181.893C474.796 181.893 467.406 189.283 467.406 198.403C458.286 198.403 450.896 205.793 450.896 214.913C450.896 223.533 457.496 230.593 465.916 231.343C464.766 233.593 464.096 236.143 464.096 238.843C464.096 247.963 471.486 255.353 480.606 255.353C488.396 255.353 494.906 249.953 496.646 242.703C499.656 245.913 503.926 247.923 508.676 247.923C517.796 247.923 525.186 240.533 525.186 231.413C525.186 230.693 525.126 229.983 525.036 229.283C530.046 226.453 533.446 221.083 533.446 214.913V214.903Z" fill="#03CD9C"/>
<path d="M528.806 214.613C528.896 215.313 528.956 216.023 528.956 216.743C528.956 225.863 521.566 233.253 512.446 233.253C507.696 233.253 503.436 231.233 500.416 228.033C498.676 235.283 492.166 240.683 484.376 240.683C475.256 240.683 467.866 233.293 467.866 224.173C467.866 221.473 468.526 218.923 469.686 216.673C462.506 216.033 456.666 210.803 455.096 203.933C452.496 206.853 450.896 210.683 450.896 214.903C450.896 223.523 457.496 230.583 465.916 231.333C464.766 233.583 464.096 236.133 464.096 238.833C464.096 247.953 471.486 255.343 480.606 255.343C488.396 255.343 494.906 249.943 496.646 242.693C499.656 245.903 503.926 247.913 508.676 247.913C517.796 247.913 525.186 240.523 525.186 231.403C525.186 230.683 525.126 229.973 525.036 229.273C530.046 226.443 533.446 221.073 533.446 214.903C533.446 213.623 533.266 212.393 532.996 211.193C531.786 212.543 530.396 213.713 528.806 214.613Z" fill="#01A9BE"/>
<path d="M463.396 161.693C463.396 155.523 460.006 150.153 454.986 147.323C455.076 146.623 455.136 145.913 455.136 145.193C455.136 136.073 447.746 128.683 438.626 128.683C433.686 128.683 429.266 130.863 426.246 134.293C423.216 130.853 418.806 128.683 413.866 128.683C404.746 128.683 397.356 136.073 397.356 145.193C388.236 145.193 380.846 152.583 380.846 161.703C380.846 170.323 387.446 177.383 395.866 178.133C394.716 180.383 394.046 182.933 394.046 185.633C394.046 194.753 401.436 202.143 410.556 202.143C418.346 202.143 424.856 196.743 426.596 189.493C429.606 192.703 433.876 194.713 438.626 194.713C447.746 194.713 455.136 187.323 455.136 178.203C455.136 177.483 455.076 176.773 454.986 176.073C460.006 173.243 463.396 167.873 463.396 161.703V161.693Z" fill="#01A9BE"/>
<path d="M443.326 129.173C441.836 128.733 440.266 128.483 438.636 128.483C433.696 128.483 429.276 130.663 426.256 134.093C423.226 130.653 418.816 128.483 413.876 128.483C404.756 128.483 397.366 135.873 397.366 144.993C388.246 144.993 380.856 152.383 380.856 161.503C380.856 163.353 381.176 165.123 381.736 166.773C384.286 168.373 387.286 169.323 390.516 169.323C398.306 169.323 404.816 163.923 406.556 156.673C409.566 159.883 413.836 161.893 418.586 161.893C427.706 161.893 435.096 154.503 435.096 145.383C435.096 144.663 435.036 143.953 434.946 143.253C439.876 140.463 443.226 135.213 443.336 129.173H443.326Z" fill="#03CD9C"/>
<path d="M413.876 194.683C413.876 188.513 410.486 183.143 405.466 180.313C405.556 179.613 405.616 178.903 405.616 178.183C405.616 169.063 398.226 161.673 389.106 161.673C384.166 161.673 379.746 163.853 376.726 167.283C373.696 163.843 369.286 161.673 364.346 161.673C355.226 161.673 347.836 169.063 347.836 178.183C338.716 178.183 331.326 185.573 331.326 194.693C331.326 203.313 337.926 210.373 346.346 211.123C345.196 213.373 344.526 215.923 344.526 218.623C344.526 227.743 351.916 235.133 361.036 235.133C368.826 235.133 375.336 229.733 377.076 222.483C380.086 225.693 384.356 227.703 389.106 227.703C398.226 227.703 405.616 220.313 405.616 211.193C405.616 210.473 405.556 209.763 405.466 209.063C410.486 206.233 413.876 200.863 413.876 194.693V194.683Z" fill="#01A9BE"/>
<path opacity="0.12" d="M396.446 163.463C394.206 162.323 391.676 161.663 388.986 161.663C384.046 161.663 379.626 163.843 376.606 167.273C373.586 163.833 369.166 161.663 364.226 161.663C355.106 161.663 347.716 169.053 347.716 178.173C339.256 178.173 332.286 184.543 331.336 192.743C334.356 196.623 339.056 199.123 344.356 199.123C352.146 199.123 358.656 193.723 360.396 186.473C363.406 189.683 367.676 191.693 372.426 191.693C381.546 191.693 388.936 184.303 388.936 175.183C388.936 174.463 388.876 173.753 388.786 173.053C392.446 170.983 395.226 167.553 396.466 163.463H396.446Z" fill="white"/>
<path d="M342.446 207.233C342.446 204.533 343.106 201.983 344.266 199.733C338.866 199.253 334.226 196.163 331.586 191.753C331.436 192.643 331.336 193.563 331.336 194.503C331.336 201.833 336.116 208.013 342.726 210.173C342.556 209.223 342.446 208.243 342.446 207.243V207.233Z" fill="#03CD9C"/>
<path d="M413.876 194.503C413.876 191.403 413.016 188.503 411.536 186.033C410.696 191.033 407.636 195.273 403.376 197.683C403.466 198.383 403.526 199.093 403.526 199.813C403.526 208.933 396.136 216.323 387.016 216.323C382.266 216.323 378.006 214.303 374.986 211.103C373.246 218.353 366.736 223.753 358.946 223.753C352.926 223.753 347.676 220.523 344.796 215.703C344.646 216.593 344.536 217.503 344.536 218.443C344.536 227.563 351.926 234.953 361.046 234.953C368.836 234.953 375.346 229.553 377.086 222.303C380.096 225.513 384.366 227.523 389.116 227.523C398.236 227.523 405.626 220.133 405.626 211.013C405.626 210.293 405.566 209.583 405.476 208.883C410.496 206.053 413.886 200.683 413.886 194.513L413.876 194.503Z" fill="#03CD9C"/>
<path d="M509.616 181.913C509.616 175.743 506.226 170.373 501.206 167.543C501.296 166.843 501.356 166.133 501.356 165.413C501.356 156.293 493.966 148.903 484.846 148.903C479.906 148.903 475.486 151.083 472.466 154.513C469.446 151.073 465.026 148.903 460.086 148.903C450.966 148.903 443.576 156.293 443.576 165.413C434.456 165.413 427.066 172.803 427.066 181.923C427.066 190.543 433.666 197.603 442.086 198.353C440.936 200.603 440.266 203.153 440.266 205.853C440.266 214.973 447.656 222.363 456.776 222.363C464.566 222.363 471.076 216.963 472.816 209.713C475.826 212.923 480.096 214.933 484.846 214.933C493.966 214.933 501.356 207.543 501.356 198.423C501.356 197.703 501.296 196.993 501.206 196.293C506.226 193.463 509.616 188.093 509.616 181.923V181.913Z" fill="#01A9BE"/>
<path opacity="0.12" d="M487.556 149.143C486.676 148.993 485.776 148.903 484.846 148.903C479.906 148.903 475.486 151.083 472.466 154.513C469.446 151.073 465.026 148.903 460.086 148.903C450.966 148.903 443.576 156.293 443.576 165.413C434.456 165.413 427.066 172.803 427.066 181.923C427.066 182.463 427.096 182.993 427.146 183.513C429.536 184.863 432.296 185.643 435.236 185.643C443.026 185.643 449.536 180.243 451.276 172.993C454.286 176.203 458.556 178.213 463.306 178.213C472.426 178.213 479.816 170.823 479.816 161.703C479.816 160.983 479.756 160.273 479.666 159.573C483.566 157.363 486.466 153.613 487.566 149.153L487.556 149.143Z" fill="white"/>
<path d="M431.536 185.583C430.026 185.453 428.586 185.103 427.226 184.593C427.616 186.993 428.526 189.223 429.846 191.153C430.086 189.163 430.666 187.293 431.546 185.583H431.536Z" fill="#6B8A18"/>
<path d="M509.526 181.913C509.526 175.743 506.136 170.373 501.116 167.543C501.206 166.843 501.266 166.133 501.266 165.413C501.266 158.343 496.806 152.323 490.556 149.973C490.696 150.843 490.796 151.733 490.796 152.653C490.796 153.373 490.736 154.083 490.646 154.783C495.666 157.613 499.056 162.983 499.056 169.153C499.056 175.323 495.666 180.693 490.646 183.523C490.736 184.223 490.796 184.933 490.796 185.653C490.796 194.773 483.406 202.163 474.286 202.163C469.536 202.163 465.276 200.143 462.256 196.943C460.516 204.193 454.006 209.593 446.216 209.593C444.176 209.593 442.226 209.203 440.416 208.523C441.696 216.363 448.486 222.353 456.686 222.353C464.886 222.353 470.986 216.953 472.726 209.703C475.736 212.913 480.006 214.923 484.756 214.923C493.876 214.923 501.266 207.533 501.266 198.413C501.266 197.693 501.206 196.983 501.116 196.283C506.126 193.453 509.526 188.083 509.526 181.913Z" fill="#03CD9C"/>
<path d="M468.346 214.903C468.346 208.733 464.956 203.363 459.936 200.533C460.026 199.833 460.086 199.123 460.086 198.403C460.086 189.283 452.696 181.893 443.576 181.893C438.636 181.893 434.216 184.073 431.196 187.503C428.176 184.063 423.756 181.893 418.816 181.893C409.696 181.893 402.306 189.283 402.306 198.403C393.186 198.403 385.796 205.793 385.796 214.913C385.796 223.533 392.396 230.593 400.816 231.343C399.666 233.593 398.996 236.143 398.996 238.843C398.996 247.963 406.386 255.353 415.506 255.353C423.296 255.353 429.806 249.953 431.546 242.703C434.556 245.913 438.826 247.923 443.576 247.923C452.696 247.923 460.086 240.533 460.086 231.413C460.086 230.693 460.026 229.983 459.936 229.283C464.956 226.453 468.346 221.083 468.346 214.913V214.903Z" fill="#03CD9C"/>
<path d="M484.856 235.123C484.856 228.953 481.466 223.583 476.446 220.753C476.536 220.053 476.596 219.343 476.596 218.623C476.596 209.503 469.206 202.113 460.086 202.113C455.146 202.113 450.726 204.293 447.706 207.723C444.686 204.283 440.266 202.113 435.326 202.113C426.206 202.113 418.816 209.503 418.816 218.623C409.696 218.623 402.306 226.013 402.306 235.133C402.306 243.753 408.906 250.813 417.326 251.563C416.176 253.813 415.506 256.363 415.506 259.063C415.506 268.183 422.896 275.573 432.016 275.573C439.806 275.573 446.316 270.173 448.056 262.923C451.066 266.133 455.336 268.143 460.086 268.143C469.206 268.143 476.596 260.753 476.596 251.633C476.596 250.913 476.536 250.203 476.446 249.503C481.466 246.673 484.856 241.303 484.856 235.133V235.123Z" fill="#01A9BE"/>
<path opacity="0.12" d="M461.936 202.233C461.266 202.153 460.596 202.093 459.906 202.093C454.966 202.093 450.546 204.273 447.526 207.703C444.496 204.263 440.086 202.093 435.146 202.093C426.026 202.093 418.636 209.483 418.636 218.603C409.516 218.603 402.126 225.993 402.126 235.113C402.126 237.433 402.616 239.623 403.476 241.623C405.236 242.263 407.126 242.633 409.106 242.633C416.896 242.633 423.406 237.233 425.146 229.983C428.156 233.193 432.426 235.203 437.176 235.203C446.296 235.203 453.686 227.813 453.686 218.693C453.686 217.973 453.626 217.263 453.536 216.563C458.536 213.733 461.926 208.383 461.936 202.233Z" fill="white"/>
<path d="M478.836 237.823C478.926 238.523 478.986 239.233 478.986 239.953C478.986 249.073 471.596 256.463 462.476 256.463C457.726 256.463 453.466 254.443 450.446 251.243C448.706 258.493 442.196 263.893 434.406 263.893C425.286 263.893 417.896 256.503 417.896 247.383C417.896 244.683 418.556 242.133 419.716 239.883C412.246 239.213 406.216 233.583 404.946 226.303C403.276 228.883 402.296 231.953 402.296 235.253C402.296 243.873 408.896 250.933 417.316 251.683C416.166 253.933 415.496 256.483 415.496 259.183C415.496 268.303 422.886 275.693 432.006 275.693C439.796 275.693 446.306 270.293 448.046 263.043C451.056 266.253 455.326 268.263 460.076 268.263C469.196 268.263 476.586 260.873 476.586 251.753C476.586 251.033 476.526 250.323 476.436 249.623C481.456 246.793 484.846 241.423 484.846 235.253C484.846 234.273 484.736 233.323 484.566 232.393C483.116 234.633 481.156 236.503 478.826 237.823H478.836Z" fill="#03CD9C"/>
<path d="M430.376 243.413C430.376 237.243 426.986 231.873 421.966 229.043C422.056 228.343 422.116 227.633 422.116 226.913C422.116 217.793 414.726 210.403 405.606 210.403C400.666 210.403 396.246 212.583 393.226 216.013C390.196 212.573 385.786 210.403 380.846 210.403C371.726 210.403 364.336 217.793 364.336 226.913C355.216 226.913 347.826 234.303 347.826 243.423C347.826 252.043 354.426 259.103 362.846 259.853C361.696 262.103 361.026 264.653 361.026 267.353C361.026 276.473 368.416 283.863 377.536 283.863C385.326 283.863 391.836 278.463 393.576 271.213C396.586 274.423 400.856 276.433 405.606 276.433C414.726 276.433 422.116 269.043 422.116 259.923C422.116 259.203 422.056 258.493 421.966 257.793C426.986 254.963 430.376 249.593 430.376 243.423V243.413Z" fill="#01A9BE"/>
<path d="M407.256 219.473C407.256 216.133 406.236 213.053 404.536 210.453C400.046 210.753 396.056 212.833 393.256 216.003C390.226 212.563 385.816 210.393 380.876 210.393C371.756 210.393 364.366 217.783 364.366 226.903C355.246 226.903 347.856 234.293 347.856 243.413C347.856 250.803 352.716 257.033 359.406 259.143C364.876 257.403 369.106 252.903 370.466 247.273C373.476 250.483 377.746 252.493 382.496 252.493C391.616 252.493 399.006 245.103 399.006 235.983C399.006 235.263 398.946 234.553 398.856 233.853C403.876 231.023 407.266 225.653 407.266 219.483L407.256 219.473Z" fill="#03CD9C"/>
<path d="M349.916 249.183C349.656 249.163 349.396 249.113 349.146 249.073C349.266 249.403 349.406 249.713 349.546 250.033C349.676 249.753 349.786 249.453 349.926 249.183H349.916Z" fill="#83A81E"/>
<path d="M430.636 243.323C430.636 237.153 427.246 231.783 422.226 228.953C422.316 228.253 422.376 227.543 422.376 226.823C422.376 218.473 416.166 211.583 408.116 210.483C408.786 212.273 409.166 214.213 409.166 216.243C409.166 216.963 409.106 217.673 409.016 218.373C414.036 221.203 417.426 226.573 417.426 232.743C417.426 238.913 414.036 244.283 409.016 247.113C409.106 247.813 409.166 248.523 409.166 249.243C409.166 258.363 401.776 265.753 392.656 265.753C387.906 265.753 383.646 263.733 380.626 260.533C378.886 267.783 372.376 273.183 364.586 273.183C363.826 273.183 363.076 273.113 362.336 273.013C364.676 279.283 370.706 283.763 377.786 283.763C385.576 283.763 392.086 278.363 393.826 271.113C396.836 274.323 401.106 276.333 405.856 276.333C414.976 276.333 422.366 268.943 422.366 259.823C422.366 259.103 422.306 258.393 422.216 257.693C427.236 254.863 430.626 249.493 430.626 243.323H430.636Z" fill="#01A9BE"/>
<path d="M409.306 223.833C409.306 224.583 408.706 225.183 407.956 225.183C407.206 225.183 406.606 224.583 406.606 223.833C406.606 223.083 407.206 222.483 407.956 222.483C408.706 222.483 409.306 223.083 409.306 223.833Z" fill="#F2EDCC"/>
<path d="M413.356 250.413C413.356 251.163 412.756 251.763 412.006 251.763C411.256 251.763 410.656 251.163 410.656 250.413C410.656 249.663 411.256 249.063 412.006 249.063C412.756 249.063 413.356 249.663 413.356 250.413Z" fill="#F2EDCC"/>
<path d="M390.586 271.143C390.586 271.883 389.986 272.493 389.236 272.493C388.486 272.493 387.886 271.893 387.886 271.143C387.886 270.393 388.486 269.793 389.236 269.793C389.986 269.793 390.586 270.393 390.586 271.143Z" fill="#F2EDCC"/>
<path d="M380.666 231.153C380.666 231.903 380.066 232.503 379.316 232.503C378.566 232.503 377.966 231.903 377.966 231.153C377.966 230.403 378.566 229.803 379.316 229.803C380.066 229.803 380.666 230.403 380.666 231.153Z" fill="#03CD9C"/>
<path d="M367.566 250.413C367.566 251.163 366.966 251.763 366.216 251.763C365.466 251.763 364.866 251.163 364.866 250.413C364.866 249.663 365.466 249.063 366.216 249.063C366.966 249.063 367.566 249.663 367.566 250.413Z" fill="#F2EDCC"/>
<path d="M388.976 171.073C388.976 171.823 388.376 172.423 387.626 172.423C386.876 172.423 386.276 171.823 386.276 171.073C386.276 170.323 386.876 169.723 387.626 169.723C388.376 169.723 388.976 170.323 388.976 171.073Z" fill="#F2EDCC"/>
<path d="M393.026 197.653C393.026 198.403 392.426 199.003 391.676 199.003C390.926 199.003 390.326 198.403 390.326 197.653C390.326 196.903 390.926 196.303 391.676 196.303C392.426 196.303 393.026 196.903 393.026 197.653Z" fill="#F2EDCC"/>
<path d="M370.256 218.393C370.256 219.133 369.656 219.743 368.906 219.743C368.156 219.743 367.556 219.143 367.556 218.393C367.556 217.643 368.156 217.043 368.906 217.043C369.656 217.043 370.256 217.643 370.256 218.393Z" fill="#F2EDCC"/>
<path d="M360.336 178.393C360.336 179.143 359.736 179.743 358.986 179.743C358.236 179.743 357.636 179.143 357.636 178.393C357.636 177.643 358.236 177.043 358.986 177.043C359.736 177.043 360.336 177.643 360.336 178.393Z" fill="#F2EDCC"/>
<path d="M347.236 197.653C347.236 198.403 346.636 199.003 345.886 199.003C345.136 199.003 344.536 198.403 344.536 197.653C344.536 196.903 345.136 196.303 345.886 196.303C346.636 196.303 347.236 196.903 347.236 197.653Z" fill="#F2EDCC"/>
<path d="M442.316 141.613C442.316 142.363 441.716 142.963 440.966 142.963C440.216 142.963 439.616 142.363 439.616 141.613C439.616 140.863 440.216 140.263 440.966 140.263C441.716 140.263 442.316 140.863 442.316 141.613Z" fill="#F2EDCC"/>
<path d="M446.366 168.193C446.366 168.943 445.766 169.543 445.016 169.543C444.266 169.543 443.666 168.943 443.666 168.193C443.666 167.443 444.266 166.843 445.016 166.843C445.766 166.843 446.366 167.443 446.366 168.193Z" fill="#F2EDCC"/>
<path d="M423.596 188.933C423.596 189.673 422.996 190.283 422.246 190.283C421.496 190.283 420.896 189.683 420.896 188.933C420.896 188.183 421.496 187.583 422.246 187.583C422.996 187.583 423.596 188.183 423.596 188.933Z" fill="#F2EDCC"/>
<path d="M413.676 148.933C413.676 149.683 413.076 150.283 412.326 150.283C411.576 150.283 410.976 149.683 410.976 148.933C410.976 148.183 411.576 147.583 412.326 147.583C413.076 147.583 413.676 148.183 413.676 148.933Z" fill="#F2EDCC"/>
<path d="M400.586 168.193C400.586 168.943 399.986 169.543 399.236 169.543C398.486 169.543 397.886 168.943 397.886 168.193C397.886 167.443 398.486 166.843 399.236 166.843C399.986 166.843 400.586 167.443 400.586 168.193Z" fill="#F2EDCC"/>
<path d="M497.206 191.993C496.496 192.233 495.736 191.853 495.496 191.143C495.256 190.433 495.636 189.673 496.346 189.433C497.056 189.193 497.816 189.573 498.056 190.283C498.296 190.993 497.916 191.753 497.206 191.993Z" fill="#F2EDCC"/>
<path d="M473.296 204.293C472.586 204.533 471.826 204.153 471.586 203.443C471.346 202.733 471.726 201.973 472.436 201.733C473.146 201.493 473.906 201.873 474.146 202.583C474.386 203.293 474.006 204.053 473.296 204.293Z" fill="#F2EDCC"/>
<path d="M446.386 189.313C445.676 189.553 444.916 189.173 444.676 188.463C444.436 187.753 444.816 186.993 445.526 186.753C446.236 186.513 446.996 186.893 447.236 187.603C447.476 188.313 447.096 189.073 446.386 189.313Z" fill="#F2EDCC"/>
<path d="M481.146 167.173C480.436 167.413 479.676 167.033 479.436 166.323C479.196 165.613 479.576 164.853 480.286 164.613C480.996 164.373 481.756 164.753 481.996 165.463C482.236 166.173 481.856 166.933 481.146 167.173Z" fill="#F2EDCC"/>
<path d="M458.716 160.893C458.006 161.133 457.246 160.753 457.006 160.043C456.766 159.333 457.146 158.573 457.856 158.333C458.566 158.093 459.326 158.473 459.566 159.183C459.806 159.893 459.426 160.653 458.716 160.893Z" fill="#F2EDCC"/>
<path d="M466.966 212.323C466.986 213.063 466.386 213.683 465.646 213.703C464.906 213.723 464.286 213.123 464.266 212.383C464.246 211.643 464.846 211.023 465.586 211.003C466.326 210.983 466.946 211.583 466.966 212.323Z" fill="#F2EDCC"/>
<path d="M471.546 238.813C471.556 239.553 470.966 240.173 470.226 240.193C469.486 240.213 468.866 239.613 468.846 238.873C468.836 238.133 469.426 237.513 470.166 237.493C470.906 237.473 471.526 238.073 471.546 238.813Z" fill="#F2EDCC"/>
<path d="M449.196 260.003C449.216 260.743 448.616 261.363 447.876 261.383C447.136 261.393 446.516 260.803 446.496 260.063C446.486 259.323 447.076 258.703 447.816 258.683C448.556 258.673 449.176 259.263 449.196 260.003Z" fill="#F2EDCC"/>
<path d="M438.476 220.213C438.496 220.953 437.896 221.573 437.156 221.593C436.416 221.603 435.796 221.013 435.776 220.273C435.756 219.533 436.356 218.913 437.096 218.893C437.836 218.883 438.456 219.473 438.476 220.213Z" fill="#F2EDCC"/>
<path d="M425.766 239.733C425.786 240.473 425.186 241.093 424.446 241.113C423.706 241.133 423.086 240.533 423.066 239.793C423.046 239.053 423.646 238.433 424.386 238.413C425.126 238.393 425.746 238.993 425.766 239.733Z" fill="#F2EDCC"/>
<path d="M519.796 193.383C519.806 194.123 519.216 194.743 518.476 194.763C517.736 194.783 517.116 194.183 517.096 193.443C517.086 192.703 517.676 192.083 518.416 192.063C519.156 192.053 519.776 192.643 519.796 193.383Z" fill="#F2EDCC"/>
<path d="M524.386 219.873C524.396 220.613 523.806 221.233 523.066 221.253C522.326 221.273 521.706 220.673 521.686 219.933C521.666 219.193 522.266 218.573 523.006 218.553C523.746 218.533 524.366 219.133 524.386 219.873Z" fill="#F2EDCC"/>
<path d="M502.036 241.063C502.046 241.803 501.456 242.423 500.716 242.443C499.976 242.453 499.356 241.863 499.336 241.123C499.316 240.383 499.916 239.763 500.656 239.743C501.396 239.723 502.016 240.323 502.036 241.063Z" fill="#F2EDCC"/>
<path d="M491.306 201.273C491.316 202.013 490.726 202.633 489.986 202.653C489.246 202.673 488.626 202.073 488.606 201.333C488.596 200.593 489.186 199.973 489.926 199.953C490.666 199.933 491.286 200.533 491.306 201.273Z" fill="#F2EDCC"/>
<path d="M478.606 220.793C478.616 221.533 478.026 222.153 477.286 222.173C476.546 222.193 475.926 221.593 475.906 220.853C475.896 220.113 476.486 219.493 477.226 219.473C477.966 219.463 478.586 220.053 478.606 220.793Z" fill="#F2EDCC"/>
<path d="M365.406 394.383C365.466 394.883 365.346 395.333 365.036 395.733C364.756 396.603 364.166 396.783 363.306 396.613C360.326 396.043 357.396 395.313 354.756 393.733C353.056 392.323 351.496 391.093 350.946 388.543C350.296 385.533 349.356 382.483 348.206 379.573C347.316 377.303 347.666 375.463 348.956 373.453C350.216 371.493 351.276 369.323 350.436 366.383C349.976 367.283 349.696 367.833 349.416 368.373C349.366 367.753 349.056 367.703 348.506 367.863C344.606 368.943 340.666 368.583 336.776 367.963C331.916 367.193 327.086 366.183 322.246 365.283H322.226C321.656 362.493 319.726 362.743 317.286 363.113C316.136 363.283 315.066 363.493 314.686 362.233C314.176 360.543 312.866 359.973 311.496 359.363C311.469 357.363 311.182 355.996 310.636 355.263C310.686 360.653 309.386 365.693 307.366 370.543C305.196 375.743 302.176 380.413 297.916 384.193C296.876 384.413 295.836 384.633 295.696 385.973V385.953C293.806 387.093 291.666 387.863 290.056 389.453C287.436 392.033 284.156 391.343 281.006 391.383C280.106 391.393 280.026 390.773 279.766 390.113C279.126 388.463 279.636 386.733 279.276 384.953C278.626 386.053 279.456 387.313 278.626 388.243C278.346 383.393 278.056 378.573 277.056 373.763C275.926 368.373 274.456 362.973 274.896 357.353C274.986 356.203 274.906 355.043 274.906 353.883C274.786 353.863 274.656 353.833 274.536 353.813C274.036 355.083 273.536 356.343 273.036 357.613C272.176 359.103 270.826 360.373 270.946 362.293C270.106 364.863 270.466 367.653 269.676 370.213C266.676 379.793 261.766 388.233 254.546 395.303C253.326 396.503 251.806 397.223 250.486 398.223C248.166 399.993 245.866 402.023 242.836 402.683C242.476 402.683 242.156 402.753 241.966 403.103L241.986 403.083C239.926 402.513 238.426 403.583 236.996 404.833C236.706 404.893 236.416 404.953 236.126 405.003C235.566 404.083 235.096 404.883 234.596 405.073C234.306 405.073 234.026 405.073 233.736 405.073C233.866 404.523 233.756 403.943 234.396 403.543C236.076 402.513 235.736 400.663 235.986 399.093C236.056 398.673 235.536 398.653 235.216 399.003C234.766 398.973 234.306 398.953 233.856 398.923C232.856 398.633 231.756 397.873 231.166 399.493C230.566 399.563 229.956 399.633 229.356 399.703C228.266 398.323 227.496 399.583 226.616 400.033C226.166 400.033 225.726 400.033 225.276 400.033C224.856 399.323 225.106 398.803 225.696 398.323C226.356 397.783 226.786 397.123 226.506 396.203L226.526 396.183C228.166 395.853 229.176 394.803 229.796 393.303C229.966 392.893 230.336 392.163 230.376 392.173C232.296 392.953 231.566 391.373 231.426 390.833C231.206 390.013 230.566 389.823 229.556 389.783C227.146 389.683 225.216 391.003 223.006 391.413C222.476 391.513 221.796 392.183 221.446 391.393C221.146 390.723 222.056 390.503 222.366 390.043C223.826 387.943 226.646 386.713 226.556 383.603V383.573C228.806 382.603 230.516 380.853 232.096 379.123C233.666 377.403 235.236 375.793 237.146 374.453C239.666 372.693 241.226 370.013 243.276 367.783C243.816 367.193 244.286 366.173 243.276 365.503C242.246 364.823 242.106 364.763 243.076 363.903C245.856 361.433 248.466 358.703 251.346 356.423C255.046 353.483 258.826 350.563 262.726 347.873C264.016 346.983 265.176 345.903 266.566 345.163C270.296 343.143 274.036 341.143 277.776 339.153C278.236 338.913 278.926 338.513 279.226 338.683C280.366 339.323 280.756 338.433 281.576 338.093C283.996 337.073 286.176 335.663 288.516 334.593C291.616 333.183 295.186 333.093 298.396 331.823C298.856 331.643 299.466 331.633 299.956 331.743C304.296 332.723 308.616 331.603 312.946 331.743C316.156 331.843 319.286 332.633 322.506 332.853C324.046 332.953 325.446 333.133 326.936 332.703C327.356 332.583 327.836 332.653 328.286 332.633C331.656 332.473 335.056 332.553 338.376 332.063C339.986 331.823 341.606 332.463 343.176 331.693C345.576 330.523 348.086 330.513 350.636 331.263C351.076 331.393 351.556 331.893 352.026 331.223C353.346 329.363 355.436 329.293 357.406 329.043C357.976 328.973 358.746 328.163 359.206 329.043C359.596 329.793 358.816 330.253 358.366 330.723C357.356 331.773 357.206 332.473 358.966 332.713C359.846 332.833 360.996 332.853 361.506 333.393C364.116 336.143 366.906 338.773 368.776 342.113C370.186 344.633 371.086 347.473 372.396 349.953C373.736 352.483 373.716 355.143 373.036 356.973C371.966 359.873 370.496 362.813 368.776 365.523C367.906 366.893 366.376 368.133 367.106 370.123C367.096 370.723 367.076 371.323 367.066 371.923C366.406 372.903 366.166 373.843 367.296 374.673C367.316 375.543 367.326 376.413 367.346 377.283C366.046 378.923 366.256 380.603 367.226 382.303C367.426 383.823 366.296 385.283 367.046 386.813C366.146 388.433 366.936 390.423 365.926 392.023C365.906 392.263 365.896 392.513 365.876 392.753C365.766 393.073 365.656 393.393 365.546 393.713C365.496 393.913 365.436 394.123 365.386 394.323L365.406 394.383Z" fill="#FE8A01"/>
<path d="M367.066 386.873C366.316 385.333 367.446 383.873 367.246 382.363C367.726 380.703 367.536 379.023 367.366 377.343C367.346 376.473 367.336 375.603 367.316 374.733C367.236 373.813 367.156 372.903 367.076 371.983C367.086 371.383 367.106 370.783 367.116 370.183C368.986 368.183 370.266 365.833 371.256 363.303C371.956 361.523 371.996 361.553 373.856 360.853C374.046 360.783 374.206 360.373 374.226 360.113C374.516 356.283 374.546 352.463 373.336 348.753C371.436 342.953 367.376 338.453 364.066 333.503C363.666 332.903 362.996 332.173 362.376 332.093C359.696 331.743 360.216 329.873 360.396 328.203C360.466 327.513 360.866 326.873 359.776 326.753C360.876 325.473 362.326 324.303 361.196 322.303C361.746 322.033 362.306 321.773 362.866 321.503C362.926 322.253 363.166 322.783 364.076 322.763C370.536 322.663 375.156 327.013 380.526 329.553C380.006 331.583 381.486 332.713 382.586 333.963C383.156 334.613 384.096 334.483 384.596 333.873C385.606 332.643 386.996 331.503 386.446 329.583C387.566 329.003 388.196 327.403 389.526 327.523C391.526 327.693 392.376 326.373 393.436 325.193C395.766 324.223 398.086 323.033 400.626 323.013C402.426 323.003 403.946 321.593 405.786 322.243C404.986 324.403 406.296 326.293 406.606 328.303C407.026 331.073 406.716 331.323 404.166 332.313C402.386 333.003 401.016 334.703 399.296 335.633C396.996 336.863 397.406 338.903 397.246 340.863C396.666 348.003 395.006 354.823 391.316 361.073C389.866 363.523 388.496 365.993 386.586 368.143C385.546 369.303 384.846 370.853 382.846 370.293C382.686 370.243 382.366 370.393 382.266 370.553C380.896 372.593 379.056 373.863 376.796 374.883C375.536 375.453 374.706 377.183 373.936 378.543C372.726 380.673 370.996 382.363 369.286 383.993C368.346 384.893 368.636 386.593 367.076 386.893L367.066 386.873Z" fill="#FDD6B2"/>
<path d="M349.636 396.853C346.456 402.963 343.316 409.103 340.066 415.183C339.336 416.553 339.196 417.263 340.926 417.893C342.796 418.573 344.186 420.003 345.016 421.863C345.486 422.933 345.276 423.593 343.926 423.533C340.256 423.383 336.576 423.233 332.896 423.153C331.596 423.123 331.966 422.363 332.046 421.633C332.826 414.503 335.256 407.763 336.866 400.833C337.046 400.043 337.196 399.233 337.356 398.433C338.816 394.333 339.656 390.063 340.756 385.863C340.946 385.123 341.066 384.423 341.696 383.933C343.206 388.933 346.616 392.773 349.636 396.843V396.853Z" fill="#813A08"/>
<path d="M354.756 393.733C357.396 395.313 360.316 396.043 363.306 396.613C364.166 396.783 364.756 396.613 365.036 395.733C365.726 402.383 366.446 409.023 367.086 415.673C367.216 416.983 367.576 417.813 368.916 418.383C371.406 419.453 373.346 421.153 373.666 423.953C369.766 423.953 365.946 423.913 362.136 423.973C360.746 423.993 360.866 422.943 360.636 422.163C358.216 413.653 355.826 405.133 353.426 396.613C353.126 395.533 352.816 394.453 352.506 393.373C353.366 392.813 353.956 393.923 354.756 393.733Z" fill="#813A08"/>
<path d="M287.196 416.473C287.236 416.353 287.196 416.263 287.086 416.203C285.076 410.383 282.856 404.643 280.406 398.993H280.416C280.356 398.513 280.336 398.013 279.896 397.683C279.726 397.223 279.566 396.763 279.396 396.303C279.356 396.133 279.316 395.953 279.276 395.783L279.206 395.583C279.106 394.683 279.006 393.773 278.906 392.863C278.926 392.613 278.946 392.363 278.976 392.113C281.566 392.543 284.116 392.973 286.756 392.193C288.726 391.613 290.336 390.393 292.166 389.573C291.416 392.573 290.396 395.473 291.096 398.723C292.166 403.693 293.866 408.483 295.006 413.433C295.356 414.943 295.966 416.103 297.646 416.653C299.296 417.193 300.456 418.573 301.516 419.943C301.496 420.073 301.546 420.173 301.656 420.253C302.156 421.653 302.276 422.593 300.176 422.313C298.186 422.053 296.146 422.173 294.136 422.133C291.069 422.073 288.992 420.639 287.906 417.833C287.716 417.353 287.446 416.913 287.216 416.453L287.196 416.473Z" fill="#813A08"/>
<path d="M337.696 376.973C335.286 376.963 332.866 376.953 330.456 376.943C328.626 376.363 326.836 375.723 324.886 375.563C321.386 375.263 317.766 374.943 314.616 373.513C312.606 372.593 310.836 372.113 308.756 372.403C310.196 368.653 311.476 364.863 311.096 360.743C312.036 360.603 312.336 361.383 312.816 361.923C313.906 363.133 314.986 364.363 316.146 365.503C316.726 366.073 317.896 366.633 318.076 365.483C318.446 363.123 319.426 364.033 320.576 364.683C321.076 364.973 321.676 365.083 322.226 365.283H322.246C323.396 366.883 325.176 367.533 326.856 368.333C326.906 368.363 326.966 368.393 327.016 368.423C326.956 368.403 326.896 368.373 326.836 368.353C326.916 367.713 326.786 366.873 327.926 367.253C328.486 367.443 329.096 367.503 329.666 367.673C335.486 369.413 341.336 370.953 347.506 369.753C348.216 369.613 348.866 369.723 349.026 370.623C348.106 373.163 347.346 375.793 344.966 377.463C344.896 376.793 344.856 375.883 343.946 376.093C341.876 376.553 339.686 376.083 337.696 376.983V376.973Z" fill="#FDD6B2"/>
<path d="M233.726 405.113C234.016 405.113 234.296 405.113 234.586 405.113C234.636 405.273 234.686 405.443 234.746 405.603C234.646 406.613 233.806 406.643 233.106 406.843C227.576 408.393 221.916 408.763 216.226 408.363C215.486 408.313 212.706 409.173 213.696 406.263C213.846 405.813 213.026 405.893 212.616 405.793C209.836 405.093 206.976 405.693 204.176 405.353C203.526 405.273 202.666 405.463 202.476 404.633C202.266 403.743 203.176 403.593 203.746 403.333C205.786 402.413 207.896 401.653 209.866 400.623C210.726 400.173 212.676 400.053 211.496 398.103C211.416 397.973 211.676 397.533 211.876 397.373C214.196 395.503 216.536 393.653 218.876 391.803C218.956 391.863 219.036 391.933 219.116 391.993C219.526 393.373 220.616 392.653 221.316 392.563C223.446 392.293 225.536 391.803 227.656 391.423C228.166 391.333 228.796 391.183 229.116 391.643C229.536 392.233 229.096 392.753 228.676 393.203C227.826 394.123 226.956 395.033 226.486 396.233L226.466 396.253C224.966 396.863 224.156 398.263 223.026 399.293C222.296 399.963 222.766 400.323 223.546 400.343C224.126 400.363 224.736 400.523 225.246 400.073C225.696 400.073 226.136 400.073 226.586 400.073C227.586 400.663 228.446 400.173 229.326 399.743C229.926 399.673 230.536 399.603 231.136 399.533C232.096 399.633 232.946 399.223 233.826 398.963C234.276 398.993 234.736 399.013 235.186 399.043C235.106 401.763 232.196 402.843 231.416 405.223C232.296 405.453 233.016 405.423 233.706 405.113H233.726Z" fill="#FDD6B2"/>
<path d="M359.776 326.733C360.866 326.853 360.466 327.493 360.396 328.183C360.216 329.843 359.706 331.723 362.376 332.073C362.996 332.153 363.666 332.883 364.066 333.483C367.376 338.433 371.426 342.933 373.336 348.733C374.556 352.443 374.516 356.263 374.226 360.093C374.206 360.353 374.056 360.763 373.856 360.833C371.986 361.533 371.956 361.503 371.256 363.283C370.266 365.813 368.986 368.163 367.116 370.163C366.386 368.173 367.916 366.933 368.786 365.563C370.506 362.853 371.976 359.913 373.046 357.013C373.716 355.183 373.736 352.523 372.406 349.993C371.096 347.513 370.196 344.673 368.786 342.153C366.916 338.803 364.126 336.173 361.516 333.433C360.996 332.883 359.846 332.873 358.976 332.753C357.216 332.513 357.366 331.813 358.376 330.763C358.826 330.293 359.606 329.833 359.216 329.083C358.756 328.203 357.996 329.013 357.416 329.083C355.456 329.323 353.356 329.403 352.036 331.263C351.566 331.933 351.076 331.433 350.646 331.303C348.106 330.543 345.586 330.563 343.186 331.733C341.616 332.503 339.996 331.863 338.386 332.103C335.066 332.593 331.666 332.513 328.296 332.673C327.846 332.693 327.366 332.623 326.946 332.743C325.456 333.173 324.056 332.993 322.516 332.893C319.296 332.673 316.156 331.893 312.956 331.783C308.626 331.643 304.306 332.763 299.966 331.783C299.476 331.673 298.866 331.683 298.406 331.863C295.196 333.133 291.626 333.223 288.526 334.633C286.186 335.703 284.006 337.123 281.586 338.133C280.756 338.483 280.376 339.363 279.236 338.723C278.926 338.553 278.236 338.953 277.786 339.193C274.036 341.183 270.306 343.183 266.576 345.203C265.196 345.953 264.026 347.033 262.736 347.913C258.826 350.603 255.056 353.523 251.356 356.463C248.476 358.743 245.876 361.473 243.086 363.943C242.116 364.803 242.256 364.853 243.286 365.543C244.286 366.213 243.816 367.233 243.286 367.823C241.246 370.053 239.676 372.733 237.156 374.493C235.246 375.833 233.666 377.443 232.106 379.163C230.526 380.893 228.816 382.653 226.556 383.613C226.566 383.333 226.586 383.053 226.596 382.773C231.476 377.503 236.906 372.793 242.016 367.873C241.426 366.843 240.526 367.753 239.996 366.953C240.896 364.633 242.806 363.013 244.526 361.283C255.866 349.893 269.266 341.823 284.006 335.433C292.536 331.743 301.006 330.463 310.076 330.863C316.156 331.133 322.226 331.843 328.316 331.503C337.076 331.013 345.856 330.613 354.426 328.383C356.246 327.913 357.876 326.863 359.796 326.743L359.776 326.733Z" fill="#F3963C"/>
<path d="M261.016 421.903C261.086 421.773 261.056 421.683 260.926 421.613C261.596 414.313 262.626 407.043 262.346 399.673C262.296 398.393 262.486 397.093 263.486 396.143C264.726 394.963 266.036 393.843 267.306 392.703C270.306 393.943 273.316 395.143 276.666 394.933C276.686 395.093 276.706 395.263 276.726 395.423C276.146 395.823 275.916 396.443 275.706 397.073L275.666 397.123C275.576 397.293 275.476 397.453 275.386 397.623V397.703C272.756 401.803 270.856 406.223 269.446 410.873C268.976 412.433 267.836 414.123 268.396 415.553C268.806 416.583 270.636 417.043 271.836 417.753C271.876 417.833 271.936 417.883 272.026 417.903C273.026 419.273 274.906 420.283 273.846 422.473H273.786C269.526 422.273 265.266 422.083 261.006 421.893L261.016 421.903Z" fill="#813A08"/>
<path d="M344.976 377.463C347.356 375.793 348.116 373.163 349.036 370.623C349.736 369.973 349.346 369.133 349.426 368.383C349.706 367.833 349.986 367.293 350.446 366.393C351.286 369.333 350.236 371.503 348.966 373.463C347.676 375.463 347.326 377.313 348.216 379.583C349.356 382.493 350.296 385.533 350.956 388.553C351.506 391.103 353.066 392.333 354.766 393.743C353.966 393.933 353.376 392.823 352.516 393.383C351.146 394.203 350.846 395.903 349.646 396.873C346.626 392.803 343.216 388.963 341.706 383.963C342.796 381.803 343.886 379.643 344.976 377.483V377.463Z" fill="#D46404"/>
<path d="M399.966 296.073C401.486 296.013 401.816 297.313 402.066 298.263C403.306 303.033 404.206 307.863 403.226 312.833C402.716 315.433 405.046 316.913 405.786 319.033C406.096 319.933 406.596 320.583 405.786 321.383C403.736 316.363 400.956 312.023 395.556 310.023C395.116 309.693 394.666 309.353 394.226 309.023C395.006 304.203 396.826 299.843 399.976 296.073H399.966Z" fill="#FDD6B2"/>
<path d="M363.566 316.093C363.616 310.313 362.716 304.453 364.796 298.823C365.206 297.713 365.146 296.193 366.906 296.113C370.186 299.843 371.936 304.263 372.776 309.093C369.096 310.623 366.076 313.023 363.576 316.093H363.566Z" fill="#FDD6B2"/>
<path d="M363.566 316.093C366.066 313.013 369.086 310.613 372.766 309.093C374.276 309.143 375.606 308.563 376.906 307.893C381.286 307.853 385.666 307.823 390.046 307.793C391.146 309.183 392.806 308.723 394.226 309.033C394.666 309.363 395.116 309.703 395.556 310.033C395.496 310.093 395.436 310.153 395.376 310.213C389.506 309.043 383.626 308.003 377.616 309.193C377.136 309.283 376.446 308.983 376.276 309.673C376.146 310.223 377.336 309.943 377.106 310.753C376.306 310.823 375.456 311.103 374.716 310.913C373.746 310.663 373.076 310.443 371.936 310.883C369.476 311.843 367.956 313.933 365.996 315.413C364.356 316.663 362.456 318.593 363.026 321.333C362.966 321.383 362.916 321.433 362.856 321.493C362.296 321.763 361.746 322.023 361.196 322.293C361.196 321.993 361.196 321.693 361.186 321.403C361.766 320.933 361.616 320.263 361.666 319.643C361.806 319.333 361.946 319.033 362.086 318.723C362.186 318.543 362.276 318.373 362.376 318.193C362.766 317.493 363.166 316.803 363.556 316.103L363.566 316.093Z" fill="#F3963C"/>
<path d="M394.216 309.023C392.796 308.713 391.146 309.163 390.036 307.783C391.296 303.133 393.646 299.253 397.856 296.663C398.496 296.273 399.126 295.873 399.906 295.823C399.946 295.823 399.996 295.853 400.046 295.873C400.016 295.933 399.996 296.003 399.966 296.063C396.816 299.833 394.996 304.193 394.216 309.013V309.023Z" fill="#813A08"/>
<path d="M376.906 307.883C375.606 308.553 374.276 309.133 372.766 309.083C371.926 304.253 370.186 299.833 366.896 296.103C368.006 295.963 369.476 296.553 370.716 297.823C373.536 300.703 376.186 303.703 376.896 307.883H376.906Z" fill="#813A08"/>
<path d="M395.556 310.023C400.956 312.023 403.736 316.373 405.786 321.383C405.786 321.663 405.786 321.953 405.786 322.233C403.946 321.583 402.426 322.993 400.626 323.003C398.086 323.013 395.766 324.213 393.436 325.183C393.366 325.123 393.296 325.063 393.226 325.013C392.436 324.143 391.396 324.613 390.476 324.563C389.546 324.513 389.026 324.203 388.646 323.283C388.166 322.103 388.336 320.473 388.966 320.213C389.996 319.783 391.516 319.583 392.636 320.623C391.646 320.483 390.686 320.503 389.856 321.143C389.266 321.603 388.996 322.183 389.316 322.913C389.636 323.643 390.176 324.293 391.016 324.043C392.446 323.623 394.006 323.173 393.536 321.083C394.756 321.533 393.886 322.823 394.406 323.453C397.136 322.763 399.776 322.023 402.436 321.453C403.926 321.133 404.156 320.113 403.556 319.193C402.706 317.893 402.226 316.433 400.746 315.373C399.016 314.143 397.896 312.073 395.746 311.213C395.516 311.123 395.486 310.553 395.366 310.213C395.426 310.153 395.486 310.093 395.546 310.033L395.556 310.023Z" fill="#F3963C"/>
<path d="M226.586 382.773C226.576 383.053 226.556 383.333 226.546 383.613V383.643C223.616 386.013 221.476 389.083 219.136 391.973C219.056 391.913 218.976 391.843 218.896 391.783C219.496 388.563 222.176 386.833 224.136 384.613C224.776 383.883 225.416 382.903 226.586 382.783V382.773Z" fill="#FDD6B2"/>
<path d="M240.646 404.353C239.866 404.533 238.996 404.403 238.346 405.013C237.896 404.963 237.446 404.903 236.986 404.853C238.416 403.603 239.906 402.543 241.976 403.103C241.726 403.733 240.646 403.463 240.646 404.353Z" fill="#F3963C"/>
<path d="M276.726 395.433C276.706 395.273 276.686 395.103 276.666 394.943L276.696 394.933C276.936 394.653 277.186 394.373 277.426 394.083C278.106 393.913 278.026 392.823 278.896 392.883C278.996 393.793 279.096 394.693 279.196 395.603C278.346 395.993 277.566 395.223 276.726 395.443V395.433Z" fill="#FDD6B2"/>
<path d="M361.666 319.623C361.616 320.243 361.756 320.913 361.186 321.383C360.596 320.593 360.366 319.893 361.666 319.623Z" fill="#FDD6B2"/>
<path d="M275.716 397.083C275.916 396.443 276.146 395.833 276.736 395.433C276.646 396.133 277.026 397.123 275.716 397.083Z" fill="#FDD6B2"/>
<path d="M234.746 405.593C234.696 405.423 234.646 405.263 234.586 405.103C235.086 404.913 235.566 404.113 236.116 405.033C235.656 405.223 235.196 405.413 234.736 405.603L234.746 405.593Z" fill="#F3963C"/>
<path d="M365.896 392.813C365.916 392.573 365.926 392.323 365.946 392.083C365.926 392.333 365.916 392.573 365.896 392.813Z" fill="#813A08"/>
<path d="M279.266 395.793C279.306 395.963 279.346 396.143 279.386 396.313C279.306 396.203 279.216 396.093 279.156 395.973C279.136 395.933 279.226 395.853 279.266 395.793Z" fill="#FDD6B2"/>
<path d="M260.926 422.523C260.896 422.583 260.856 422.653 260.826 422.713C260.856 422.653 260.896 422.593 260.926 422.533V422.523Z" fill="#FBF3E4"/>
<path d="M278.906 392.883C278.036 392.823 278.106 393.913 277.436 394.083C276.966 394.173 276.796 394.513 276.706 394.933L276.676 394.943C273.326 395.163 270.316 393.953 267.316 392.713C271.986 386.353 273.246 379.163 272.686 371.453C272.466 368.323 272.656 365.173 272.656 362.023C273.276 360.603 273.076 359.113 273.026 357.633C273.526 356.363 274.026 355.103 274.526 353.833C274.646 353.853 274.776 353.883 274.896 353.903C274.896 355.063 274.976 356.223 274.886 357.373C274.446 362.993 275.916 368.393 277.046 373.783C278.056 378.583 278.336 383.413 278.616 388.253C278.646 389.553 278.326 390.883 278.956 392.123L278.886 392.873L278.906 392.883Z" fill="#D46404"/>
<path d="M240.646 404.353C240.646 403.463 241.736 403.733 241.976 403.103L241.956 403.123C242.246 402.983 242.536 402.843 242.826 402.703C245.846 402.053 248.156 400.023 250.476 398.243C251.796 397.233 253.316 396.513 254.536 395.323C261.756 388.253 266.676 379.813 269.666 370.233C270.466 367.683 270.096 364.893 270.936 362.323C271.186 362.343 271.436 362.363 271.686 362.373C271.626 362.713 271.556 363.053 271.496 363.393C271.176 364.133 271.266 364.883 271.406 365.643C269.946 377.483 264.866 387.503 256.286 395.773C252.016 399.473 247.156 402.163 241.926 404.233C241.476 404.413 241.076 404.423 240.636 404.373L240.646 404.353Z" fill="#D46404"/>
<path d="M308.756 372.393C307.756 374.103 306.756 375.813 305.756 377.523C303.366 380.633 300.696 383.473 297.586 385.883C297.026 386.313 296.626 387.093 295.716 386.923C295.716 386.603 295.716 386.283 295.706 385.963L295.696 385.983C296.726 385.743 297.556 385.263 297.916 384.203C302.176 380.423 305.196 375.753 307.366 370.553C309.386 365.703 310.686 360.663 310.636 355.273C311.176 356.006 311.462 357.373 311.496 359.373C311.366 359.833 311.226 360.293 311.096 360.753C311.476 364.873 310.196 368.653 308.756 372.413V372.393Z" fill="#D46404"/>
<path d="M349.426 368.383C349.336 369.143 349.736 369.983 349.036 370.623C348.876 369.723 348.226 369.623 347.516 369.753C341.346 370.943 335.496 369.413 329.676 367.673C329.106 367.503 328.506 367.443 327.936 367.253C326.796 366.873 326.926 367.713 326.846 368.353L326.866 368.333C325.186 367.533 323.406 366.883 322.266 365.283C327.106 366.183 331.936 367.193 336.796 367.963C340.686 368.583 344.626 368.943 348.526 367.863C349.076 367.713 349.386 367.753 349.436 368.373L349.426 368.383Z" fill="#F3963C"/>
<path d="M219.136 391.973C221.476 389.083 223.626 386.013 226.546 383.643C226.626 386.753 223.816 387.973 222.356 390.073C222.036 390.533 221.136 390.753 221.436 391.423C221.786 392.213 222.466 391.543 222.996 391.443C225.206 391.023 227.136 389.703 229.546 389.813C230.556 389.853 231.206 390.053 231.416 390.863C231.556 391.403 232.286 392.983 230.366 392.203C230.326 392.193 229.956 392.923 229.786 393.333C229.166 394.833 228.156 395.883 226.516 396.213C226.986 395.013 227.856 394.103 228.706 393.183C229.126 392.733 229.556 392.213 229.146 391.623C228.816 391.163 228.186 391.313 227.686 391.403C225.576 391.783 223.476 392.273 221.346 392.543C220.646 392.633 219.546 393.353 219.146 391.973H219.136Z" fill="#F3963C"/>
<path d="M295.716 385.963C295.716 386.283 295.716 386.603 295.726 386.923V386.873C295.566 387.033 295.406 387.193 295.246 387.343L295.266 387.323C294.956 387.603 294.646 387.883 294.336 388.163L294.236 388.213C293.966 388.353 293.696 388.483 293.426 388.623L293.346 388.663C293.066 388.823 292.796 388.993 292.516 389.153L292.556 389.123C292.396 389.293 292.236 389.453 292.076 389.623L292.136 389.613C290.306 390.433 288.696 391.653 286.726 392.233C284.096 393.013 281.536 392.583 278.946 392.153C278.326 390.903 278.646 389.573 278.606 388.283C279.436 387.353 278.606 386.093 279.256 384.993C279.616 386.763 279.116 388.503 279.746 390.153C280.006 390.813 280.086 391.433 280.986 391.423C284.136 391.383 287.416 392.073 290.036 389.493C291.646 387.903 293.786 387.123 295.686 385.993L295.716 385.963Z" fill="#F3963C"/>
<path d="M311.096 360.743C311.226 360.283 311.366 359.823 311.496 359.363C312.866 359.983 314.176 360.543 314.686 362.233C315.066 363.483 316.136 363.283 317.286 363.113C319.736 362.743 321.656 362.493 322.226 365.283C321.676 365.093 321.076 364.973 320.576 364.683C319.426 364.033 318.446 363.113 318.076 365.483C317.896 366.623 316.726 366.073 316.146 365.503C314.976 364.363 313.906 363.133 312.816 361.923C312.336 361.383 312.036 360.603 311.096 360.743Z" fill="#F3963C"/>
<path d="M233.726 405.113C233.026 405.423 232.316 405.453 231.436 405.223C232.216 402.843 235.126 401.763 235.206 399.043C235.526 398.683 236.046 398.713 235.976 399.133C235.736 400.703 236.066 402.553 234.386 403.583C233.746 403.983 233.856 404.563 233.726 405.113Z" fill="#F3963C"/>
<path d="M225.266 400.063C224.756 400.503 224.146 400.353 223.566 400.333C222.786 400.303 222.316 399.943 223.046 399.283C224.176 398.253 224.986 396.853 226.486 396.243C226.766 397.163 226.336 397.823 225.676 398.363C225.086 398.843 224.836 399.363 225.256 400.073L225.266 400.063Z" fill="#F3963C"/>
<path d="M271.686 362.373C271.436 362.353 271.186 362.343 270.936 362.323C270.826 360.403 272.166 359.123 273.026 357.643C273.076 359.123 273.276 360.613 272.656 362.033C272.336 362.143 272.006 362.263 271.686 362.373Z" fill="#FDD6B2"/>
<path d="M367.366 377.333C367.536 379.013 367.726 380.693 367.246 382.353C366.276 380.653 366.056 378.973 367.366 377.333Z" fill="#F3963C"/>
<path d="M229.346 399.743C228.466 400.163 227.606 400.663 226.606 400.073C227.476 399.633 228.256 398.363 229.346 399.743Z" fill="#F3963C"/>
<path d="M297.926 384.193C297.566 385.263 296.736 385.743 295.706 385.973C295.836 384.623 296.886 384.403 297.926 384.193Z" fill="#F3963C"/>
<path d="M233.846 398.963C232.966 399.233 232.116 399.643 231.156 399.533C231.746 397.913 232.846 398.673 233.846 398.963Z" fill="#F3963C"/>
<path d="M367.076 371.973C367.156 372.893 367.236 373.803 367.316 374.723C366.186 373.893 366.426 372.953 367.076 371.973Z" fill="#F3963C"/>
<path d="M242.826 402.703C242.536 402.843 242.246 402.983 241.956 403.123C242.136 402.763 242.466 402.693 242.826 402.703Z" fill="#F3963C"/>
<path d="M380.526 329.543C375.156 326.993 370.536 322.643 364.076 322.753C363.166 322.763 362.926 322.233 362.866 321.493C362.926 321.443 362.976 321.393 363.036 321.343C365.206 321.803 367.356 322.393 369.546 322.673C370.656 322.813 371.856 323.273 373.006 322.693L372.926 322.723C373.126 322.873 373.326 323.033 373.516 323.183C374.806 324.033 376.086 323.993 377.376 323.173C377.406 323.873 377.066 324.283 376.426 324.513C375.096 325.003 375.956 326.093 376.366 326.093C378.256 326.093 379.376 327.963 380.926 328.053C383.136 328.193 385.456 328.963 387.686 327.153C389.146 325.963 391.356 325.693 393.236 325.003C393.306 325.063 393.376 325.123 393.446 325.173C392.386 326.353 391.536 327.673 389.536 327.503C388.206 327.393 387.576 328.993 386.456 329.563C384.486 329.563 382.506 329.543 380.536 329.533L380.526 329.543Z" fill="#F3963C"/>
<path d="M380.526 329.543C382.496 329.543 384.476 329.563 386.446 329.573C386.996 331.503 385.596 332.633 384.596 333.863C384.096 334.473 383.156 334.603 382.586 333.953C381.486 332.703 380.006 331.573 380.526 329.543Z" fill="#813A08"/>
<path d="M326.836 368.353C326.896 368.373 326.956 368.403 327.016 368.423C326.966 368.393 326.906 368.363 326.856 368.333L326.836 368.353Z" fill="#F3963C"/>
<path d="M271.416 365.633C271.276 364.883 271.186 364.123 271.506 363.383C271.966 364.153 272.006 364.903 271.416 365.633Z" fill="#FDD6B2"/>
<path d="M294.346 388.163C294.656 387.883 294.966 387.603 295.276 387.323C295.276 387.953 294.776 388.013 294.346 388.163Z" fill="#D46404"/>
<path d="M293.446 388.613C293.716 388.473 293.986 388.343 294.256 388.203C294.076 388.523 293.796 388.623 293.446 388.613Z" fill="#D46404"/>
<path d="M292.536 389.143C292.816 388.983 293.086 388.813 293.366 388.653C293.216 389.033 292.916 389.163 292.536 389.143Z" fill="#D46404"/>
<path d="M292.096 389.613C292.256 389.443 292.416 389.283 292.576 389.113C292.526 389.393 292.606 389.783 292.096 389.613Z" fill="#813A08"/>
<path d="M295.256 387.343C295.416 387.183 295.576 387.023 295.736 386.873C295.866 387.323 295.636 387.413 295.256 387.343Z" fill="#D46404"/>
<path d="M393.226 325.003C391.356 325.683 389.146 325.963 387.676 327.153C385.446 328.963 383.126 328.193 380.916 328.053C379.366 327.953 378.246 326.103 376.356 326.093C375.946 326.093 375.086 325.003 376.416 324.513C377.066 324.273 377.396 323.863 377.366 323.173C378.366 323.123 378.346 322.453 378.196 321.753C377.606 318.983 376.366 318.643 373.856 320.543C373.206 321.113 373.096 321.893 372.996 322.683C371.846 323.263 370.646 322.803 369.536 322.663C367.346 322.383 365.196 321.793 363.026 321.333C362.456 318.593 364.356 316.663 366.006 315.413C367.966 313.933 369.476 311.843 371.946 310.883C373.086 310.443 373.756 310.663 374.726 310.913C375.456 311.103 376.316 310.823 377.116 310.753C377.346 309.943 376.146 310.223 376.286 309.673C376.456 308.983 377.146 309.283 377.626 309.193C383.636 308.013 389.516 309.043 395.386 310.213C395.506 310.563 395.546 311.123 395.766 311.213C397.916 312.063 399.036 314.143 400.766 315.373C402.246 316.423 402.726 317.893 403.576 319.193C404.176 320.113 403.946 321.133 402.456 321.453C399.786 322.023 397.156 322.763 394.426 323.453C393.906 322.823 394.776 321.533 393.556 321.083L393.666 321.013C393.486 320.593 393.136 320.533 392.736 320.583L392.646 320.623C391.526 319.583 390.006 319.783 388.976 320.213C388.346 320.473 388.176 322.103 388.656 323.283C389.036 324.203 389.556 324.513 390.486 324.563C391.406 324.613 392.446 324.143 393.236 325.013L393.226 325.003ZM377.866 318.233C377.716 318.083 377.566 317.933 377.416 317.783C377.216 316.563 375.406 316.133 375.366 316.203C374.406 317.753 372.616 317.063 371.026 317.743C372.626 318.563 373.936 319.033 375.146 317.913C375.956 317.163 376.656 317.723 377.416 317.783L377.866 318.233C377.926 318.563 377.936 318.943 378.426 318.903C378.476 318.903 378.566 318.813 378.566 318.763C378.576 318.273 378.196 318.273 377.866 318.233ZM388.086 318.963C389.456 317.633 390.866 317.353 392.596 318.163C393.206 318.443 394.066 318.203 394.806 318.163C395.136 318.143 395.356 317.893 395.336 317.573C395.326 317.383 395.146 317.063 395.026 317.053C393.726 316.923 392.516 316.813 391.196 316.283C390.276 315.913 388.516 317.193 388.076 318.963H388.086Z" fill="#FE8A01"/>
<path d="M393.536 321.073C394.006 323.163 392.446 323.623 391.016 324.033C390.176 324.283 389.636 323.623 389.316 322.903C388.996 322.173 389.266 321.593 389.856 321.133C390.686 320.483 391.646 320.463 392.636 320.613L392.726 320.573C392.936 320.943 393.216 321.133 393.656 321.003L393.546 321.073H393.536Z" fill="#813A08"/>
<path d="M276.696 394.923C276.786 394.513 276.956 394.163 277.426 394.073C277.186 394.353 276.936 394.633 276.696 394.923Z" fill="#813A08"/>
<path d="M373.006 322.683C373.106 321.893 373.216 321.103 373.866 320.533C375.616 320.633 377.686 320.303 377.386 323.163C376.106 323.983 374.816 324.023 373.526 323.173C373.326 323.023 373.126 322.863 372.936 322.713L373.016 322.683H373.006Z" fill="#813A08"/>
<path d="M388.086 318.963C388.526 317.193 390.286 315.913 391.206 316.283C392.516 316.813 393.726 316.913 395.036 317.053C395.166 317.063 395.336 317.393 395.346 317.573C395.366 317.893 395.146 318.143 394.816 318.163C394.076 318.203 393.216 318.443 392.606 318.163C390.876 317.363 389.466 317.643 388.096 318.963H388.086Z" fill="#D46404"/>
<path d="M377.416 317.783C376.656 317.723 375.956 317.153 375.146 317.913C373.936 319.033 372.626 318.563 371.026 317.743C372.606 317.063 374.406 317.753 375.366 316.203C375.406 316.143 377.216 316.563 377.416 317.783Z" fill="#D46404"/>
<path d="M377.386 323.163C377.686 320.313 375.626 320.633 373.866 320.533C376.376 318.633 377.616 318.973 378.206 321.743C378.356 322.443 378.376 323.113 377.376 323.163H377.386Z" fill="#F3963C"/>
<path d="M377.866 318.233C378.196 318.283 378.576 318.273 378.566 318.763C378.566 318.813 378.476 318.903 378.426 318.903C377.936 318.933 377.926 318.563 377.866 318.233Z" fill="#D46404"/>
<path d="M393.646 320.993C393.206 321.123 392.926 320.933 392.716 320.563C393.116 320.513 393.466 320.563 393.646 320.993Z" fill="#F3963C"/>
</svg>
