<svg width="339" height="140" viewBox="0 0 339 140" fill="none" xmlns="http://www.w3.org/2000/svg">
<path d="M216.964 95.2054H199.072V99.1848H216.964V95.2054Z" fill="white"/>
<path d="M339 60.3556C339 58.4441 338.652 55.2727 336.729 52.1448V39.8417C336.729 37.209 335.24 34.8022 332.882 33.6206C328.305 31.3355 321.708 31.266 320.977 31.266C314.937 31.266 310.229 32.4216 306.583 34.8109C304.268 36.3314 302.467 38.3211 301.24 40.6845C296.932 34.8544 289.813 31.266 281.267 31.266C273.391 31.266 266.725 34.3157 262.356 39.3551V36.1577C262.356 33.8378 260.468 31.9524 258.144 31.9524H250.556C248.624 31.9524 246.788 32.8125 245.552 34.2983L239.356 41.7445C238.677 42.5612 237.415 42.5612 236.727 41.7445L230.209 33.9073C229.174 32.6648 227.651 31.9524 226.032 31.9524H218.095C215.676 31.9524 213.718 33.9073 213.718 36.3228V39.3551C209.349 34.3157 202.683 31.266 194.807 31.266C186.296 31.266 179.195 34.837 174.878 40.6236V38.9815C174.878 36.8701 173.686 34.9413 171.789 33.9942L171.023 33.6119C166.445 31.3268 159.849 31.2573 159.118 31.2573C153.078 31.2573 148.37 32.4129 144.724 34.8022C140.059 37.852 137.492 42.8566 137.492 48.8779C137.492 50.0769 137.614 51.5366 138.031 53.1092V53.5958C130.669 22.8988 103.012 0.0650024 70.0035 0.0650024C31.338 0.0650024 0 31.3789 0 70C0 108.621 31.338 139.935 70.0035 139.935C103.474 139.935 131.444 116.458 138.353 85.0922L138.406 90.6182V92.2256C138.406 95.1797 140.799 97.5691 143.758 97.5691L162.808 97.5343C162.381 97.8558 161.937 98.2207 161.502 98.6465C160.893 99.2373 160.319 99.8889 159.797 100.593C159.292 101.27 158.839 101.983 158.448 102.704C158.004 103.521 157.656 104.338 157.421 105.128C157.064 106.301 156.968 107.457 157.116 108.56C157.395 110.567 158.561 112.262 160.319 113.209C161.154 113.669 162.112 113.93 163.086 113.956C163.869 114.894 164.949 115.555 166.21 115.841C166.672 115.946 167.142 115.998 167.612 115.998C168.186 115.998 168.76 115.92 169.326 115.763C170.248 115.511 171.093 115.077 171.815 114.477C172.215 114.147 172.572 113.756 172.859 113.339C173.669 113.226 174.487 113.009 175.296 112.679C175.966 112.409 176.645 112.07 177.315 111.671C177.759 111.41 178.194 111.123 178.62 110.828C179.029 112.114 179.699 113.226 180.604 114.147C181.979 115.555 183.798 116.38 185.87 116.536C186.087 116.554 186.313 116.562 186.531 116.562C188.045 116.562 189.612 116.189 191.317 115.407C192.327 114.946 193.38 114.329 194.511 113.539C195.268 113.799 196.069 113.93 196.904 113.93H196.991C197.052 113.93 197.113 113.93 197.165 113.93H197.253C198.097 113.869 198.932 113.678 199.724 113.365C200.177 113.521 200.655 113.626 201.151 113.678H201.195C201.195 113.678 201.264 113.687 201.29 113.695H201.334C201.491 113.713 201.647 113.713 201.795 113.713C203.083 113.713 204.31 113.313 205.355 112.574C205.65 112.818 205.972 113.026 206.312 113.217C207.147 113.678 208.105 113.938 209.079 113.965C209.863 114.903 210.942 115.563 212.204 115.85C212.665 115.954 213.135 116.006 213.605 116.006C214.179 116.006 214.753 115.928 215.319 115.772C215.972 115.589 216.59 115.32 217.147 114.964C217.799 115.39 218.513 115.676 219.261 115.824C219.714 115.911 220.166 115.954 220.61 115.954C221.437 115.954 222.229 115.807 222.977 115.511C223.526 115.303 224.039 115.007 224.492 114.66C225.501 114.66 226.972 114.416 228.477 113.365C228.756 113.4 229.034 113.417 229.321 113.417C229.635 113.417 229.948 113.4 230.261 113.356C230.714 113.304 231.175 113.209 231.628 113.078C232.454 113.469 233.342 113.669 234.265 113.669C234.595 113.669 234.935 113.643 235.274 113.591C236.153 113.452 237.354 113.07 238.459 112.044C239.06 112.514 239.765 112.87 240.53 113.096C241.105 113.269 241.784 113.374 242.454 113.374C243.62 113.374 244.751 113.087 245.839 112.514C245.856 112.505 245.882 112.488 245.9 112.479C246.605 112.731 247.344 112.852 248.102 112.852C249.363 112.852 250.617 112.505 251.844 111.827C252.505 112.409 253.306 112.844 254.193 113.104C254.776 113.278 255.447 113.382 256.117 113.382C257.283 113.382 258.414 113.096 259.502 112.522C259.519 112.514 259.546 112.496 259.563 112.488C260.268 112.739 261.008 112.861 261.765 112.861C263.027 112.861 264.28 112.514 265.507 111.836C265.611 114.095 266.673 115.954 268.553 117.04C269.536 117.614 270.676 117.918 271.834 117.918C273.139 117.918 274.436 117.544 275.689 116.797C276.489 116.328 277.273 115.685 278.091 114.833C278.674 115.164 279.318 115.398 279.988 115.511C280.31 115.563 280.641 115.589 280.963 115.589C281.572 115.589 282.181 115.494 282.764 115.311C283.26 115.155 283.739 114.938 284.2 114.668C285.07 115.85 286.402 116.675 287.968 116.919C288.307 116.971 288.647 116.997 288.995 116.997C289.709 116.997 290.422 116.884 291.11 116.658C292.093 116.337 292.955 115.833 293.694 115.146C294.295 114.59 294.756 113.93 295.069 113.209C295.687 113.07 296.288 112.835 296.88 112.522C296.897 112.514 296.923 112.496 296.94 112.488C297.541 112.696 298.159 112.818 298.794 112.852C298.881 112.905 298.977 112.957 299.064 113C299.943 113.452 300.891 113.678 301.892 113.678C302.223 113.678 302.562 113.652 302.902 113.6C303.972 113.426 305.521 112.887 306.818 111.28C306.844 111.245 306.879 111.21 306.905 111.176C307.175 111.21 307.453 111.228 307.74 111.228C308.741 111.228 309.742 111.019 310.804 110.593C312.1 110.072 313.327 109.229 314.563 108.013C315.773 106.796 316.156 105.502 316.269 104.633C316.408 103.486 316.208 102.357 315.686 101.375V100.358C315.686 99.2634 315.425 98.2294 314.972 97.3084L325.276 97.291C332.577 95.8835 337.912 89.7927 337.912 82.2771C337.912 78.5844 336.624 75.2479 334.457 72.624C336.842 70.1216 338.974 66.2552 338.974 60.3903L339 60.3556Z" fill="white"/>
<path d="M82.0564 59.0523C83.1877 59.3303 84.3452 59.4085 85.5026 59.4607C87.8784 59.5649 90.2629 59.5041 92.6474 59.478C93.8397 59.4607 95.0232 59.3998 96.2155 59.478C97.3207 59.5475 98.3824 59.7995 99.3919 60.2513C102.229 61.5286 104.057 63.7529 105.24 66.5593C105.362 66.846 105.44 67.1588 105.597 67.4282C105.928 68.0016 106.554 68.0537 106.998 67.5411C107.137 67.376 107.25 67.1849 107.346 66.985C108.286 65.1691 109.461 63.5096 110.818 61.9891C111.871 60.8074 113.107 59.8603 114.569 59.2261C116.597 58.3485 118.59 58.4267 120.539 59.4607C121.261 59.843 121.94 60.3035 122.506 60.8856C123.315 61.711 124.255 62.2932 125.308 62.7276C125.717 62.8927 126.109 63.0751 126.509 63.2663C126.762 63.3879 127.014 63.5269 127.249 63.6747C127.58 63.8832 127.484 64.1612 127.214 64.335C126.97 64.4914 126.674 64.4914 126.405 64.5609C123.576 65.2473 121.401 66.7939 120.061 69.4179C119.73 70.0608 119.46 70.7212 119.277 71.4249C118.86 73.0236 118.442 74.6311 118.024 76.2298C117.894 76.5165 117.754 76.7945 117.633 77.0813C116.91 78.7321 115.953 80.2265 114.691 81.5125C112.35 83.9105 109.47 85.2312 106.197 85.796C105.022 85.9958 103.839 86.0914 102.673 86.3694C98.6957 87.3426 95.9457 89.6972 94.4837 93.5376C94.3183 93.9807 94.3009 94.3195 94.6229 94.7366C96.0153 96.5873 97.46 98.3945 99.0525 100.089C100.367 101.479 101.716 102.826 103.299 103.921C106.589 106.206 110.183 106.979 114.099 106.127C115.196 105.884 116.284 105.563 117.38 105.319C117.937 105.198 118.329 104.963 118.659 104.485C120.635 101.661 122.402 98.7073 123.881 95.5968C125.578 92.0257 126.927 88.3331 127.867 84.4927C127.91 84.345 127.971 84.1973 128.006 84.0496C128.911 80.4611 129.424 76.8032 129.599 73.1105C129.755 69.861 129.668 66.6027 129.303 63.3619C128.859 59.4954 128.093 55.6985 126.883 52.0058C122.645 38.9989 114.882 28.5812 103.587 20.8483C93.8136 14.158 82.9267 10.8129 71.0912 10.5348C68.8633 10.4827 66.6441 10.6217 64.425 10.8129C62.1101 11.0127 59.8213 11.3603 57.5587 11.8555C46.898 14.1667 37.5514 19.0237 29.5538 26.4177C22.0696 33.3426 16.7262 41.6663 13.4801 51.3194C13.3844 51.6148 13.2365 51.8928 13.2539 52.223C13.5062 52.1709 13.5933 51.945 13.7238 51.7799C16.2388 48.5825 19.337 46.0801 22.9398 44.1947C23.1922 44.0644 23.4272 43.9167 23.7144 43.8645C23.9145 43.8298 24.0973 43.8645 24.2191 44.0383C24.3148 44.1773 24.28 44.3424 24.193 44.4814C23.9841 44.829 23.7492 45.1678 23.5577 45.5241C22.3655 47.731 21.4082 50.0422 20.5814 52.4142C20.5292 52.5619 20.4857 52.7096 20.5727 52.866C20.6249 52.8399 20.6946 52.8225 20.7294 52.7791C20.8686 52.5706 20.9904 52.3533 21.121 52.1361C22.2349 50.2507 23.4098 48.4 24.837 46.7231C28.0569 42.9175 32.1558 40.8061 37.1076 40.3891C40.0839 40.1371 43.0602 40.3022 46.0103 40.7887C48.7952 41.2492 51.5278 41.9183 54.243 42.7002C58.7944 44.0122 63.2414 45.6109 67.6362 47.3747C69.4377 48.0959 71.2304 48.8518 73.0231 49.5817C73.2929 49.6946 73.554 49.7902 73.6236 50.1117C73.4583 50.3723 73.1711 50.4158 72.9013 50.5113C71.3348 51.0587 69.7945 51.6756 68.2976 52.3968C61.6315 55.6029 56.2968 60.3035 52.3458 66.5506C51.6757 67.6106 51.0578 68.6967 50.4225 69.7741C49.3173 71.6335 48.1164 73.432 46.7152 75.0829C45.2445 76.8119 43.5997 78.3411 41.7026 79.5923C39.1788 81.2605 36.3853 82.2336 33.4351 82.7897C30.9375 83.2676 28.4137 83.5022 25.8813 83.7454C24.4454 83.8845 23.0094 84.0148 21.5822 84.1799C18.9018 84.4927 16.2562 85.0053 13.6368 85.6309C12.4706 85.9089 12.5925 85.7438 12.9319 86.8994C14.6376 92.6774 17.17 98.0644 20.5292 103.069C20.7555 103.408 20.9904 103.738 21.2254 104.068C21.3821 104.277 21.5213 104.294 21.6867 104.12C21.9042 103.894 22.1218 103.669 22.3306 103.434C23.4881 102.07 24.6368 100.706 25.7856 99.3416C27.4652 97.3345 29.3275 95.5359 31.5641 94.1545C33.5396 92.938 35.6717 92.1561 37.9605 91.8172C39.9621 91.5218 41.9549 91.6174 43.9565 91.9302C45.0095 92.0952 46.0713 92.1821 47.1417 92.13C49.9178 91.991 52.5025 91.2264 54.887 89.7927C57.0626 88.4894 58.8988 86.7952 60.5697 84.9184C61.5879 83.7715 62.5974 82.6159 63.6156 81.469C64.9297 79.992 66.296 78.567 67.7668 77.255C68.9851 76.1602 70.3166 75.2219 71.8483 74.605C74.372 73.5884 76.861 73.6579 79.3064 74.883C80.8728 75.665 82.1869 76.7598 83.3705 78.0283C84.8151 79.5662 86.0422 81.2605 87.1561 83.0417C87.8175 84.1017 88.4615 85.1791 89.1229 86.2391C89.2969 86.5171 89.3666 86.5345 89.6537 86.3955C91.5161 85.4832 93.4481 84.762 95.3713 83.9887C97.547 83.1112 99.7313 82.2423 101.794 81.0954C105.954 78.7929 109.243 75.6216 111.489 71.4076C111.706 71.0079 111.932 70.6082 112.002 70.1303C109.104 73.5363 105.771 76.3862 101.829 78.4975C98.0517 80.522 91.6814 82.4595 89.0794 82.3379C89.8104 81.8253 90.5414 81.469 91.2202 81.0433C91.9338 80.5915 92.6648 80.157 93.3697 79.6965C94.0485 79.2534 94.7273 78.7929 95.3887 78.3237C96.0762 77.8285 96.7463 77.3158 97.4077 76.7945C98.0343 76.2993 98.6783 75.8127 99.2788 75.1002C99.0351 75.1437 98.9133 75.1611 98.8001 75.1871C97.1118 75.5434 95.4148 75.8388 93.683 75.8909C92.1775 75.9343 90.6719 75.8909 89.1925 75.5607C86.0596 74.883 83.5445 73.2235 81.5865 70.7212C81.1252 70.1303 80.7249 69.4874 80.3072 68.8705C80.2115 68.7315 80.0374 68.5577 80.1853 68.3839C80.2985 68.2536 80.4812 68.3665 80.6292 68.41C81.2558 68.6011 81.8823 68.801 82.5176 68.9834C84.5714 69.5829 86.6601 69.9652 88.8183 69.8697C90.2629 69.8088 91.6989 69.6785 93.1174 69.4265C94.4489 69.192 95.7368 68.801 96.9378 68.158C97.0944 68.0798 97.2859 68.0364 97.3381 67.7583C97.0248 67.7496 96.7289 67.7236 96.433 67.7236C94.3009 67.7236 92.1688 67.7496 90.0367 67.7236C88.3397 67.6975 86.6514 67.5672 84.9979 67.2022C82.3784 66.6201 80.0026 65.5514 78.0271 63.7094C75.6948 61.5286 74.0761 58.9567 73.6671 55.7245C73.6497 55.6116 73.5975 55.4639 73.7454 55.4117C73.8151 55.3857 73.9282 55.4378 73.9978 55.4813C74.2241 55.6463 74.4417 55.8288 74.6679 55.9939C76.8784 57.6187 79.3325 58.6526 82.0564 59.0523ZM94.6925 124.209C94.4489 124.078 94.3531 124.009 94.24 123.965C92.952 123.453 91.9425 122.575 91.0897 121.515C90.4979 120.785 89.9931 119.995 89.5493 119.16C88.2787 116.806 87.3824 114.303 86.5904 111.766C85.4939 108.239 84.7194 104.633 83.9449 101.018C83.414 98.5422 82.9092 96.0573 82.2392 93.6158C81.7257 91.7738 81.0817 89.9752 80.0461 88.3504C79.1846 86.9863 78.1664 85.7612 76.7826 84.8923C74.9029 83.7107 72.9622 83.6064 70.9693 84.5969C70.6038 84.7794 70.2644 84.9966 69.925 85.2225C69.2636 85.657 68.7066 86.1956 68.1497 86.7604C67.1315 87.7857 66.2177 88.8978 65.2865 90.0013C63.8941 91.6608 62.3973 93.2161 60.6568 94.5194C56.523 97.6125 51.902 98.8724 46.7762 98.2555C45.5665 98.1078 44.3481 97.9862 43.1211 97.9601C39.2833 97.8558 35.6456 98.6117 32.2603 100.454C30.7373 101.279 29.3449 102.278 28.0395 103.417C26.6471 104.642 25.4549 106.058 24.1495 107.37C24.0015 107.526 23.9493 107.683 24.106 107.856C24.1843 107.952 24.2626 108.048 24.3409 108.152C26.0205 110.185 27.8394 112.079 29.78 113.86C35.5063 119.1 42.0072 123.096 49.2825 125.825C55.383 128.101 61.6924 129.3 68.1932 129.543C69.8815 129.604 71.5698 129.578 73.2668 129.474C74.9899 129.37 76.7043 129.231 78.41 128.987C83.7447 128.231 88.8879 126.789 93.831 124.643C94.0834 124.53 94.3357 124.4 94.7012 124.226L94.6925 124.209ZM41.6329 54.4039C41.4415 54.4386 41.2239 54.456 41.0238 54.5168C39.6401 54.9252 38.2476 55.2988 36.89 55.7593C30.9549 57.7577 25.5158 60.6597 20.6859 64.6565C16.9699 67.7323 13.8021 71.3033 11.1217 75.3175C10.8868 75.6737 10.7649 76.0126 10.8171 76.447C11.0608 78.4019 11.348 80.3482 11.7483 82.2771C11.7744 82.3987 11.8005 82.5203 11.844 82.642C11.8876 82.7376 11.844 82.9113 12.0268 82.9026C12.2531 82.7984 12.314 82.5725 12.4097 82.3813C13.2713 80.7826 14.2285 79.2447 15.2293 77.7242C18.5537 72.6848 22.3829 68.0798 26.9082 64.0656C31.1551 60.3035 35.8196 57.1842 41.0586 54.9599C41.2326 54.8904 41.3893 54.7862 41.5459 54.6819C41.6155 54.6385 41.6939 54.5603 41.6242 54.4039H41.6329Z" fill="#FEFFFF"/>
<path d="M118.033 76.2298C118.45 74.6311 118.868 73.0237 119.286 71.4249C119.469 70.7212 119.738 70.0608 120.069 69.4179C121.409 66.7939 123.585 65.2473 126.413 64.5609C126.683 64.4914 126.979 64.4914 127.223 64.335C127.501 64.1612 127.597 63.8745 127.257 63.6747C127.014 63.527 126.77 63.3879 126.518 63.2663C126.126 63.0751 125.726 62.8927 125.317 62.7276C124.264 62.2932 123.315 61.7023 122.514 60.8856C121.94 60.3035 121.27 59.843 120.548 59.4607C118.598 58.4267 116.605 58.3485 114.578 59.2261C113.116 59.8603 111.88 60.8074 110.827 61.9891C109.469 63.5096 108.294 65.1691 107.355 66.985C107.259 67.1762 107.146 67.376 107.007 67.5411C106.563 68.0451 105.936 68.0016 105.605 67.4282C105.449 67.1588 105.37 66.8547 105.249 66.5593C104.065 63.7442 102.237 61.5286 99.4005 60.2513C98.391 59.7995 97.3292 59.5475 96.224 59.478C95.0318 59.3998 93.8395 59.4607 92.656 59.478C90.2715 59.5128 87.8957 59.5736 85.5112 59.4607C84.3537 59.4085 83.1963 59.339 82.0649 59.0523C81.9779 58.8525 81.9257 58.6352 81.8039 58.4528C80.8466 57.08 80.0459 55.5942 78.9668 54.2996C78.4534 53.6827 77.9747 53.0224 77.3829 52.4663C77.0174 52.1187 76.6171 51.832 76.2342 51.5192C75.4597 50.8763 74.6155 50.3723 73.6321 50.1117C73.5625 49.7902 73.2927 49.6859 73.0317 49.5817C71.2302 48.8431 69.4462 48.0959 67.6448 47.3747C63.25 45.6196 58.803 44.0209 54.2515 42.7002C51.5363 41.9183 48.8037 41.2492 46.0189 40.7887C43.0687 40.3022 40.0924 40.1371 37.1161 40.3891C32.1644 40.8061 28.0655 42.9262 24.8455 46.7231C23.427 48.4 22.2434 50.2507 21.1295 52.1361C20.999 52.3533 20.8771 52.5706 20.7379 52.7791C20.7118 52.8225 20.6335 52.8399 20.5813 52.866C20.4942 52.7183 20.5377 52.5619 20.59 52.4142C21.4167 50.0508 22.374 47.7397 23.5662 45.5241C23.7577 45.1678 23.9927 44.829 24.2015 44.4814C24.2886 44.3424 24.3147 44.1773 24.2276 44.0383C24.1145 43.8732 23.923 43.8385 23.7229 43.8645C23.4357 43.908 23.2007 44.0644 22.9484 44.1947C19.3455 46.0801 16.2474 48.5825 13.7323 51.7799C13.6018 51.945 13.5235 52.1709 13.2624 52.223C13.245 51.8928 13.3929 51.6148 13.4887 51.3194C16.7347 41.6576 22.0781 33.3339 29.5623 26.4177C37.56 19.015 46.9065 14.1667 57.5672 11.8555C59.8299 11.3603 62.1273 11.0214 64.4335 10.8129C66.6527 10.6217 68.8718 10.4827 71.0997 10.5348C82.9352 10.8129 93.8221 14.158 103.595 20.8483C114.891 28.5812 122.654 38.9989 126.892 52.0058C128.093 55.7072 128.867 59.4954 129.311 63.3619C129.685 66.6027 129.764 69.8523 129.607 73.1105C129.433 76.8032 128.92 80.4611 128.015 84.0496C127.98 84.1973 127.919 84.345 127.875 84.4927C127.823 84.4666 127.745 84.4579 127.71 84.4145C127.066 83.5369 126.413 82.6767 125.708 81.8513C124.664 80.6436 123.55 79.5315 122.192 78.68C122.036 78.5844 121.87 78.4801 121.74 78.3498C121.496 78.0978 121.2 77.9414 120.913 77.7503C119.991 77.1595 118.99 76.7337 118.024 76.2211L118.033 76.2298Z" fill="#03CD9C"/>
<path d="M94.6923 124.209C94.3268 124.382 94.0831 124.513 93.8221 124.626C88.879 126.772 83.7358 128.214 78.4011 128.97C76.6954 129.213 74.981 129.352 73.2579 129.456C71.5696 129.561 69.8726 129.595 68.1843 129.526C61.6835 129.283 55.3741 128.084 49.2736 125.807C41.9983 123.088 35.4974 119.082 29.7711 113.843C27.8305 112.062 26.0116 110.168 24.332 108.135C24.2537 108.039 24.1754 107.935 24.0971 107.839C23.9404 107.657 23.9926 107.5 24.1406 107.353C25.4373 106.041 26.6295 104.624 28.0306 103.399C29.3273 102.261 30.7284 101.262 32.2514 100.436C35.6367 98.5944 39.2743 97.8385 43.1122 97.9427C44.3392 97.9775 45.5489 98.0991 46.7673 98.2381C51.9018 98.855 56.5229 97.5865 60.6479 94.502C62.3884 93.1987 63.8852 91.6434 65.2776 89.9839C66.2088 88.8805 67.1226 87.7683 68.1408 86.743C68.689 86.187 69.2547 85.6396 69.9161 85.2052C70.2555 84.9792 70.6036 84.762 70.9604 84.5796C72.9533 83.5891 74.894 83.6933 76.7737 84.875C78.1574 85.7439 79.1669 86.9689 80.0372 88.3331C81.0728 89.9578 81.7255 91.7564 82.2302 93.5984C82.909 96.0399 83.4051 98.5249 83.9359 101.001C84.7105 104.607 85.4937 108.221 86.5815 111.749C87.3735 114.295 88.2698 116.788 89.5404 119.143C89.9842 119.968 90.489 120.759 91.0808 121.498C91.9423 122.558 92.9431 123.444 94.2311 123.948C94.3442 123.991 94.4487 124.061 94.6836 124.191L94.6923 124.209Z" fill="#01A9BE"/>
<path d="M73.6323 50.1118C74.6157 50.3724 75.4598 50.885 76.2344 51.5193C76.6173 51.8321 77.0176 52.1275 77.3831 52.4664C77.9749 53.0225 78.4535 53.6828 78.967 54.2997C80.0461 55.5856 80.8467 57.0714 81.804 58.4529C81.9258 58.6266 81.9781 58.8525 82.0651 59.0524C79.3499 58.6527 76.8871 57.6188 74.6766 55.994C74.4503 55.8289 74.2328 55.6464 74.0065 55.4813C73.9369 55.4292 73.8237 55.3858 73.7541 55.4118C73.6062 55.464 73.6584 55.6117 73.6758 55.7246C74.0848 58.9568 75.7035 61.5373 78.0358 63.7095C80.0113 65.5515 82.3871 66.6202 85.0066 67.2023C86.6687 67.5673 88.357 67.7063 90.0453 67.7237C92.1775 67.7497 94.3096 67.7237 96.4417 67.7237C96.7376 67.7237 97.0422 67.741 97.3468 67.7584C97.2946 68.0365 97.0944 68.0799 96.9465 68.1581C95.7455 68.7924 94.4575 69.1834 93.1261 69.4266C91.7075 69.6786 90.2716 69.8002 88.827 69.8698C86.6687 69.9653 84.5801 69.583 82.5263 68.9835C81.891 68.8011 81.2645 68.6012 80.6379 68.4101C80.4899 68.3666 80.3072 68.2537 80.194 68.384C80.0461 68.5578 80.2201 68.7315 80.3159 68.8706C80.7336 69.4961 81.1339 70.1391 81.5951 70.7212C83.5619 73.2236 86.0683 74.8831 89.2012 75.5608C90.6806 75.8823 92.1775 75.9344 93.6917 75.891C95.4235 75.8389 97.1205 75.5434 98.8088 75.1872C98.9307 75.1611 99.0438 75.1438 99.2875 75.1003C98.687 75.8128 98.043 76.2907 97.4164 76.7946C96.755 77.3246 96.0849 77.8372 95.3974 78.3238C94.736 78.8017 94.0572 79.2535 93.3784 79.6966C92.6735 80.1571 91.9425 80.5916 91.2289 81.0434C90.5501 81.4691 89.8191 81.8253 89.0881 82.338C91.6901 82.4596 98.0604 80.5134 101.837 78.4976C105.78 76.3862 109.121 73.5364 112.011 70.1304C111.941 70.6083 111.715 71.008 111.497 71.4076C109.261 75.6303 105.962 78.793 101.803 81.0955C99.74 82.2337 97.5644 83.1113 95.38 83.9888C93.4654 84.7621 91.5248 85.4833 89.6624 86.3956C89.3752 86.5346 89.3056 86.5172 89.1316 86.2392C88.4702 85.1792 87.8262 84.1018 87.1648 83.0418C86.0509 81.2606 84.8151 79.5663 83.3792 78.0284C82.1956 76.7685 80.8728 75.6651 79.3151 74.8831C76.8696 73.658 74.3807 73.5885 71.857 74.6051C70.3253 75.222 69.0025 76.1603 67.7755 77.2551C66.3047 78.5671 64.9384 79.992 63.6243 81.4691C62.6061 82.616 61.5966 83.7716 60.5784 84.9185C58.8988 86.7953 57.0713 88.4895 54.8957 89.7928C52.5024 91.2178 49.9265 91.9911 47.1504 92.1301C46.0799 92.1822 45.0182 92.0953 43.9652 91.9302C41.9723 91.6175 39.9794 91.5219 37.9692 91.8173C35.6804 92.1562 33.5482 92.9381 31.5728 94.1545C29.3362 95.536 27.4739 97.3346 25.7943 99.3417C24.6455 100.706 23.4968 102.07 22.3393 103.434C22.1392 103.669 21.9216 103.903 21.6953 104.12C21.53 104.286 21.3821 104.277 21.2341 104.068C20.9904 103.738 20.7642 103.408 20.5379 103.069C17.1874 98.0644 14.6463 92.6775 12.9406 86.8995C12.6012 85.7439 12.4793 85.909 13.6455 85.631C16.2649 85.0054 18.9105 84.4928 21.5909 84.18C23.0181 84.0149 24.4541 83.8846 25.89 83.7455C28.4137 83.4936 30.9462 83.2677 33.4438 82.7898C36.394 82.225 39.1875 81.2606 41.7113 79.5924C43.6084 78.3412 45.2532 76.8033 46.7239 75.0829C48.1338 73.4321 49.3347 71.6422 50.4312 69.7742C51.0665 68.6968 51.6844 67.6107 52.3545 66.5507C56.3055 60.3035 61.6401 55.603 68.3063 52.3969C69.8032 51.6757 71.3435 51.0588 72.91 50.5114C73.1798 50.4159 73.4582 50.3724 73.6323 50.1118Z" fill="#01A9BE"/>
<path d="M118.032 76.2297C118.99 76.7424 119.999 77.1681 120.922 77.7589C121.209 77.9414 121.505 78.1065 121.748 78.3585C121.879 78.4888 122.044 78.5844 122.201 78.6886C123.559 79.5401 124.673 80.6523 125.717 81.86C126.43 82.6854 127.074 83.5456 127.718 84.4231C127.753 84.4666 127.832 84.4753 127.884 84.5013C126.953 88.3417 125.604 92.0344 123.898 95.6054C122.41 98.716 120.652 101.67 118.676 104.494C118.346 104.972 117.954 105.206 117.397 105.328C116.301 105.563 115.213 105.893 114.116 106.136C110.191 106.988 106.597 106.214 103.316 103.929C101.741 102.826 100.384 101.488 99.0696 100.097C97.477 98.4119 96.0324 96.6046 94.64 94.7453C94.3267 94.3282 94.3354 93.9893 94.5007 93.5462C95.9627 89.7058 98.7128 87.3512 102.69 86.3781C103.847 86.0914 105.04 86.0045 106.214 85.8046C109.478 85.2399 112.367 83.9192 114.708 81.5211C115.97 80.2265 116.936 78.7408 117.65 77.0899C117.771 76.8032 117.911 76.5251 118.041 76.2384L118.032 76.2297Z" fill="#01A9BE"/>
<path d="M41.633 54.4038C41.7027 54.5689 41.633 54.6384 41.5547 54.6818C41.3981 54.7861 41.2414 54.8817 41.0674 54.9599C35.8284 57.1842 31.1638 60.3034 26.917 64.0656C22.3916 68.0798 18.5538 72.6847 15.2381 77.7242C14.2373 79.236 13.2801 80.7826 12.4185 82.3813C12.3141 82.5637 12.2619 82.7983 12.0356 82.9026C11.8528 82.9026 11.8963 82.7375 11.8528 82.6419C11.8093 82.529 11.7745 82.3987 11.7571 82.277C11.3655 80.3481 11.0696 78.4019 10.8259 76.4469C10.7737 76.0125 10.8955 75.6649 11.1305 75.3174C13.8109 71.3119 16.9786 67.7409 20.6946 64.6564C25.5246 60.6509 30.9724 57.7576 36.8988 55.7592C38.2651 55.2987 39.6576 54.9251 41.0326 54.5168C41.2327 54.4559 41.4503 54.4386 41.6417 54.4038H41.633Z" fill="#03CD9C"/>
<path d="M144.881 69.1831V60.0774H145.481C147.517 61.3286 151.869 62.7101 155.707 62.7101C157.282 62.7101 159.457 62.6145 159.457 61.1374C159.457 58.7828 156.307 59.3389 152.052 57.9053C147.561 56.3848 144.463 53.6565 144.463 48.8951C144.463 41.084 150.476 38.2255 159.135 38.2255C161.45 38.2255 165.619 38.686 167.925 39.8416V48.8951H167.325C165.288 47.6961 160.711 46.6795 157.882 46.6795C156.168 46.6795 155.15 46.9141 155.15 48.3391C155.15 49.9551 157.743 50.1376 159.64 50.5112C165.61 51.7103 170.188 54.621 170.188 60.3555C170.188 68.3925 164.54 71.4943 155.75 71.4943C152.278 71.4943 147.561 70.4777 144.872 69.1831H144.881Z" fill="#03CD9C"/>
<path d="M177.367 54.6731C177.367 44.7854 184.73 38.2255 194.816 38.2255C204.902 38.2255 212.265 44.7854 212.265 54.6731C212.265 64.5608 204.859 71.4422 194.816 71.4422C184.773 71.4422 177.367 64.6477 177.367 54.6731ZM201.76 54.6731C201.76 50.3288 198.941 47.1922 194.816 47.1922C190.691 47.1922 187.871 50.3374 187.871 54.6731C187.871 59.0087 190.743 62.4842 194.816 62.4842C198.889 62.4842 201.76 59.1999 201.76 54.6731Z" fill="#03CD9C"/>
<path d="M225.318 38.9205L237.815 53.9345H238.276L250.773 38.9205H255.403V70.7557H245.917V58.6003H245.456L238.285 66.2202H237.824L230.653 58.6003H230.192V70.7557H220.706V38.9205H225.336H225.318Z" fill="#03CD9C"/>
<path d="M263.818 54.6731C263.818 44.7854 271.181 38.2255 281.267 38.2255C291.353 38.2255 298.716 44.7854 298.716 54.6731C298.716 64.5608 291.31 71.4422 281.267 71.4422C271.224 71.4422 263.818 64.6477 263.818 54.6731ZM288.212 54.6731C288.212 50.3288 285.392 47.1922 281.267 47.1922C277.142 47.1922 274.322 50.3374 274.322 54.6731C274.322 59.0087 277.194 62.4842 281.267 62.4842C285.34 62.4842 288.212 59.1999 288.212 54.6731Z" fill="#03CD9C"/>
<path d="M306.722 69.1831V60.0774H307.322C309.359 61.3286 313.71 62.7101 317.548 62.7101C319.123 62.7101 321.299 62.6145 321.299 61.1374C321.299 58.7828 318.148 59.3389 313.893 57.9053C309.402 56.3848 306.304 53.6565 306.304 48.8951C306.304 41.084 312.318 38.2255 320.977 38.2255C323.292 38.2255 327.46 38.686 329.766 39.8416V48.8951H329.166C327.129 47.6961 322.552 46.6795 319.724 46.6795C318.009 46.6795 316.991 46.9141 316.991 48.3391C316.991 49.9551 319.584 50.1376 321.481 50.5112C327.451 51.7103 332.029 54.621 332.029 60.3555C332.029 68.3925 326.381 71.4943 317.591 71.4943C314.119 71.4943 309.402 70.4777 306.713 69.1831H306.722Z" fill="#03CD9C"/>
<path d="M145.367 73.8492H153.217C156.533 73.8492 158.752 75.6478 158.752 78.6193C158.752 80.2962 157.83 81.6343 157.072 81.9818V82.2251C158.291 82.4945 159.318 83.763 159.318 85.7093C159.318 88.6808 157.072 90.627 153.661 90.627H145.367V73.8492ZM152.121 80.5395C152.904 80.5395 153.487 80.2007 153.487 79.1754C153.487 78.1501 152.826 77.8634 151.999 77.8634H150.363V80.5395H152.121ZM152.651 86.6042C153.504 86.6042 154.261 86.3348 154.261 85.0663C154.261 84.0237 153.53 83.7282 152.651 83.7282H150.363V86.6042H152.651Z" fill="#03CD9C"/>
<path d="M161.041 73.8492H166.28V90.627H161.041V73.8492Z" fill="#03CD9C"/>
<path d="M168.038 82.1469C168.038 76.9337 171.919 73.4756 177.228 73.4756C182.537 73.4756 186.418 76.9337 186.418 82.1469C186.418 87.3601 182.519 90.9832 177.228 90.9832C171.937 90.9832 168.038 87.4035 168.038 82.1469ZM180.892 82.1469C180.892 79.8617 179.404 78.2022 177.237 78.2022C175.07 78.2022 173.582 79.8617 173.582 82.1469C173.582 84.432 175.096 86.2653 177.237 86.2653C179.378 86.2653 180.892 84.5362 180.892 82.1469Z" fill="#03CD9C"/>
<path d="M188.185 73.8492H194.842C200.107 73.8492 203.771 77.6201 203.771 82.2512C203.771 86.8822 200.116 90.627 194.842 90.627H188.185V73.8492ZM194.912 85.7266C196.913 85.7266 198.227 84.1714 198.227 82.2425C198.227 80.3136 196.913 78.741 194.912 78.741H193.424V85.7266H194.912Z" fill="#01A9BE"/>
<path d="M205.52 73.8492H210.759V90.627H205.52V73.8492Z" fill="#01A9BE"/>
<path d="M211.638 73.8661H217.077L220.567 82.0943H220.81L224.3 73.8661H229.739L221.916 90.6179H219.479L211.655 73.8661H211.638Z" fill="#01A9BE"/>
<path d="M230.609 73.8492H241.653V77.7939H235.848V80.4005H240.992V84.0758H235.848V86.6824H241.653V90.627H230.609V73.8492Z" fill="#01A9BE"/>
<path d="M258.066 90.6182H252.14L249.799 85.0227H248.876V90.6182H243.733V73.8404H250.756C255.194 73.8404 257.265 75.9604 257.265 79.488C257.265 81.4603 256.143 83.0938 254.75 84.0409L258.066 90.6182ZM252.166 79.6618C252.166 78.5149 251.461 78.2021 250.556 78.2021H248.876V81.0954H250.556C251.461 81.0954 252.166 80.5393 252.166 79.6618Z" fill="#01A9BE"/>
<path d="M259.119 89.7923V84.9962H259.432C260.503 85.6565 262.8 86.3864 264.819 86.3864C265.646 86.3864 266.795 86.3343 266.795 85.561C266.795 84.3185 265.133 84.6139 262.896 83.858C260.529 83.0586 258.893 81.6163 258.893 79.114C258.893 74.9956 262.061 73.4924 266.621 73.4924C267.839 73.4924 270.032 73.7357 271.25 74.3439V79.114H270.937C269.867 78.4797 267.447 77.9497 265.959 77.9497C265.054 77.9497 264.523 78.0714 264.523 78.8273C264.523 79.6788 265.89 79.7743 266.89 79.9742C270.032 80.6084 272.451 82.1376 272.451 85.1613C272.451 89.4014 269.475 91.0261 264.845 91.0261C263.018 91.0261 260.529 90.4874 259.119 89.8097V89.7923Z" fill="#01A9BE"/>
<path d="M274.183 73.8492H279.422V90.627H274.183V73.8492Z" fill="#01A9BE"/>
<path d="M281.815 73.8492H288.472C293.737 73.8492 297.401 77.6201 297.401 82.2512C297.401 86.8822 293.746 90.627 288.472 90.627H281.815V73.8492ZM288.551 85.7266C290.552 85.7266 291.866 84.1714 291.866 82.2425C291.866 80.3136 290.552 78.741 288.551 78.741H287.063V85.7266H288.551Z" fill="#01A9BE"/>
<path d="M308.419 89.0887H302.519L301.858 90.6266H296.418L304.242 73.8749H306.679L314.502 90.6266H309.063L308.402 89.0887H308.419ZM306.862 85.3873L305.591 82.3898H305.347L304.077 85.3873H306.853H306.862Z" fill="#01A9BE"/>
<path d="M315.39 73.8492H322.047C327.312 73.8492 330.976 77.6201 330.976 82.2512C330.976 86.8822 327.321 90.627 322.047 90.627H315.39V73.8492ZM322.126 85.7266C324.127 85.7266 325.441 84.1714 325.441 82.2425C325.441 80.3136 324.127 78.741 322.126 78.741H320.638V85.7266H322.126Z" fill="#01A9BE"/>
<path d="M168.204 104.129C167.969 104.433 167.707 104.781 167.42 105.154C167.133 105.528 166.829 105.91 166.515 106.284C166.202 106.657 165.871 107.022 165.532 107.361C165.192 107.709 164.862 107.996 164.54 108.221C164.218 108.447 163.913 108.604 163.617 108.691C163.321 108.778 163.052 108.751 162.799 108.621C162.503 108.465 162.329 108.204 162.277 107.848C162.225 107.492 162.277 107.083 162.408 106.64C162.547 106.188 162.747 105.71 163.026 105.198C163.304 104.685 163.617 104.19 163.983 103.712C164.348 103.234 164.723 102.791 165.132 102.4C165.541 102.009 165.932 101.688 166.315 101.462C166.55 101.314 166.785 101.227 167.029 101.192C167.272 101.158 167.499 101.175 167.707 101.227C167.916 101.279 168.108 101.375 168.282 101.505C168.456 101.635 168.586 101.783 168.673 101.94C168.769 101.818 168.935 101.592 169.161 101.262C169.387 100.932 169.657 100.558 169.953 100.132C170.257 99.7066 170.579 99.2548 170.919 98.7769C171.258 98.299 171.589 97.8385 171.911 97.4041C172.233 96.9696 172.52 96.57 172.781 96.2137C173.042 95.8575 173.242 95.5882 173.39 95.4231C173.512 95.2667 173.669 95.1972 173.86 95.2319C174.052 95.2667 174.217 95.3536 174.356 95.5013C174.496 95.649 174.591 95.8314 174.626 96.0487C174.661 96.2659 174.591 96.4744 174.4 96.6655C173.164 98.0297 172.146 99.3938 171.336 100.749C170.527 102.105 169.901 103.373 169.457 104.564C169.013 105.754 168.726 106.831 168.604 107.787C168.482 108.751 168.491 109.516 168.639 110.098C168.673 110.237 168.621 110.359 168.473 110.489C168.325 110.611 168.151 110.698 167.942 110.759C167.742 110.811 167.542 110.819 167.351 110.776C167.159 110.732 167.037 110.62 166.994 110.437C166.959 110.298 166.95 110.02 166.968 109.603C166.985 109.186 167.046 108.682 167.133 108.1C167.229 107.518 167.359 106.875 167.542 106.188C167.725 105.502 167.942 104.824 168.204 104.155V104.129ZM167.742 102.947C167.803 102.861 167.803 102.774 167.734 102.678C167.664 102.583 167.542 102.548 167.377 102.574C167.142 102.6 166.881 102.739 166.585 102.991C166.289 103.243 165.993 103.547 165.706 103.903C165.419 104.259 165.14 104.642 164.87 105.059C164.601 105.476 164.392 105.841 164.235 106.18C164.079 106.51 163.983 106.77 163.948 106.962C163.913 107.153 163.983 107.214 164.139 107.153C164.261 107.101 164.427 106.988 164.627 106.797C164.827 106.605 165.053 106.371 165.306 106.093C165.549 105.815 165.81 105.519 166.071 105.198C166.332 104.876 166.585 104.572 166.811 104.277C167.037 103.981 167.238 103.712 167.403 103.469C167.568 103.225 167.681 103.052 167.742 102.939V102.947Z" fill="#01A9BE"/>
<path d="M172.258 106.683C172.398 106.779 172.598 106.805 172.868 106.744C173.137 106.692 173.451 106.588 173.79 106.431C174.138 106.275 174.504 106.093 174.878 105.867C175.261 105.641 175.635 105.415 176.001 105.163C176.366 104.92 176.697 104.668 177.01 104.416C177.315 104.164 177.576 103.938 177.785 103.738C177.863 103.677 177.941 103.66 178.046 103.703C178.141 103.738 178.22 103.807 178.281 103.903C178.333 103.999 178.359 104.112 178.333 104.233C178.315 104.355 178.22 104.468 178.046 104.563C177.776 104.807 177.454 105.093 177.088 105.406C176.723 105.719 176.331 106.032 175.922 106.327C175.504 106.631 175.078 106.909 174.634 107.179C174.19 107.448 173.755 107.665 173.329 107.839C172.902 108.013 172.493 108.126 172.102 108.169C171.71 108.221 171.345 108.169 171.031 108.021C170.675 107.865 170.431 107.63 170.292 107.326C170.152 107.022 170.109 106.683 170.152 106.301C170.196 105.919 170.309 105.51 170.501 105.085C170.692 104.65 170.927 104.225 171.205 103.807C171.484 103.39 171.797 102.999 172.145 102.635C172.493 102.27 172.85 101.957 173.207 101.705C173.686 101.375 174.138 101.175 174.547 101.123C174.956 101.071 175.287 101.123 175.539 101.296C175.783 101.47 175.922 101.74 175.948 102.105C175.974 102.469 175.844 102.895 175.557 103.39C175.374 103.686 175.148 103.973 174.878 104.251C174.608 104.529 174.33 104.772 174.025 104.972C173.72 105.172 173.416 105.328 173.103 105.432C172.789 105.537 172.493 105.563 172.224 105.519C172.189 105.58 172.145 105.667 172.11 105.771C172.076 105.875 172.05 105.988 172.05 106.101C172.05 106.223 172.05 106.336 172.076 106.44C172.102 106.553 172.154 106.631 172.241 106.683H172.258ZM172.589 104.798C172.85 104.772 173.172 104.616 173.555 104.337C173.938 104.051 174.269 103.634 174.556 103.078C174.652 102.895 174.695 102.774 174.686 102.704C174.678 102.643 174.626 102.626 174.547 102.661C174.469 102.695 174.356 102.765 174.217 102.869C174.077 102.982 173.929 103.112 173.781 103.277C173.52 103.547 173.277 103.834 173.042 104.138C172.807 104.442 172.659 104.659 172.598 104.798H172.589Z" fill="#01A9BE"/>
<path d="M192.414 101.027C193.833 99.6368 194.868 98.4204 195.521 97.3864C196.174 96.3525 196.53 95.5271 196.591 94.9015C196.652 94.2759 196.461 93.8762 196.026 93.7025C195.59 93.52 194.99 93.5982 194.224 93.911C193.458 94.2325 192.571 94.8233 191.561 95.6835C190.552 96.5436 189.507 97.6992 188.437 99.1416C187.915 99.828 187.462 100.558 187.062 101.314C186.662 102.07 186.331 102.826 186.061 103.573C185.791 104.32 185.6 105.032 185.478 105.719C185.356 106.405 185.313 107.022 185.356 107.57C185.4 108.117 185.53 108.577 185.748 108.96C185.965 109.333 186.279 109.585 186.679 109.707C187.149 109.846 187.689 109.811 188.289 109.611C188.89 109.412 189.534 109.116 190.195 108.708C190.865 108.299 191.526 107.822 192.205 107.274C192.875 106.727 193.519 106.171 194.128 105.606C194.738 105.041 195.286 104.502 195.773 103.999C196.261 103.495 196.652 103.078 196.948 102.739C197.044 102.643 197.166 102.6 197.305 102.608C197.444 102.617 197.566 102.669 197.679 102.765C197.784 102.86 197.844 102.973 197.871 103.121C197.897 103.269 197.836 103.416 197.705 103.564C195.991 105.484 194.416 107.022 192.988 108.178C191.553 109.333 190.282 110.159 189.159 110.671C188.037 111.184 187.071 111.41 186.27 111.349C185.469 111.288 184.825 111.01 184.347 110.515C183.868 110.02 183.555 109.342 183.424 108.482C183.285 107.622 183.329 106.64 183.537 105.545C183.746 104.45 184.138 103.277 184.721 102.026C185.304 100.775 186.07 99.5065 187.018 98.2292C188.019 96.8825 189.011 95.7877 189.995 94.9189C190.978 94.0587 191.909 93.407 192.78 92.9639C193.65 92.5208 194.442 92.2688 195.155 92.2167C195.869 92.1646 196.461 92.2775 196.922 92.5555C197.383 92.8423 197.697 93.2767 197.862 93.8588C198.027 94.441 198.001 95.1535 197.775 95.9789C197.549 96.8043 197.113 97.7427 196.452 98.7853C195.791 99.8366 194.868 100.957 193.685 102.148C193.511 102.322 193.319 102.391 193.102 102.356C192.884 102.322 192.701 102.243 192.536 102.104C192.379 101.965 192.266 101.8 192.223 101.592C192.17 101.392 192.231 101.201 192.405 101.027H192.414Z" fill="#01A9BE"/>
<path d="M210.576 104.424C209.637 105.371 208.775 105.953 207.983 106.162C207.208 106.371 206.712 106.205 206.504 105.667C206.321 105.111 206.617 104.216 207.409 102.991C207.104 103.147 206.747 103.416 206.364 103.773C205.973 104.138 205.538 104.598 205.042 105.145C204.545 105.701 204.102 106.214 203.701 106.701C203.301 107.179 202.936 107.639 202.622 108.065C202.379 108.369 202.083 108.517 201.752 108.491C201.421 108.456 201.16 108.325 200.977 108.1C200.777 107.865 200.734 107.604 200.847 107.326C201.004 106.935 201.186 106.536 201.378 106.145C201.569 105.754 201.769 105.363 201.978 104.98C202.205 104.589 202.405 104.233 202.587 103.912C202.77 103.59 202.953 103.303 203.127 103.043C203.301 102.782 203.432 102.591 203.519 102.461C203.606 102.33 203.658 102.261 203.667 102.252L200.281 102.6C200.655 103.104 200.76 103.816 200.612 104.728C200.464 105.649 200.046 106.536 199.35 107.37C198.645 108.204 197.836 108.656 196.922 108.716C196.243 108.716 195.738 108.473 195.408 107.995C195.077 107.526 194.999 106.909 195.182 106.127C195.338 105.363 195.852 104.511 196.696 103.573C196.896 103.39 197.122 103.347 197.383 103.442C197.627 103.555 197.818 103.72 197.958 103.938C198.079 104.172 198.062 104.372 197.905 104.529C197.296 105.067 196.905 105.606 196.722 106.136C196.539 106.64 196.513 107.031 196.644 107.3C196.783 107.561 197.026 107.63 197.383 107.5C197.757 107.387 198.097 107.109 198.401 106.649C198.576 106.414 198.715 106.171 198.828 105.91C198.941 105.649 199.028 105.38 199.106 105.093C199.254 104.511 199.263 104.007 199.141 103.581C199.028 103.147 198.723 102.886 198.219 102.791C198.071 102.765 197.984 102.66 197.958 102.478C197.949 102.296 197.984 102.087 198.071 101.852C198.106 101.739 198.158 101.644 198.219 101.548C198.28 101.453 198.349 101.375 198.419 101.296C198.558 101.149 198.723 101.096 198.915 101.131C199.689 101.357 200.577 101.444 201.578 101.409C202.083 101.401 202.544 101.375 202.97 101.348C203.388 101.314 203.78 101.27 204.136 101.209C204.485 101.175 204.78 101.262 205.024 101.47C205.259 101.696 205.407 101.948 205.468 102.243C205.52 102.539 205.433 102.808 205.224 103.034C204.163 104.129 203.31 105.319 202.666 106.605C202.805 106.431 202.97 106.223 203.188 105.98C203.432 105.658 203.719 105.319 204.032 104.954C204.345 104.589 204.702 104.198 205.094 103.781C205.833 102.956 206.599 102.261 207.391 101.696C208.157 101.14 208.81 100.984 209.349 101.236C209.636 101.444 209.697 101.748 209.549 102.139C209.402 102.53 209.175 102.965 208.879 103.434C208.784 103.581 208.688 103.729 208.61 103.868C208.531 104.007 208.462 104.146 208.401 104.285C208.253 104.555 208.192 104.78 208.218 104.972C208.27 105.128 208.505 105.111 208.923 104.893C209.332 104.685 209.784 104.355 210.272 103.894C210.385 103.799 210.489 103.764 210.585 103.799C210.672 103.833 210.724 103.912 210.75 104.025C210.759 104.138 210.698 104.268 210.568 104.433L210.576 104.424Z" fill="#01A9BE"/>
<path d="M214.222 104.129C213.987 104.433 213.726 104.781 213.439 105.154C213.152 105.528 212.847 105.91 212.534 106.284C212.221 106.657 211.89 107.022 211.551 107.361C211.211 107.709 210.881 107.996 210.559 108.221C210.237 108.447 209.932 108.604 209.636 108.691C209.34 108.778 209.07 108.751 208.818 108.621C208.522 108.465 208.348 108.204 208.296 107.848C208.244 107.492 208.296 107.083 208.426 106.64C208.566 106.188 208.766 105.71 209.044 105.198C209.323 104.685 209.636 104.19 210.002 103.712C210.367 103.234 210.741 102.791 211.15 102.4C211.559 102.009 211.951 101.688 212.334 101.462C212.569 101.314 212.804 101.227 213.047 101.192C213.291 101.158 213.517 101.175 213.726 101.227C213.935 101.279 214.127 101.375 214.301 101.505C214.475 101.635 214.605 101.783 214.692 101.94C214.788 101.818 214.953 101.592 215.18 101.262C215.406 100.932 215.676 100.558 215.972 100.132C216.276 99.7066 216.598 99.2548 216.938 98.7769C217.277 98.299 217.608 97.8385 217.93 97.4041C218.252 96.9696 218.539 96.57 218.8 96.2137C219.061 95.8575 219.261 95.5882 219.409 95.4231C219.531 95.2667 219.688 95.1972 219.879 95.2319C220.07 95.2667 220.236 95.3536 220.375 95.5013C220.514 95.649 220.61 95.8314 220.645 96.0487C220.68 96.2659 220.61 96.4744 220.419 96.6655C219.183 98.0297 218.165 99.3938 217.355 100.749C216.546 102.105 215.919 103.373 215.476 104.564C215.032 105.754 214.744 106.831 214.623 107.787C214.501 108.751 214.51 109.516 214.657 110.098C214.692 110.237 214.64 110.359 214.492 110.489C214.344 110.611 214.17 110.698 213.961 110.759C213.761 110.811 213.561 110.819 213.369 110.776C213.178 110.732 213.056 110.62 213.013 110.437C212.978 110.298 212.969 110.02 212.987 109.603C213.004 109.186 213.065 108.682 213.152 108.1C213.248 107.518 213.378 106.875 213.561 106.188C213.744 105.502 213.961 104.824 214.222 104.155V104.129ZM213.761 102.947C213.822 102.861 213.822 102.774 213.752 102.678C213.683 102.583 213.561 102.548 213.396 102.574C213.161 102.6 212.9 102.739 212.604 102.991C212.308 103.243 212.012 103.547 211.725 103.903C211.438 104.259 211.159 104.642 210.889 105.059C210.619 105.476 210.411 105.841 210.254 106.18C210.097 106.51 210.002 106.77 209.967 106.962C209.932 107.153 210.002 107.214 210.158 107.153C210.28 107.101 210.445 106.988 210.646 106.797C210.846 106.605 211.072 106.371 211.324 106.093C211.568 105.815 211.829 105.519 212.09 105.198C212.351 104.876 212.604 104.572 212.83 104.277C213.056 103.981 213.256 103.712 213.422 103.469C213.587 103.225 213.7 103.052 213.761 102.939V102.947Z" fill="#01A9BE"/>
<path d="M227.268 94.3718C227.424 94.1893 227.651 94.1459 227.938 94.2415C228.234 94.3631 228.451 94.5456 228.582 94.7802C228.756 95.0235 228.721 95.2928 228.486 95.5708C227.746 96.405 227.076 97.2738 226.467 98.1774C225.858 99.0811 225.31 100.011 224.805 100.966C224.3 101.931 223.856 102.861 223.482 103.756C223.108 104.659 222.777 105.528 222.49 106.38C221.924 108.091 221.576 109.403 221.454 110.315C221.42 110.463 221.298 110.576 221.106 110.646C220.924 110.724 220.706 110.741 220.462 110.724C220.236 110.715 220.045 110.628 219.888 110.481C219.749 110.333 219.723 110.124 219.792 109.855C220.123 108.699 220.541 107.509 221.037 106.301C221.533 105.085 222.107 103.825 222.777 102.504C222.577 102.739 222.351 103.026 222.098 103.365C221.846 103.703 221.559 104.094 221.237 104.538C220.976 104.911 220.715 105.267 220.462 105.606C220.201 105.954 219.94 106.293 219.688 106.623C219.183 107.248 218.748 107.709 218.374 108.013C218.017 108.256 217.66 108.395 217.321 108.421C216.973 108.421 216.668 108.326 216.398 108.143C216.128 107.943 215.972 107.665 215.937 107.292C215.902 106.936 216.007 106.44 216.25 105.815C216.372 105.493 216.503 105.18 216.651 104.876C216.79 104.572 216.946 104.251 217.12 103.938C217.295 103.617 217.442 103.338 217.573 103.104C217.704 102.869 217.817 102.669 217.912 102.513C217.965 102.435 217.991 102.391 218.008 102.365C218.156 102.122 218.382 102.027 218.696 102.087C219.018 102.122 219.279 102.244 219.47 102.435C219.679 102.643 219.731 102.887 219.618 103.156C219.374 103.547 219.148 103.912 218.948 104.233C218.748 104.564 218.574 104.859 218.408 105.128C218.113 105.658 217.869 106.145 217.669 106.588C217.495 106.996 217.512 107.196 217.721 107.179C217.904 107.179 218.452 106.605 219.366 105.459C220.253 104.338 221.254 102.991 222.368 101.41C222.925 100.619 223.447 99.863 223.952 99.1332C224.448 98.4033 224.935 97.7083 225.405 97.0218C225.849 96.3702 226.232 95.8228 226.545 95.3884C226.859 94.9539 227.102 94.6064 227.276 94.3631L227.268 94.3718ZM219.427 101.427C219.244 101.288 219.183 101.036 219.261 100.671C219.34 100.315 219.461 99.9412 219.636 99.5589C219.818 99.1766 219.984 98.8899 220.114 98.6901C220.323 98.4642 220.567 98.4033 220.854 98.4902C221.158 98.5684 221.402 98.7248 221.576 98.9681C221.75 99.194 221.75 99.446 221.576 99.7414C221.498 99.837 221.42 99.9499 221.315 100.063C221.219 100.176 221.098 100.315 220.967 100.463C220.706 100.784 220.427 101.045 220.132 101.236C219.862 101.462 219.627 101.523 219.427 101.418V101.427ZM230.07 95.1625C230.279 94.98 230.514 94.9626 230.775 95.1103C231.062 95.2667 231.245 95.4927 231.332 95.7794C231.445 96.0661 231.384 96.3354 231.149 96.5961C230.731 97.0305 230.287 97.5519 229.826 98.1688C229.365 98.7856 228.869 99.5068 228.356 100.332C227.833 101.158 227.372 101.966 226.946 102.748C226.528 103.53 226.154 104.294 225.814 105.05C225.144 106.545 224.909 107.492 225.109 107.9C225.231 108.022 225.449 107.935 225.753 107.639C226.058 107.37 226.424 106.996 226.824 106.51C227.024 106.267 227.215 106.023 227.398 105.797C227.581 105.571 227.764 105.337 227.938 105.102C228.112 104.868 228.26 104.668 228.382 104.494C228.503 104.32 228.608 104.173 228.695 104.051C228.791 103.929 228.904 103.886 229.026 103.921C229.147 103.929 229.252 104.008 229.322 104.147C229.382 104.242 229.374 104.372 229.304 104.52C229.252 104.581 229.208 104.642 229.165 104.703C229.121 104.763 229.078 104.824 229.043 104.885C228.756 105.32 228.477 105.728 228.19 106.11C227.903 106.501 227.625 106.875 227.337 107.231C226.772 107.987 226.223 108.552 225.71 108.951C225.205 109.368 224.7 109.534 224.196 109.429C223.604 109.247 223.36 108.699 223.473 107.787C223.613 106.866 223.952 105.771 224.492 104.52C225.075 103.199 225.727 101.905 226.45 100.619C226.824 99.9499 227.181 99.333 227.529 98.7596C227.877 98.1861 228.225 97.6561 228.556 97.1609C228.886 96.6569 229.182 96.2399 229.426 95.9184C229.67 95.5969 229.878 95.3536 230.053 95.1799L230.07 95.1625Z" fill="#01A9BE"/>
<path d="M229.791 106.683C229.931 106.779 230.131 106.805 230.401 106.744C230.67 106.692 230.984 106.588 231.323 106.431C231.671 106.275 232.037 106.093 232.411 105.867C232.794 105.641 233.168 105.415 233.534 105.163C233.899 104.92 234.23 104.668 234.543 104.416C234.848 104.164 235.109 103.938 235.318 103.738C235.396 103.677 235.474 103.66 235.579 103.703C235.674 103.738 235.753 103.807 235.814 103.903C235.866 103.999 235.892 104.112 235.866 104.233C235.848 104.355 235.753 104.468 235.579 104.563C235.309 104.807 234.987 105.093 234.621 105.406C234.256 105.719 233.864 106.032 233.455 106.327C233.037 106.631 232.611 106.909 232.167 107.179C231.723 107.448 231.288 107.665 230.862 107.839C230.435 108.013 230.026 108.126 229.635 108.169C229.243 108.221 228.878 108.169 228.564 108.021C228.208 107.865 227.964 107.63 227.825 107.326C227.685 107.022 227.642 106.683 227.685 106.301C227.729 105.919 227.842 105.51 228.033 105.085C228.225 104.65 228.46 104.225 228.738 103.807C229.017 103.39 229.33 102.999 229.678 102.635C230.026 102.27 230.383 101.957 230.74 101.705C231.219 101.375 231.671 101.175 232.08 101.123C232.489 101.071 232.82 101.123 233.072 101.296C233.316 101.47 233.455 101.74 233.481 102.105C233.507 102.469 233.377 102.895 233.09 103.39C232.907 103.686 232.681 103.973 232.411 104.251C232.141 104.529 231.863 104.772 231.558 104.972C231.253 105.172 230.949 105.328 230.636 105.432C230.322 105.537 230.026 105.563 229.757 105.519C229.722 105.58 229.678 105.667 229.643 105.771C229.609 105.875 229.583 105.988 229.583 106.101C229.583 106.223 229.583 106.336 229.609 106.44C229.635 106.553 229.687 106.631 229.774 106.683H229.791ZM230.122 104.798C230.383 104.772 230.705 104.616 231.088 104.337C231.471 104.051 231.802 103.634 232.089 103.078C232.185 102.895 232.228 102.774 232.219 102.704C232.211 102.643 232.158 102.626 232.08 102.661C232.002 102.695 231.889 102.765 231.749 102.869C231.61 102.982 231.462 103.112 231.314 103.277C231.053 103.547 230.81 103.834 230.575 104.138C230.34 104.442 230.192 104.659 230.131 104.798H230.122Z" fill="#01A9BE"/>
<path d="M239.66 103.112C239.373 103.234 239.042 103.486 238.659 103.868C238.276 104.251 237.876 104.685 237.467 105.163C237.049 105.641 236.64 106.136 236.24 106.649C235.831 107.161 235.465 107.613 235.152 108.004C234.952 108.247 234.743 108.395 234.508 108.43C234.273 108.465 234.064 108.439 233.89 108.343C233.708 108.247 233.577 108.108 233.481 107.909C233.386 107.709 233.377 107.5 233.455 107.283C233.603 106.892 233.838 106.388 234.151 105.78C234.465 105.172 234.804 104.563 235.17 103.973C235.535 103.373 235.883 102.843 236.205 102.365C236.536 101.887 236.78 101.583 236.954 101.436C237.11 101.288 237.293 101.244 237.485 101.305C237.676 101.366 237.841 101.479 237.981 101.627C238.12 101.783 238.216 101.948 238.25 102.139C238.285 102.322 238.25 102.469 238.12 102.565C237.963 102.687 237.78 102.869 237.572 103.104C237.371 103.338 237.154 103.599 236.945 103.894C236.727 104.19 236.51 104.503 236.301 104.815C236.083 105.137 235.892 105.441 235.718 105.719C235.544 106.006 235.396 106.249 235.265 106.458C235.135 106.666 235.056 106.805 235.013 106.883C235.187 106.683 235.422 106.397 235.727 106.006C236.031 105.615 236.362 105.198 236.727 104.746C237.093 104.294 237.484 103.851 237.902 103.408C238.32 102.965 238.738 102.582 239.147 102.261C239.556 101.939 239.947 101.714 240.33 101.566C240.713 101.427 241.053 101.436 241.348 101.609C241.618 101.757 241.74 101.966 241.723 102.235C241.697 102.504 241.618 102.8 241.488 103.104C241.357 103.408 241.218 103.721 241.079 104.025C240.939 104.329 240.887 104.598 240.922 104.815C240.931 104.902 241.009 104.937 241.148 104.92C241.288 104.902 241.453 104.841 241.644 104.746C241.844 104.65 242.062 104.511 242.314 104.329C242.558 104.146 242.802 103.947 243.037 103.712C243.115 103.634 243.185 103.608 243.272 103.608C243.35 103.608 243.42 103.651 243.463 103.712C243.515 103.773 243.533 103.851 243.515 103.955C243.507 104.051 243.437 104.155 243.333 104.268C242.602 104.98 241.923 105.467 241.279 105.728C240.635 105.988 240.121 106.049 239.738 105.919C239.356 105.789 239.138 105.484 239.094 104.998C239.042 104.511 239.242 103.877 239.686 103.104L239.66 103.112Z" fill="#01A9BE"/>
<path d="M247.432 104.242C247.084 104.572 246.692 104.981 246.248 105.467C245.804 105.954 245.343 106.414 244.873 106.857C244.394 107.292 243.916 107.639 243.428 107.9C242.941 108.161 242.471 108.221 242.027 108.082C241.731 107.996 241.54 107.822 241.444 107.561C241.349 107.3 241.34 106.996 241.409 106.649C241.479 106.301 241.618 105.919 241.836 105.511C242.053 105.102 242.315 104.703 242.619 104.303C242.924 103.903 243.28 103.53 243.663 103.182C244.055 102.835 244.455 102.548 244.873 102.313C245.369 102.026 245.83 101.94 246.248 102.053C246.666 102.165 247.031 102.435 247.327 102.869C247.414 102.782 247.519 102.669 247.64 102.539C247.762 102.4 247.893 102.261 248.023 102.113C248.154 101.966 248.284 101.827 248.415 101.688C248.546 101.549 248.659 101.444 248.754 101.375C248.911 101.236 249.085 101.175 249.277 101.184C249.459 101.184 249.616 101.236 249.747 101.331C249.877 101.427 249.964 101.557 250.008 101.731C250.051 101.905 250.016 102.087 249.903 102.287C249.224 103.53 248.781 104.477 248.563 105.111C248.345 105.754 248.328 106.119 248.519 106.223C248.702 106.319 249.085 106.162 249.668 105.745C250.251 105.328 250.991 104.685 251.905 103.825C252.018 103.729 252.122 103.677 252.218 103.686C252.314 103.686 252.392 103.729 252.453 103.808C252.505 103.886 252.531 103.981 252.514 104.103C252.505 104.225 252.436 104.364 252.314 104.511C251.156 105.867 250.19 106.77 249.425 107.222C248.659 107.674 248.015 107.761 247.484 107.492C247.153 107.318 246.962 106.988 246.909 106.492C246.857 105.997 247.031 105.25 247.432 104.259V104.242ZM243.968 106.032C244.177 105.884 244.412 105.693 244.682 105.458C244.943 105.224 245.204 104.981 245.456 104.737C245.709 104.494 245.935 104.259 246.135 104.034C246.335 103.808 246.466 103.643 246.527 103.538C246.579 103.451 246.553 103.382 246.448 103.312C246.353 103.252 246.196 103.243 245.978 103.295C245.761 103.347 245.491 103.477 245.16 103.686C244.83 103.895 244.464 104.225 244.055 104.685C243.968 104.781 243.864 104.92 243.733 105.085C243.603 105.25 243.489 105.415 243.385 105.58C243.281 105.745 243.193 105.902 243.124 106.049C243.054 106.197 243.028 106.301 243.054 106.371C243.072 106.44 243.15 106.449 243.298 106.406C243.437 106.362 243.663 106.24 243.977 106.023L243.968 106.032Z" fill="#01A9BE"/>
<path d="M261.094 104.242C260.746 104.572 260.355 104.981 259.911 105.467C259.467 105.954 259.006 106.414 258.536 106.857C258.057 107.292 257.579 107.639 257.091 107.9C256.604 108.161 256.134 108.221 255.69 108.082C255.394 107.996 255.203 107.822 255.107 107.561C255.011 107.3 255.003 106.996 255.072 106.649C255.142 106.301 255.281 105.919 255.499 105.511C255.716 105.102 255.977 104.703 256.282 104.303C256.587 103.903 256.943 103.53 257.326 103.182C257.718 102.835 258.118 102.548 258.536 102.313C259.032 102.026 259.493 101.94 259.911 102.053C260.329 102.165 260.694 102.435 260.99 102.869C261.077 102.782 261.181 102.669 261.303 102.539C261.425 102.4 261.556 102.261 261.686 102.113C261.817 101.966 261.947 101.827 262.078 101.688C262.208 101.549 262.322 101.444 262.417 101.375C262.574 101.236 262.748 101.175 262.939 101.184C263.122 101.184 263.279 101.236 263.409 101.331C263.54 101.427 263.627 101.557 263.67 101.731C263.714 101.905 263.679 102.087 263.566 102.287C262.887 103.53 262.443 104.477 262.226 105.111C262.008 105.754 261.991 106.119 262.182 106.223C262.365 106.319 262.748 106.162 263.331 105.745C263.914 105.328 264.654 104.685 265.568 103.825C265.681 103.729 265.785 103.677 265.881 103.686C265.977 103.686 266.055 103.729 266.116 103.808C266.168 103.886 266.194 103.981 266.177 104.103C266.168 104.225 266.098 104.364 265.977 104.511C264.819 105.867 263.853 106.77 263.087 107.222C262.322 107.674 261.678 107.761 261.147 107.492C260.816 107.318 260.625 106.988 260.572 106.492C260.52 105.997 260.694 105.25 261.094 104.259V104.242ZM257.631 106.032C257.84 105.884 258.075 105.693 258.344 105.458C258.606 105.224 258.867 104.981 259.119 104.737C259.371 104.494 259.598 104.259 259.798 104.034C259.998 103.808 260.128 103.643 260.189 103.538C260.242 103.451 260.216 103.382 260.111 103.312C260.015 103.252 259.859 103.243 259.641 103.295C259.424 103.347 259.154 103.477 258.823 103.686C258.492 103.895 258.127 104.225 257.718 104.685C257.631 104.781 257.526 104.92 257.396 105.085C257.265 105.25 257.152 105.415 257.048 105.58C256.943 105.745 256.856 105.902 256.787 106.049C256.717 106.197 256.691 106.301 256.717 106.371C256.734 106.44 256.813 106.449 256.961 106.406C257.1 106.362 257.326 106.24 257.64 106.023L257.631 106.032Z" fill="#01A9BE"/>
<path d="M293.547 94.632C293.93 94.7536 294.147 95.0143 294.217 95.3966C294.278 95.7876 294.234 96.2742 294.086 96.865C293.938 97.4558 293.712 98.1248 293.416 98.8721C293.12 99.6193 292.798 100.401 292.441 101.227C292.093 102.052 291.745 102.904 291.406 103.764C291.066 104.633 290.779 105.484 290.553 106.318C290.327 107.152 290.179 107.943 290.109 108.699C290.04 109.455 290.109 110.141 290.318 110.741C290.396 110.949 290.335 111.14 290.161 111.306C289.979 111.471 289.77 111.592 289.526 111.679C289.282 111.757 289.039 111.783 288.795 111.74C288.551 111.697 288.412 111.584 288.377 111.392C288.238 110.802 288.212 110.124 288.29 109.351C288.369 108.577 288.517 107.769 288.725 106.918C288.934 106.066 289.195 105.206 289.491 104.329C289.796 103.451 290.092 102.608 290.396 101.791C290.701 100.975 290.988 100.21 291.258 99.5063C291.528 98.8026 291.745 98.203 291.893 97.7165C292.05 97.2212 292.128 96.8563 292.128 96.6043C292.128 96.3524 292.006 96.2915 291.754 96.4045C291.467 96.5261 291.162 96.726 290.823 96.9866C290.483 97.256 290.135 97.5514 289.77 97.8902C289.404 98.2291 289.047 98.594 288.691 98.985C288.334 99.376 288.003 99.7409 287.707 100.097C287.411 100.445 287.159 100.775 286.941 101.079C286.724 101.383 286.576 101.609 286.489 101.774C286.35 102.043 286.167 102.408 285.932 102.86C285.697 103.312 285.445 103.807 285.175 104.337C284.905 104.867 284.609 105.415 284.305 105.979C284 106.544 283.695 107.083 283.408 107.587C283.121 108.091 282.843 108.551 282.573 108.951C282.303 109.359 282.085 109.663 281.894 109.872C281.807 109.985 281.702 110.072 281.581 110.15C281.459 110.228 281.337 110.28 281.224 110.315C281.102 110.35 280.989 110.358 280.884 110.341C280.78 110.324 280.684 110.272 280.606 110.185C280.458 110.002 280.432 109.698 280.519 109.29C280.606 108.881 280.78 108.404 281.015 107.874C281.259 107.344 281.546 106.787 281.885 106.188C282.225 105.597 282.564 105.032 282.912 104.485C283.26 103.946 283.582 103.451 283.896 103.017C284.2 102.582 284.444 102.252 284.618 102.026C284.731 101.783 284.888 101.427 285.097 100.957C285.305 100.488 285.523 99.9755 285.74 99.4021C285.967 98.8373 286.176 98.2465 286.376 97.6383C286.576 97.0301 286.741 96.4653 286.854 95.944C286.968 95.4227 287.02 94.9882 287.011 94.6233C287.002 94.2584 286.889 94.0325 286.68 93.9282C286.472 93.8413 286.228 93.8327 285.949 93.9108C285.671 93.989 285.384 94.1107 285.079 94.2845C284.774 94.4582 284.47 94.6581 284.165 94.884C283.861 95.1099 283.574 95.3358 283.312 95.5704C283.051 95.7963 282.825 96.0048 282.634 96.196C282.442 96.3871 282.312 96.5261 282.251 96.613C281.981 97.7078 281.607 98.8373 281.128 100.002C280.649 101.166 280.119 102.313 279.527 103.451C278.935 104.581 278.308 105.667 277.656 106.701C277.003 107.734 276.359 108.673 275.733 109.507C274.68 110.915 273.792 111.836 273.052 112.27C272.312 112.704 271.686 112.774 271.181 112.479C270.711 112.209 270.607 111.531 270.859 110.454C271.111 109.377 271.782 107.9 272.869 106.032C273.426 105.067 274.018 104.163 274.636 103.303C275.263 102.443 275.898 101.626 276.559 100.836C277.221 100.045 277.891 99.2978 278.57 98.5767C279.248 97.8642 279.936 97.1691 280.623 96.4914C280.745 96.0569 280.824 95.666 280.85 95.3184C280.876 94.9709 280.858 94.6581 280.806 94.4061C280.754 94.1454 280.667 93.9456 280.545 93.7979C280.432 93.6502 280.293 93.5546 280.127 93.5199C279.771 93.4503 279.362 93.4764 278.918 93.6154C278.465 93.7544 277.995 93.963 277.508 94.241C277.021 94.5277 276.524 94.8666 276.028 95.2663C275.532 95.666 275.045 96.0917 274.584 96.5522C274.123 97.004 273.696 97.4732 273.296 97.9598C272.904 98.4376 272.565 98.9068 272.295 99.3673C272.182 99.5237 272.025 99.6019 271.816 99.5758C271.608 99.5585 271.416 99.4803 271.233 99.3499C271.051 99.2196 270.929 99.0545 270.85 98.8634C270.772 98.6635 270.816 98.4724 270.981 98.2726C271.834 97.2038 272.695 96.2742 273.566 95.5009C274.436 94.7276 275.271 94.0933 276.081 93.6154C276.89 93.1376 277.656 92.8074 278.387 92.6249C279.118 92.4425 279.771 92.4338 280.345 92.5815C280.58 92.6423 280.815 92.7379 281.059 92.8595C281.302 92.9812 281.52 93.1376 281.729 93.32C281.929 93.5025 282.103 93.711 282.242 93.9456C282.381 94.1802 282.468 94.4322 282.503 94.7015C283.243 94.0325 283.965 93.4851 284.661 93.0507C285.358 92.6162 285.984 92.3208 286.55 92.1644C287.115 92.008 287.585 92.008 287.977 92.1557C288.369 92.3034 288.638 92.6249 288.786 93.1202C288.934 93.6154 288.943 94.2845 288.812 95.1446C288.682 96.0048 288.369 97.0648 287.881 98.3334C288.038 98.1509 288.256 97.9163 288.525 97.6383C288.795 97.3602 289.1 97.0735 289.43 96.7694C289.761 96.4653 290.118 96.1699 290.483 95.8745C290.858 95.5791 291.223 95.3271 291.589 95.1099C291.954 94.8927 292.302 94.7363 292.633 94.6407C292.964 94.5451 293.268 94.5364 293.538 94.6233L293.547 94.632ZM275.01 107.656C275.489 106.987 275.968 106.257 276.446 105.467C276.925 104.676 277.377 103.877 277.804 103.086C278.239 102.295 278.63 101.522 278.987 100.784C279.344 100.045 279.64 99.3934 279.875 98.846C279.44 99.2804 278.97 99.7844 278.448 100.367C277.926 100.949 277.403 101.583 276.864 102.252C276.324 102.921 275.793 103.625 275.271 104.355C274.749 105.084 274.27 105.814 273.853 106.544C273.479 107.187 273.165 107.778 272.913 108.317C272.652 108.855 272.46 109.316 272.33 109.689C272.199 110.063 272.147 110.332 272.182 110.506C272.217 110.68 272.33 110.689 272.53 110.558C272.73 110.428 273.035 110.133 273.444 109.663C273.853 109.194 274.366 108.525 275.002 107.648L275.01 107.656Z" fill="#01A9BE"/>
<path d="M298.464 104.242C298.115 104.572 297.724 104.981 297.28 105.467C296.836 105.954 296.375 106.414 295.905 106.857C295.426 107.292 294.948 107.639 294.46 107.9C293.973 108.161 293.503 108.221 293.059 108.082C292.763 107.996 292.572 107.822 292.476 107.561C292.38 107.3 292.372 106.996 292.441 106.649C292.511 106.301 292.65 105.919 292.868 105.511C293.085 105.102 293.346 104.703 293.651 104.303C293.956 103.903 294.312 103.53 294.695 103.182C295.087 102.835 295.487 102.548 295.905 102.313C296.401 102.026 296.862 101.94 297.28 102.053C297.698 102.165 298.063 102.435 298.359 102.869C298.446 102.782 298.551 102.669 298.672 102.539C298.794 102.4 298.925 102.261 299.055 102.113C299.186 101.966 299.316 101.827 299.447 101.688C299.578 101.549 299.691 101.444 299.786 101.375C299.943 101.236 300.117 101.175 300.309 101.184C300.491 101.184 300.648 101.236 300.778 101.331C300.909 101.427 300.996 101.557 301.04 101.731C301.083 101.905 301.048 102.087 300.935 102.287C300.256 103.53 299.813 104.477 299.595 105.111C299.377 105.754 299.36 106.119 299.551 106.223C299.734 106.319 300.117 106.162 300.7 105.745C301.283 105.328 302.023 104.685 302.937 103.825C303.05 103.729 303.154 103.677 303.25 103.686C303.346 103.686 303.424 103.729 303.485 103.808C303.537 103.886 303.563 103.981 303.546 104.103C303.537 104.225 303.468 104.364 303.346 104.511C302.188 105.867 301.222 106.77 300.456 107.222C299.691 107.674 299.047 107.761 298.516 107.492C298.185 107.318 297.994 106.988 297.941 106.492C297.889 105.997 298.063 105.25 298.464 104.259V104.242ZM295.009 106.032C295.218 105.884 295.453 105.693 295.722 105.458C295.983 105.224 296.244 104.981 296.497 104.737C296.749 104.494 296.975 104.259 297.176 104.034C297.376 103.808 297.506 103.643 297.567 103.538C297.619 103.451 297.593 103.382 297.489 103.312C297.393 103.252 297.237 103.243 297.019 103.295C296.801 103.347 296.532 103.477 296.201 103.686C295.87 103.895 295.505 104.225 295.096 104.685C295.009 104.781 294.904 104.92 294.774 105.085C294.643 105.25 294.53 105.415 294.426 105.58C294.321 105.745 294.234 105.902 294.165 106.049C294.095 106.197 294.069 106.301 294.095 106.371C294.112 106.44 294.191 106.449 294.339 106.406C294.478 106.362 294.704 106.24 295.017 106.023L295.009 106.032Z" fill="#01A9BE"/>
<path d="M307.279 103.112C306.992 103.234 306.661 103.486 306.278 103.868C305.895 104.251 305.495 104.685 305.086 105.163C304.668 105.641 304.259 106.136 303.859 106.649C303.45 107.161 303.085 107.613 302.763 108.004C302.562 108.247 302.354 108.395 302.119 108.43C301.884 108.465 301.675 108.439 301.501 108.343C301.318 108.247 301.187 108.108 301.092 107.909C300.996 107.709 300.987 107.5 301.066 107.283C301.214 106.892 301.448 106.388 301.762 105.78C302.075 105.172 302.414 104.563 302.78 103.973C303.145 103.373 303.494 102.843 303.816 102.365C304.146 101.887 304.39 101.583 304.564 101.436C304.721 101.288 304.903 101.244 305.095 101.305C305.286 101.366 305.452 101.479 305.591 101.627C305.73 101.783 305.826 101.948 305.861 102.139C305.895 102.322 305.861 102.469 305.73 102.565C305.573 102.687 305.391 102.869 305.182 103.104C304.982 103.338 304.764 103.599 304.555 103.894C304.338 104.19 304.12 104.503 303.911 104.815C303.694 105.137 303.502 105.441 303.328 105.719C303.154 106.006 303.006 106.249 302.876 106.458C302.745 106.666 302.667 106.805 302.623 106.883C302.797 106.683 303.032 106.397 303.337 106.006C303.642 105.615 303.972 105.198 304.338 104.746C304.703 104.294 305.095 103.851 305.513 103.408C305.93 102.965 306.348 102.582 306.757 102.261C307.166 101.939 307.558 101.714 307.941 101.566C308.324 101.427 308.663 101.436 308.959 101.609C309.229 101.757 309.35 101.966 309.333 102.235C309.307 102.504 309.229 102.8 309.098 103.104C308.967 103.408 308.828 103.721 308.689 104.025C308.55 104.329 308.498 104.598 308.532 104.815C308.541 104.902 308.619 104.937 308.759 104.92C308.898 104.902 309.063 104.841 309.255 104.746C309.455 104.65 309.672 104.511 309.925 104.329C310.168 104.146 310.412 103.947 310.647 103.712C310.725 103.634 310.795 103.608 310.882 103.608C310.96 103.608 311.03 103.651 311.074 103.712C311.126 103.773 311.143 103.851 311.126 103.955C311.117 104.051 311.047 104.155 310.943 104.268C310.212 104.98 309.533 105.467 308.889 105.728C308.245 105.988 307.732 106.049 307.349 105.919C306.966 105.789 306.748 105.484 306.705 104.998C306.653 104.511 306.853 103.877 307.297 103.104L307.279 103.112Z" fill="#01A9BE"/>
</svg>
